<svg xmlns="http://www.w3.org/2000/svg" viewBox="0 0 37.591 37.591">
  <defs>
    <style>
      .cls-1 {
        fill: #fff;
      }
    </style>
  </defs>
  <g id="BCJTFV_2_" transform="translate(0.1)">
    <g id="Group_105" data-name="Group 105" transform="translate(-0.1)">
      <path id="Path_403" data-name="Path 403" d="M20.853,0H21.6c1.108.3,2.217.582,3.306.921,1.71.545,1.785.62,1.559,2.386a3.114,3.114,0,0,0,.808,2.574,3.96,3.96,0,0,0,4.884,1.3,1.354,1.354,0,0,1,1.954.639c.564,1.052,1.24,2.029,1.766,3.081.6,1.2.451,1.371-.564,2.292A4.14,4.14,0,0,0,34.1,15.066a4.743,4.743,0,0,0,.488,3.532,3.194,3.194,0,0,0,1,1.071,19.387,19.387,0,0,0,1.973,1V21.6c-.357,1.184-.676,2.386-1.071,3.569-.47,1.371-.751,1.559-2.2,1.259a3.064,3.064,0,0,0-2.762.77,3.755,3.755,0,0,0-1.108,4.9c.451,1.052.395,1.39-.582,2.01a33.25,33.25,0,0,1-3.081,1.747c-1.334.658-1.54.582-2.348-.658a2.9,2.9,0,0,0-2.236-1.334,4.026,4.026,0,0,0-4.6,2.592,9.772,9.772,0,0,1-.658,1.127H15.78c-1.071-.319-2.142-.62-3.212-.977-1.5-.507-1.6-.827-1.447-2.4a3.89,3.89,0,0,0-5.561-3.889c-1.24.488-1.5.432-2.236-.7-.47-.7-.9-1.428-1.3-2.16-1.09-1.991-1.071-1.991.77-3.4a3.547,3.547,0,0,0,1.3-3.438,3.266,3.266,0,0,0-2.123-2.855A16.584,16.584,0,0,1,0,16.72V15.78c.357-1.259.751-2.5,1.071-3.757a1.153,1.153,0,0,1,1.353-.977,4.771,4.771,0,0,0,1.033.056,5.692,5.692,0,0,0,2.085-.545A4.121,4.121,0,0,0,7.289,5.467c-.432-1.3-.376-1.5.77-2.217.845-.526,1.71-1.033,2.592-1.5,1.39-.714,1.691-.658,2.63.658.977,1.371,2.367,1.371,3.795,1.2a3.085,3.085,0,0,0,2.874-2.048A8.025,8.025,0,0,1,20.853,0ZM19.181,28.649A10,10,0,1,0,9.055,18.786,10.035,10.035,0,0,0,19.181,28.649Z" transform="translate(0.019)"/>
      <path id="Path_404" data-name="Path 404" class="cls-1" d="M-.081,89a17.933,17.933,0,0,0,1.954,1.052A3.244,3.244,0,0,1,4,92.907a3.576,3.576,0,0,1-1.3,3.438c-1.841,1.409-1.841,1.409-.77,3.4.395.733.845,1.465,1.3,2.16.733,1.108,1,1.184,2.236.7a3.948,3.948,0,0,1,5.091,1.616,3.986,3.986,0,0,1,.47,2.273c-.15,1.578-.056,1.9,1.447,2.4,1.052.357,2.142.639,3.212.977H-.1Q-.072,99.417-.081,89Z" transform="translate(0.1 -72.28)"/>
      <path id="Path_405" data-name="Path 405" class="cls-1" d="M90,130.887a9.773,9.773,0,0,0,.658-1.127,4.037,4.037,0,0,1,4.6-2.592A2.977,2.977,0,0,1,97.5,128.5c.808,1.259,1.014,1.315,2.348.658a30.967,30.967,0,0,0,3.081-1.747c.977-.62,1.033-.977.582-2.01a3.76,3.76,0,0,1,1.108-4.9,3.013,3.013,0,0,1,2.762-.77c1.447.319,1.728.113,2.2-1.259.395-1.184.714-2.367,1.071-3.569v15.968Q100.332,130.9,90,130.887Z" transform="translate(-73.074 -93.315)"/>
      <path id="Path_406" data-name="Path 406" class="cls-1" d="M20.853,0a9,9,0,0,0-.9,1.522,3.041,3.041,0,0,1-2.874,2.048c-1.428.169-2.818.169-3.795-1.2-.921-1.3-1.24-1.371-2.63-.658a29.919,29.919,0,0,0-2.592,1.5c-1.146.733-1.2.939-.77,2.217A4.114,4.114,0,0,1,5.542,10.52a5.9,5.9,0,0,1-2.085.545,4.9,4.9,0,0,1-1.033-.056,1.17,1.17,0,0,0-1.353.977C.751,13.282.357,14.522,0,15.78V0Z" transform="translate(0.019)"/>
      <path id="Path_407" data-name="Path 407" class="cls-1" d="M130.968,20.665a19.386,19.386,0,0,1-1.973-1,3.193,3.193,0,0,1-1-1.071,4.68,4.68,0,0,1-.488-3.532,4.14,4.14,0,0,1,1.221-1.879c1-.921,1.165-1.09.564-2.292-.526-1.052-1.2-2.048-1.766-3.081a1.38,1.38,0,0,0-1.954-.639,3.96,3.96,0,0,1-4.884-1.3,3.073,3.073,0,0,1-.808-2.574c.225-1.766.169-1.841-1.559-2.386C117.217.582,116.108.3,115,0h15.968Z" transform="translate(-93.377)"/>
      <path id="Path_408" data-name="Path 408" class="cls-1" d="M58.319,66a10,10,0,1,1,9.919-10.163A10.051,10.051,0,0,1,58.319,66Z" transform="translate(-39.12 -37.356)"/>
    </g>
  </g>
</svg>
