<svg xmlns="http://www.w3.org/2000/svg" viewBox="0 0 33.421 44.485">
  <defs>
    <style>
      .cls-1 {
        fill: #fff;
      }
    </style>
  </defs>
  <g id="Group_104" data-name="Group 104" transform="translate(0)">
    <g id="Group_102" data-name="Group 102" transform="translate(0 11.075)">
      <path id="Path_399" data-name="Path 399" d="M29.938,134.51H3.483A3.476,3.476,0,0,1,0,131.038l2.191-26.454A3.478,3.478,0,0,1,5.674,101.1H27.747a3.478,3.478,0,0,1,3.483,3.483l2.191,26.454A3.476,3.476,0,0,1,29.938,134.51Z" transform="translate(0 -101.1)"/>
    </g>
    <path id="Path_400" data-name="Path 400" d="M100.764,0a6.364,6.364,0,1,0,6.364,6.364A6.363,6.363,0,0,0,100.764,0Zm0,10.637a4.261,4.261,0,1,1,4.261-4.261A4.259,4.259,0,0,1,100.764,10.637Z" transform="translate(-84.059)"/>
    <g id="Group_103" data-name="Group 103" transform="translate(8.338 23.456)">
      <path id="Path_401" data-name="Path 401" class="cls-1" d="M56.187,208.5H53.711l-2.7-4.336-.922.665v3.679H47.9V198.2h2.18v4.713l.858-1.21,2.789-3.5h2.42l-3.591,4.56Z" transform="translate(-47.9 -198.056)"/>
      <path id="Path_402" data-name="Path 402" class="cls-1" d="M157.16,201.064h4.087V206.4a11.674,11.674,0,0,1-1.867.457,12.063,12.063,0,0,1-1.8.128,4.527,4.527,0,0,1-3.558-1.37,5.716,5.716,0,0,1-1.226-3.935,5.18,5.18,0,0,1,1.427-3.887,5.423,5.423,0,0,1,3.959-1.395,7.582,7.582,0,0,1,3.054.633l-.729,1.747a5.167,5.167,0,0,0-2.348-.561,2.9,2.9,0,0,0-2.268.954,3.676,3.676,0,0,0-.85,2.557,4.1,4.1,0,0,0,.689,2.557,2.36,2.36,0,0,0,2,.882,6.847,6.847,0,0,0,1.387-.144v-2.148h-1.948v-1.811Z" transform="translate(-144.393 -196.4)"/>
    </g>
  </g>
</svg>
