<?xml version="1.0" encoding="utf-8"?>
<!-- Generator: Adobe Illustrator 22.0.1, SVG Export Plug-In . SVG Version: 6.00 Build 0)  -->
<svg version="1.1" id="Layer_1" xmlns="http://www.w3.org/2000/svg" xmlns:xlink="http://www.w3.org/1999/xlink" x="0px" y="0px"
	 viewBox="0 0 733.3 84" style="enable-background:new 0 0 733.3 84;" xml:space="preserve">
<style type="text/css">
	.st0{fill:#E20613;}
	.st1{fill:#1D1D1B;}
</style>
<g>
	<path class="st0" d="M101.3,23c1.5,1.8,1.9,3.8,1.4,6.5c-0.4,2.4-1.6,4.7-3.3,6.2c-3.6,3.1-10,3.9-20.9,3.9H30.4L33.5,20h48.1
		C93.7,20,99.1,20.4,101.3,23 M126.5,28.8c1-6.5,0.8-13.7-3.6-18.9c-5.1-6-13-9-37.8-9H13.1L0,83.5h23.5L27.7,57h29.5l35.5,26.5H127
		l0.1-0.4L89.6,56.6c14.3-1.1,21.4-4.1,26.9-8.8C123,42.1,125.5,35,126.5,28.8"/>
	<g>
		<path class="st1" d="M209.9,27.3c-3.7,3.2-8.9,4.9-21.4,4.9h-24.7L161.3,46h-12.6l7.8-44.3h37c13.4,0,17.6,1.6,20.2,4.8
			c2.3,2.8,2.4,6.6,1.7,10.4C214.8,20.4,213.4,24.2,209.9,27.3z M191.5,11.8h-24.2l-2,11.1h24.2c5.8,0,9.3-0.4,11.3-2.1
			c1-0.8,1.6-2.1,1.9-3.6c0.3-1.7,0.1-2.8-0.7-3.7C200.9,12.1,198,11.8,191.5,11.8z"/>
		<path class="st1" d="M247.2,1.4h16.2l24,44.6h-14.6l-4.5-8.6h-39.4l-7.5,8.6h-13.9L247.2,1.4z M237,28.2h26.5l-9.9-18.9L237,28.2z
			"/>
		<path class="st1" d="M331.2,0c13.3,0,22.3,2.1,27.4,4.5l-2,11.1c-5.9-3.2-15.6-5.7-27.3-5.7c-9.7,0-15.9,2-18.9,4.6
			c-2.5,2.2-4.3,4.7-5.1,9.3c-0.8,4.6,0.1,7.2,1.8,9.3c2.1,2.6,7.6,4.6,17.3,4.6c11.6,0,22.2-2.3,29.2-5.3l-1.9,10.6
			c-5.9,2.5-15.7,4.5-29,4.5c-15.8,0-23.8-3.7-27.3-7.8c-3.2-3.9-4.2-9.2-3-16c1.2-6.7,4.1-12.1,8.6-16C306.2,3.7,315.4,0,331.2,0z"
			/>
		<path class="st1" d="M388.6,18.5l28.7-16.8h18.2l0,0.2l-37,21.7l29.8,22.2l0,0.2h-19.1l-23.2-17.3h-7.4l-3,17.3h-12.6l7.8-44.3
			h12.6l-3,16.8H388.6z"/>
	</g>
	<g>
		<path class="st1" d="M166.4,74.6l-0.4,2h-17.5l-1.1,5h17.8l-0.4,2h-20.2l3.4-15.8h20.2l-0.4,2h-17.8l-1,4.8H166.4z"/>
		<path class="st1" d="M191.4,81.4l2.9-13.6h2.4l-3.4,15.8H190l-13.6-13.8l-2.9,13.8H171l3.4-15.8h3.5L191.4,81.4z"/>
		<path class="st1" d="M225,75.1l-0.3,1.4c-0.4,2.1-1.2,3.6-2.7,4.8c-1.9,1.6-5,2.5-10.3,2.5c-6.2,0-8.6-1.3-9.7-2.8
			c-1-1.3-1.3-3.2-0.9-5.4c0.5-2.2,1.5-4.1,3.2-5.5c1.8-1.5,4.8-2.8,10.7-2.8c4.7,0,8.3,0.9,10,1.8l-0.5,2.3c-2-1.2-5.6-2.1-9.9-2.1
			c-4.7,0-7.2,0.9-8.6,2.1c-1.1,1-2,2.3-2.4,4.2c-0.4,1.9-0.1,3.2,0.6,4.2c0.9,1.2,2.9,2.1,8,2.1c4.1,0,6.8-0.7,8.2-1.8
			c1.1-0.9,1.5-2,1.7-3h-10.7l0.4-2H225z"/>
		<path class="st1" d="M229.6,83.5l3.4-15.8h2.4L232,83.5H229.6z"/>
		<path class="st1" d="M259.5,81.4l2.9-13.6h2.4l-3.4,15.8h-3.4l-13.6-13.8l-2.9,13.8h-2.4l3.4-15.8h3.5L259.5,81.4z"/>
		<path class="st1" d="M290.3,74.6l-0.4,2h-17.5l-1.1,5h17.8l-0.4,2h-20.2l3.4-15.8h20.2l-0.4,2h-17.8l-1,4.8H290.3z"/>
		<path class="st1" d="M316.8,74.6l-0.4,2h-17.5l-1.1,5h17.8l-0.4,2H295l3.4-15.8h20.2l-0.4,2h-17.8l-1,4.8H316.8z"/>
		<path class="st1" d="M337.7,67.8c4.5,0,5.9,0.6,6.7,1.7c0.7,0.9,0.8,2,0.5,3.4c-0.3,1.3-0.9,2.5-2,3.4c-1.1,0.9-2.7,1.7-6.4,1.8
			l8,5.5l0,0.1h-3.7l-8-5.6H325l-1.2,5.6h-2.4l3.4-15.8H337.7z M325.4,76H336c3.1,0,4.5-0.4,5.3-1.1c0.6-0.5,1-1.1,1.1-2
			c0.2-0.9,0.1-1.6-0.3-2.1c-0.5-0.7-1.6-1-4.8-1h-10.5L325.4,76z"/>
		<path class="st1" d="M371.3,74.6l-0.4,2h-17.5l-1.1,5h17.8l-0.4,2h-20.2l3.4-15.8h20.2l-0.4,2h-17.8l-1,4.8H371.3z"/>
		<path class="st1" d="M396.8,81c-1.6,1.3-4.4,2.5-9.9,2.5h-11l3.4-15.8h11c5.5,0,7.8,1.2,8.8,2.5c1.1,1.4,1.4,3.2,0.9,5.4
			S398.5,79.6,396.8,81z M387.3,81.5c4.3,0,6.7-0.8,7.9-1.8c1.1-0.9,1.9-2.2,2.3-4c0.4-1.8,0.1-3.1-0.6-4c-0.8-1-2.9-1.8-7.1-1.8
			h-8.5l-2.5,11.7H387.3z"/>
		<path class="st1" d="M435.1,74.9l-0.4,2h-17l-1.4,6.7h-2.4l3.4-15.8h19.7l-0.4,2h-17.3l-1.1,5.1H435.1z"/>
		<path class="st1" d="M463.9,70.1c1.1,1.4,1.3,3.2,0.8,5.5c-0.5,2.3-1.5,4.1-3.2,5.5c-1.8,1.5-5,2.8-10.9,2.8
			c-5.8,0-8.5-1.3-9.7-2.8c-1.1-1.4-1.4-3.2-0.9-5.5c0.5-2.3,1.5-4.1,3.2-5.5c1.8-1.5,5-2.8,10.9-2.8
			C460,67.3,462.7,68.6,463.9,70.1z M444.9,71.4c-1.2,1-2,2.3-2.4,4.2c-0.4,2-0.1,3.2,0.7,4.2C444,81,446.3,82,451,82
			c4.7,0,7.4-1,8.8-2.2c1.2-1,2-2.2,2.4-4.2c0.4-2,0.1-3.2-0.7-4.2c-0.9-1.2-3.2-2.2-7.9-2.2C449,69.3,446.4,70.2,444.9,71.4z"/>
		<path class="st1" d="M485.4,67.8c4.5,0,5.9,0.6,6.7,1.7c0.7,0.9,0.8,2,0.5,3.4c-0.3,1.3-0.9,2.5-2,3.4c-1.1,0.9-2.7,1.7-6.4,1.8
			l8,5.5l0,0.1h-3.7l-8-5.6h-7.8l-1.2,5.6h-2.4l3.4-15.8H485.4z M473.1,76h10.5c3.1,0,4.5-0.4,5.3-1.1c0.6-0.5,1-1.1,1.2-2
			c0.2-0.9,0.1-1.6-0.3-2.1c-0.5-0.7-1.6-1-4.8-1h-10.5L473.1,76z"/>
		<path class="st1" d="M530.9,69.8h-10.5l-2.9,13.7H515l2.9-13.7h-10.5l0.4-2h23.5L530.9,69.8z"/>
		<path class="st1" d="M554.8,74.5l1.4-6.8h2.4l-3.4,15.8h-2.4l1.5-7h-17.3l-1.5,7h-2.4l3.4-15.8h2.4l-1.4,6.8H554.8z"/>
		<path class="st1" d="M584.2,74.6l-0.4,2h-17.5l-1.1,5h17.8l-0.4,2h-20.2l3.4-15.8H586l-0.4,2h-17.8l-1,4.8H584.2z"/>
		<path class="st1" d="M622.8,69.8h-10.5l-2.9,13.7h-2.4l2.9-13.7h-10.5l0.4-2h23.5L622.8,69.8z"/>
		<path class="st1" d="M641.3,67.8c4.5,0,5.9,0.6,6.7,1.7c0.7,0.9,0.8,2,0.5,3.4c-0.3,1.3-0.9,2.5-2,3.4c-1.1,0.9-2.7,1.7-6.4,1.8
			l8,5.5l0,0.1h-3.7l-8-5.6h-7.8l-1.2,5.6H625l3.4-15.8H641.3z M629,76h10.5c3.1,0,4.5-0.4,5.3-1.1c0.6-0.5,1-1.1,1.2-2
			c0.2-0.9,0.1-1.6-0.3-2.1c-0.5-0.7-1.6-1-4.8-1h-10.5L629,76z"/>
		<path class="st1" d="M669.8,67.7l8,15.9H675l-2-4h-14.9l-3.6,4h-2.7l14.7-15.9H669.8z M660,77.6h12l-4.2-8.5L660,77.6z"/>
		<path class="st1" d="M683.2,81.1c-1.1-1.4-1.3-3.3-0.9-5.4c0.5-2.2,1.5-4.1,3.2-5.5c1.8-1.5,5-2.8,10.6-2.8c4.4,0,7.7,1,9.4,2
			l-0.5,2.3c-2-1.3-5.4-2.3-9.3-2.3c-3.6,0-6.8,0.6-8.6,2.1c-1.2,1-2,2.3-2.3,4.1c-0.4,1.8-0.2,3.1,0.6,4.1c1.2,1.5,4.1,2.1,7.7,2.1
			c3.9,0,7.8-1,10.3-2.2l-0.5,2.2c-2.1,1-5.8,2-10.2,2C687,83.9,684.3,82.6,683.2,81.1z"/>
		<path class="st1" d="M714.6,67.8l-1.4,6.8h4.2l12.3-6.8h3.7l0,0l-14.2,7.7l11.1,7.9l0,0h-3.9l-9.6-7h-4l-1.5,7h-2.4l3.4-15.8
			H714.6z"/>
	</g>
</g>
</svg>
