<?xml version="1.0" encoding="utf-8"?>
<!-- Generator: Adobe Illustrator 22.0.1, SVG Export Plug-In . SVG Version: 6.00 Build 0)  -->
<svg version="1.1" id="Layer_1" xmlns="http://www.w3.org/2000/svg" xmlns:xlink="http://www.w3.org/1999/xlink" x="0px" y="0px"
	 viewBox="0 0 649.3 87.6" style="enable-background:new 0 0 649.3 87.6;" xml:space="preserve">
<style type="text/css">
	.st0{fill:#7C7B7B;}
	.st1{fill:#1D1D1B;}
</style>
<g>
	<path class="st0" d="M10.3,28c-1,6.2,0.1,11.5,2.9,14.7c6,7.1,20.7,10.1,51.5,11c28.9,0.8,32,2.2,33.6,4.1c0.8,1,1,2.1,0.8,3.6
		c-0.2,1.3-0.7,2.7-2.1,3.9c-4.1,3.5-16.9,4.1-35.2,4.1c-20.9,0-47.1-5.2-58.6-10.7L0,78.4c12,5.4,34.7,9.2,58.9,9.2
		c32.7,0,47.2-4.9,54.5-11.2c5.4-4.7,7.8-11,8.8-17.5c1-6-0.1-11.7-3-15.2c-5.7-6.8-19.2-9.5-51.5-10.3c-21.9-0.5-31.3-1.2-33.4-3.7
		c-0.8-1-1.1-2.2-0.8-3.9c0.2-1.6,1-2.8,2.2-3.7c3.1-2.7,12.1-3.9,32.5-3.9c18.5,0,40.1,4,52.1,9.4l3.1-19.8
		C112.7,3.4,91.9,0,70.7,0c-28.5,0-43,3.5-51.1,10.5C13.4,15.8,11.3,21.6,10.3,28"/>
	<g>
		<path class="st1" d="M207.2,28.2c-3.7,3.2-8.9,4.9-21.4,4.9H161l-2.4,13.7H146l7.8-44.3h37c13.4,0,17.6,1.6,20.2,4.8
			c2.3,2.8,2.4,6.6,1.7,10.4C212.1,21.4,210.8,25.2,207.2,28.2z M188.9,12.8h-24.2l-2,11.1h24.2c5.8,0,9.3-0.4,11.3-2.1
			c1-0.8,1.6-2.1,1.9-3.6c0.3-1.7,0.1-2.8-0.7-3.7C198.2,13,195.3,12.8,188.9,12.8z"/>
		<path class="st1" d="M244.5,2.3h16.2l24,44.6h-14.6l-4.5-8.6h-39.4l-7.5,8.6h-13.9L244.5,2.3z M234.3,29.1h26.5l-9.9-18.9
			L234.3,29.1z"/>
		<path class="st1" d="M328.6,1C341.9,1,351,3,356,5.4l-2,11.1c-5.9-3.2-15.6-5.7-27.3-5.7c-9.7,0-15.9,2-18.9,4.6
			c-2.5,2.2-4.3,4.7-5.1,9.3c-0.8,4.6,0.1,7.2,1.8,9.3c2.1,2.6,7.6,4.6,17.3,4.6c11.6,0,22.2-2.3,29.2-5.3l-1.9,10.6
			c-5.9,2.5-15.7,4.5-28.9,4.5c-15.8,0-23.8-3.7-27.3-7.8c-3.2-3.9-4.2-9.2-3-16c1.2-6.7,4.1-12.1,8.6-15.9
			C303.5,4.6,312.8,1,328.6,1z"/>
		<path class="st1" d="M385.9,19.4l28.7-16.8h18.2l0,0.2l-37.1,21.7l29.8,22.2l0,0.2h-19.1l-23.2-17.3h-7.4l-3,17.3h-12.6L368,2.6
			h12.6l-3,16.8H385.9z"/>
	</g>
	<g>
		<path class="st1" d="M162.8,81.9c-1.6,1.3-4.4,2.5-9.9,2.5h-11l3.4-15.8h11c5.5,0,7.8,1.2,8.8,2.5c1.1,1.4,1.4,3.2,0.9,5.4
			C165.5,78.7,164.5,80.5,162.8,81.9z M153.3,82.4c4.3,0,6.7-0.8,7.9-1.8c1.1-0.9,1.9-2.2,2.3-4c0.4-1.8,0.1-3.1-0.6-4
			c-0.8-1-2.9-1.8-7.1-1.8h-8.5l-2.5,11.7H153.3z"/>
		<path class="st1" d="M192.1,75.5l-0.4,2h-17.5l-1.1,5h17.8l-0.4,2h-20.2l3.4-15.8h20.2l-0.4,2h-17.8l-1,4.8H192.1z"/>
		<path class="st1" d="M214.7,81.6c0.5-0.4,0.8-0.9,0.9-1.5c0.1-0.5,0.1-1-0.2-1.4c-0.4-0.6-1.5-0.9-7.5-1.2
			c-6.2-0.3-8.1-0.9-8.9-1.9c-0.5-0.6-0.6-1.5-0.3-2.5c0.2-1.1,0.7-2.1,1.6-2.9c1.3-1.1,3.7-1.8,9.1-1.8c4.3,0,7.6,0.7,9.5,1.4
			l-0.5,2.1c-2.2-0.9-5.9-1.7-9.5-1.7c-4.6,0-6.3,0.5-7.1,1.2c-0.4,0.4-0.7,0.9-0.8,1.4s-0.1,1,0.2,1.3c0.5,0.6,1.8,0.9,7.3,1.2
			c6.7,0.3,8.3,0.9,9.1,1.9c0.5,0.6,0.6,1.6,0.4,2.6c-0.2,1.1-0.7,2.1-1.7,2.9c-1.2,1-3.5,2-9.6,2c-4.5,0-8.5-0.7-10.7-1.8l0.4-2.1
			c2.2,1.1,6.7,2,10.7,2C212.3,82.9,213.9,82.3,214.7,81.6z"/>
		<path class="st1" d="M223.3,84.5l3.4-15.8h2.4l-3.4,15.8H223.3z"/>
		<path class="st1" d="M257.3,76.1l-0.3,1.4c-0.4,2-1.2,3.6-2.7,4.8c-1.9,1.6-5,2.5-10.3,2.5c-6.2,0-8.6-1.3-9.7-2.8
			c-1-1.3-1.3-3.2-0.9-5.5c0.5-2.2,1.5-4.1,3.2-5.4c1.8-1.5,4.8-2.8,10.7-2.8c4.7,0,8.3,0.9,10,1.8l-0.5,2.3c-2-1.2-5.6-2.1-9.9-2.1
			c-4.7,0-7.2,0.9-8.6,2.1c-1.1,1-2,2.3-2.4,4.2c-0.4,1.9-0.1,3.2,0.6,4.2c0.9,1.1,2.9,2.1,8,2.1c4.1,0,6.8-0.7,8.2-1.8
			c1.1-0.9,1.5-2,1.7-3h-10.7l0.4-2H257.3z"/>
		<path class="st1" d="M282.1,82.4l2.9-13.7h2.4l-3.4,15.8h-3.4L267,70.7l-2.9,13.8h-2.4l3.4-15.8h3.5L282.1,82.4z"/>
		<path class="st1" d="M312.9,75.5l-0.4,2H295l-1.1,5h17.8l-0.4,2h-20.2l3.4-15.8h20.2l-0.4,2h-17.8l-1,4.8H312.9z"/>
		<path class="st1" d="M338.4,81.9c-1.6,1.3-4.4,2.5-9.9,2.5h-11l3.4-15.8h11c5.5,0,7.8,1.2,8.8,2.5c1.1,1.4,1.4,3.2,0.9,5.4
			C341.1,78.7,340.1,80.5,338.4,81.9z M328.9,82.4c4.3,0,6.7-0.8,7.9-1.8c1.1-0.9,1.9-2.2,2.3-4c0.4-1.8,0.1-3.1-0.6-4
			c-0.8-1-2.9-1.8-7.1-1.8h-8.5l-2.5,11.7H328.9z"/>
		<path class="st1" d="M376.7,75.8l-0.4,2h-17l-1.4,6.7h-2.4l3.4-15.8h19.7l-0.4,2h-17.3l-1.1,5.1H376.7z"/>
		<path class="st1" d="M405.5,71.1c1.1,1.4,1.3,3.2,0.8,5.5c-0.5,2.3-1.5,4.1-3.2,5.5c-1.8,1.5-5,2.8-10.9,2.8
			c-5.8,0-8.5-1.3-9.7-2.8c-1.1-1.4-1.4-3.2-0.9-5.5c0.5-2.3,1.5-4.1,3.2-5.5c1.8-1.5,5-2.8,10.9-2.8
			C401.6,68.3,404.3,69.5,405.5,71.1z M386.5,72.4c-1.2,1-2,2.3-2.4,4.2c-0.4,2-0.1,3.2,0.7,4.2c0.9,1.1,3.2,2.2,7.9,2.2
			c4.7,0,7.4-1,8.8-2.2c1.2-1,2-2.2,2.4-4.2c0.4-2,0.1-3.2-0.7-4.2c-0.9-1.2-3.2-2.2-7.9-2.2C390.7,70.2,388,71.2,386.5,72.4z"/>
		<path class="st1" d="M427,68.7c4.5,0,5.9,0.6,6.7,1.7c0.7,0.9,0.8,2,0.5,3.4c-0.3,1.3-0.9,2.5-1.9,3.4c-1.2,0.9-2.7,1.7-6.4,1.8
			l8,5.5l0,0.1h-3.7l-8-5.6h-7.8l-1.2,5.6h-2.4l3.4-15.8H427z M414.7,76.9h10.5c3.1,0,4.5-0.4,5.3-1.1c0.6-0.5,1-1.1,1.2-2
			c0.2-0.9,0.1-1.6-0.3-2.1c-0.5-0.7-1.6-1-4.8-1H416L414.7,76.9z"/>
		<path class="st1" d="M472.5,70.7H462l-2.9,13.7h-2.5l2.9-13.7h-10.5l0.4-2H473L472.5,70.7z"/>
		<path class="st1" d="M496.5,75.5l1.4-6.8h2.4L497,84.5h-2.4l1.5-7h-17.3l-1.5,7h-2.4l3.4-15.8h2.4l-1.4,6.8H496.5z"/>
		<path class="st1" d="M525.9,75.5l-0.4,2H508l-1.1,5h17.8l-0.4,2h-20.2l3.4-15.8h20.2l-0.4,2h-17.8l-1,4.8H525.9z"/>
		<path class="st1" d="M556.3,68.7c4.5,0,5.9,0.6,6.7,1.7c0.7,0.9,0.8,2,0.5,3.4c-0.3,1.3-0.9,2.5-2,3.4c-1.1,0.9-2.7,1.7-6.4,1.8
			l8,5.5l0,0.1h-3.7l-8-5.6h-7.8l-1.2,5.6H540l3.4-15.8H556.3z M544,76.9h10.5c3.1,0,4.5-0.4,5.3-1.1c0.6-0.5,1-1.1,1.2-2
			c0.2-0.9,0.1-1.6-0.3-2.1c-0.5-0.7-1.6-1-4.8-1h-10.5L544,76.9z"/>
		<path class="st1" d="M592.1,71.1c1.1,1.4,1.3,3.2,0.8,5.5c-0.5,2.3-1.5,4.1-3.2,5.5c-1.8,1.5-5,2.8-10.9,2.8
			c-5.8,0-8.5-1.3-9.7-2.8c-1.1-1.4-1.4-3.2-0.9-5.5c0.5-2.3,1.5-4.1,3.2-5.5c1.8-1.5,5-2.8,10.9-2.8
			C588.2,68.3,590.9,69.5,592.1,71.1z M573.1,72.4c-1.2,1-2,2.3-2.4,4.2c-0.4,2-0.1,3.2,0.7,4.2c0.9,1.1,3.2,2.2,7.9,2.2
			c4.7,0,7.4-1,8.8-2.2c1.2-1,2-2.2,2.4-4.2c0.4-2,0.1-3.2-0.7-4.2c-0.9-1.2-3.2-2.2-7.9-2.2C577.2,70.2,574.5,71.2,573.1,72.4z"/>
		<path class="st1" d="M612.1,68.6l8,15.9h-2.8l-2-4h-14.9l-3.6,4h-2.7l14.7-15.9H612.1z M602.3,78.5h12l-4.2-8.5L602.3,78.5z"/>
		<path class="st1" d="M645.9,81.9c-1.6,1.3-4.4,2.5-9.9,2.5h-11l3.4-15.8h11c5.5,0,7.8,1.2,8.8,2.5c1.1,1.4,1.4,3.2,0.9,5.4
			C648.6,78.7,647.6,80.5,645.9,81.9z M636.4,82.4c4.3,0,6.7-0.8,7.9-1.8c1.1-0.9,1.9-2.2,2.3-4c0.4-1.8,0.1-3.1-0.6-4
			c-0.8-1-2.9-1.8-7.1-1.8h-8.5l-2.5,11.7H636.4z"/>
	</g>
</g>
</svg>
