<?xml version="1.0" encoding="utf-8"?>
<!-- Generator: Adobe Illustrator 22.1.0, SVG Export Plug-In . SVG Version: 6.00 Build 0)  -->
<svg version="1.1" id="Layer_1" xmlns="http://www.w3.org/2000/svg" xmlns:xlink="http://www.w3.org/1999/xlink" x="0px" y="0px"
	 viewBox="0 0 580 475" style="enable-background:new 0 0 580 475;" xml:space="preserve">
<style type="text/css">
	.st0{display:none;}
	.st1{display:inline;fill:#404041;}
	.st2{fill:none;stroke:#FFFFFF;stroke-width:0.5;stroke-miterlimit:10;}
	.st3{fill:#FFFFFF;}
	.st4{enable-background:new    ;}
	.st5{fill:none;stroke:#BCBCBC;stroke-miterlimit:10;}
	.st6{fill:none;stroke:#8E8E8E;stroke-miterlimit:10;}
</style>
<g id="Layer_1_1_" class="st0">
</g>
<g id="Background" class="st0">
	<rect class="st1" width="580" height="475"/>
</g>
<g id="Dims">
</g>
<g id="Cars">
	<g>
		<g>
			<line class="st2" x1="451.9" y1="11" x2="451.9" y2="205"/>
			<g>
				<rect x="449.4" y="10.6" class="st3" width="4.9" height="0.8"/>
			</g>
			<g>
				<rect x="449.4" y="204.6" class="st3" width="4.9" height="0.8"/>
			</g>
		</g>
	</g>
	<g class="st4">
		<path class="st3" d="M471.6,104.3h-0.5l-1.9-6.6c-0.2-0.5-0.3-1-0.4-1.3c-0.1,0.3-0.2,0.7-0.3,1.2s-0.7,2.7-1.9,6.8h-0.5l-2.4-8.6
			h0.6l1.5,5.5c0.1,0.2,0.1,0.4,0.2,0.6s0.1,0.4,0.1,0.5s0.1,0.3,0.1,0.5s0.1,0.3,0.1,0.5c0.1-0.5,0.3-1.3,0.6-2.4l1.5-5.2h0.7
			l1.7,6c0.2,0.7,0.3,1.2,0.4,1.7c0.1-0.3,0.1-0.6,0.2-0.9s0.7-2.6,1.8-6.7h0.6L471.6,104.3z"/>
		<path class="st3" d="M475.2,96.2c0-0.4,0.1-0.6,0.4-0.6c0.1,0,0.2,0,0.3,0.1s0.1,0.2,0.1,0.4c0,0.2,0,0.3-0.1,0.4
			s-0.2,0.2-0.3,0.2C475.3,96.8,475.2,96.6,475.2,96.2z M475.9,104.3h-0.6V98h0.6V104.3z"/>
		<path class="st3" d="M480.4,97.8c0.5,0,0.9,0.1,1.2,0.3s0.6,0.5,0.9,0.9h0c0-0.5,0-1,0-1.4v-2.3h0.6v9.1h-0.4l-0.1-1h0
			c-0.5,0.7-1.2,1.1-2.1,1.1c-0.9,0-1.6-0.3-2-0.8s-0.7-1.3-0.7-2.4c0-1.1,0.2-1.9,0.7-2.5S479.5,97.8,480.4,97.8z M480.4,98.4
			c-0.7,0-1.2,0.2-1.6,0.7s-0.5,1.2-0.5,2.1c0,1.8,0.7,2.7,2.1,2.7c0.7,0,1.2-0.2,1.6-0.6s0.5-1.1,0.5-2.1v-0.1c0-1-0.2-1.7-0.5-2.1
			S481.1,98.4,480.4,98.4z"/>
		<path class="st3" d="M486.8,103.9c0.4,0,0.7,0,1-0.1v0.5c-0.3,0.1-0.6,0.1-1,0.1c-0.6,0-1-0.2-1.2-0.5s-0.4-0.8-0.4-1.4v-4.1h-0.9
			v-0.3l0.9-0.3l0.3-1.4h0.3V98h1.9v0.5h-1.9v4c0,0.5,0.1,0.8,0.3,1.1S486.5,103.9,486.8,103.9z"/>
		<path class="st3" d="M493.6,104.3v-4.1c0-0.6-0.1-1.1-0.4-1.4s-0.7-0.4-1.3-0.4c-0.8,0-1.3,0.2-1.7,0.6s-0.5,1-0.5,1.9v3.5h-0.6
			v-9.1h0.6v2.9l0,0.8h0c0.2-0.4,0.5-0.7,0.9-0.8s0.8-0.3,1.4-0.3c1.4,0,2.2,0.8,2.2,2.3v4.2H493.6z"/>
	</g>
	<g class="st4">
		<path class="st3" d="M467.5,118.7H467v-6.2c0-0.6,0-1.2,0.1-1.8c-0.1,0.1-0.1,0.1-0.2,0.2s-0.7,0.5-1.8,1.4l-0.3-0.4l2.3-1.7h0.5
			V118.7z"/>
		<path class="st3" d="M473.5,113.6c0.9,0,1.6,0.2,2.2,0.7s0.8,1,0.8,1.8c0,0.9-0.3,1.6-0.8,2.1s-1.3,0.7-2.3,0.7
			c-0.4,0-0.8,0-1.2-0.1s-0.7-0.2-1-0.4v-0.6c0.4,0.2,0.8,0.4,1.1,0.4s0.7,0.1,1,0.1c0.8,0,1.4-0.2,1.8-0.6s0.7-0.9,0.7-1.6
			c0-0.6-0.2-1.1-0.7-1.5s-1-0.5-1.8-0.5c-0.5,0-1,0.1-1.6,0.2l-0.4-0.2l0.3-3.9h4.1v0.6h-3.6l-0.3,3
			C472.7,113.6,473.2,113.6,473.5,113.6z"/>
		<path class="st3" d="M479.2,118.7l3.5-8h-4.8v-0.6h5.5v0.4l-3.5,8.1H479.2z"/>
		<path class="st3" d="M487.2,113.6c0.9,0,1.6,0.2,2.2,0.7s0.8,1,0.8,1.8c0,0.9-0.3,1.6-0.8,2.1s-1.3,0.7-2.3,0.7
			c-0.4,0-0.8,0-1.2-0.1s-0.7-0.2-1-0.4v-0.6c0.4,0.2,0.8,0.4,1.1,0.4s0.7,0.1,1,0.1c0.8,0,1.4-0.2,1.8-0.6s0.7-0.9,0.7-1.6
			c0-0.6-0.2-1.1-0.7-1.5s-1-0.5-1.8-0.5c-0.5,0-1,0.1-1.6,0.2l-0.4-0.2l0.3-3.9h4.1v0.6h-3.6l-0.3,3
			C486.4,113.6,486.9,113.6,487.2,113.6z"/>
		<path class="st3" d="M500,118.7v-4.2c0-0.6-0.1-1.1-0.4-1.4s-0.6-0.4-1.1-0.4c-0.7,0-1.1,0.2-1.4,0.5s-0.5,0.9-0.5,1.7v3.7H496
			v-4.4c0-1.1-0.5-1.6-1.5-1.6c-0.7,0-1.2,0.2-1.5,0.6s-0.5,1-0.5,1.9v3.5H492v-6.4h0.5l0.1,0.9h0c0.2-0.3,0.4-0.6,0.8-0.7
			s0.7-0.3,1.1-0.3c1,0,1.6,0.4,1.9,1.1h0c0.2-0.4,0.5-0.6,0.8-0.8s0.7-0.3,1.2-0.3c0.7,0,1.2,0.2,1.6,0.6s0.5,1,0.5,1.8v4.2H500z"
			/>
		<path class="st3" d="M510.5,118.7v-4.2c0-0.6-0.1-1.1-0.4-1.4s-0.6-0.4-1.1-0.4c-0.7,0-1.1,0.2-1.4,0.5s-0.5,0.9-0.5,1.7v3.7h-0.6
			v-4.4c0-1.1-0.5-1.6-1.5-1.6c-0.7,0-1.2,0.2-1.5,0.6s-0.5,1-0.5,1.9v3.5h-0.6v-6.4h0.5l0.1,0.9h0c0.2-0.3,0.4-0.6,0.8-0.7
			s0.7-0.3,1.1-0.3c1,0,1.6,0.4,1.9,1.1h0c0.2-0.4,0.5-0.6,0.8-0.8s0.7-0.3,1.2-0.3c0.7,0,1.2,0.2,1.6,0.6s0.5,1,0.5,1.8v4.2H510.5z
			"/>
	</g>
	<g class="st4">
		<path class="st3" d="M260.8,385.3h-0.6v-4.2h-5v4.2h-0.6v-8.6h0.6v3.8h5v-3.8h0.6V385.3z"/>
		<path class="st3" d="M265.6,385.4c-0.9,0-1.6-0.3-2.2-0.9s-0.8-1.4-0.8-2.4c0-1,0.2-1.8,0.8-2.4s1.2-0.9,2-0.9
			c0.8,0,1.3,0.3,1.8,0.8s0.7,1.2,0.7,2.1v0.5h-4.6c0,0.9,0.2,1.5,0.6,2s1,0.7,1.7,0.7c0.4,0,0.7,0,1-0.1s0.6-0.2,1-0.3v0.5
			c-0.4,0.2-0.7,0.3-1,0.3S266,385.4,265.6,385.4z M265.4,379.3c-0.6,0-1.1,0.2-1.5,0.6s-0.6,1-0.7,1.7h3.9c0-0.7-0.2-1.3-0.5-1.7
			S266,379.3,265.4,379.3z"/>
		<path class="st3" d="M269.5,377.2c0-0.4,0.1-0.6,0.4-0.6c0.1,0,0.2,0,0.3,0.1s0.1,0.2,0.1,0.4c0,0.2,0,0.3-0.1,0.4
			s-0.2,0.2-0.3,0.2C269.7,377.7,269.5,377.5,269.5,377.2z M270.2,385.3h-0.6v-6.4h0.6V385.3z"/>
		<path class="st3" d="M277.3,378.9v0.4l-1.3,0.1c0.4,0.4,0.5,0.9,0.5,1.4c0,0.6-0.2,1.1-0.6,1.5s-1,0.6-1.6,0.6c-0.3,0-0.5,0-0.6,0
			c-0.2,0.1-0.4,0.3-0.5,0.4s-0.2,0.3-0.2,0.5c0,0.2,0.1,0.4,0.2,0.4s0.4,0.1,0.8,0.1h1.1c0.7,0,1.2,0.1,1.6,0.4s0.6,0.7,0.6,1.2
			c0,0.7-0.3,1.2-0.8,1.6s-1.3,0.5-2.3,0.5c-0.8,0-1.4-0.2-1.9-0.5s-0.7-0.7-0.7-1.3c0-0.4,0.1-0.8,0.4-1.1s0.6-0.5,1.1-0.6
			c-0.2-0.1-0.3-0.2-0.5-0.3s-0.2-0.3-0.2-0.5c0-0.4,0.3-0.8,0.8-1.1c-0.4-0.2-0.7-0.4-0.9-0.7s-0.3-0.7-0.3-1.1
			c0-0.6,0.2-1.1,0.6-1.5s1-0.6,1.6-0.6c0.4,0,0.7,0,1,0.1H277.3z M272.2,386.4c0,0.9,0.7,1.3,2,1.3c1.7,0,2.5-0.5,2.5-1.6
			c0-0.4-0.1-0.7-0.4-0.8s-0.7-0.3-1.3-0.3h-1C272.7,385,272.2,385.5,272.2,386.4z M272.6,380.9c0,0.5,0.1,0.9,0.4,1.1
			s0.7,0.4,1.2,0.4c0.5,0,0.9-0.1,1.2-0.4s0.4-0.7,0.4-1.2c0-0.5-0.1-1-0.4-1.2s-0.7-0.4-1.2-0.4c-0.5,0-0.9,0.1-1.2,0.4
			S272.6,380.4,272.6,380.9z"/>
		<path class="st3" d="M283.1,385.3v-4.1c0-0.6-0.1-1.1-0.4-1.4s-0.7-0.4-1.3-0.4c-0.8,0-1.3,0.2-1.7,0.6s-0.5,1-0.5,1.9v3.5h-0.6
			v-9.1h0.6v2.9l0,0.8h0c0.2-0.4,0.5-0.7,0.9-0.8s0.8-0.3,1.4-0.3c1.4,0,2.2,0.8,2.2,2.3v4.2H283.1z"/>
		<path class="st3" d="M287.4,384.9c0.4,0,0.7,0,1-0.1v0.5c-0.3,0.1-0.6,0.1-1,0.1c-0.6,0-1-0.2-1.2-0.5s-0.4-0.8-0.4-1.4v-4.1h-0.9
			v-0.3l0.9-0.3l0.3-1.4h0.3v1.5h1.9v0.5h-1.9v4c0,0.5,0.1,0.8,0.3,1.1S287,384.9,287.4,384.9z"/>
	</g>
	<g class="st4">
		<path class="st3" d="M257.3,399.7h-0.6v-6.2c0-0.6,0-1.2,0.1-1.8c-0.1,0.1-0.1,0.1-0.2,0.2s-0.7,0.5-1.8,1.4l-0.3-0.4l2.3-1.7h0.5
			V399.7z"/>
		<path class="st3" d="M266.4,395.4c0,1.5-0.2,2.6-0.7,3.3s-1.2,1.1-2.1,1.1c-0.9,0-1.6-0.4-2-1.1s-0.7-1.8-0.7-3.3
			c0-1.5,0.2-2.6,0.7-3.3s1.1-1.1,2.1-1.1c0.9,0,1.6,0.4,2.1,1.1S266.4,394,266.4,395.4z M261.5,395.4c0,1.3,0.2,2.3,0.5,2.9
			s0.9,1,1.6,1c0.7,0,1.3-0.3,1.6-1s0.5-1.6,0.5-2.9c0-1.3-0.2-2.2-0.5-2.9s-0.9-1-1.6-1s-1.3,0.3-1.6,1S261.5,394.1,261.5,395.4z"
			/>
		<path class="st3" d="M273.1,394.8c0,1.1-0.1,2.1-0.4,2.8s-0.7,1.3-1.3,1.7s-1.2,0.5-2,0.5c-0.4,0-0.8-0.1-1.1-0.2v-0.5
			c0.2,0.1,0.4,0.1,0.6,0.1s0.4,0,0.5,0c1,0,1.7-0.3,2.3-1s0.9-1.7,0.9-3h-0.1c-0.3,0.4-0.6,0.7-1,0.9s-0.8,0.3-1.2,0.3
			c-0.8,0-1.4-0.2-1.9-0.7s-0.7-1.1-0.7-1.9c0-0.9,0.2-1.6,0.7-2.1s1.1-0.8,1.9-0.8c0.6,0,1.1,0.1,1.5,0.4s0.7,0.7,1,1.3
			S273.1,394,273.1,394.8z M270.3,391.5c-0.6,0-1.1,0.2-1.5,0.6s-0.6,1-0.6,1.7c0,0.7,0.2,1.2,0.5,1.5s0.8,0.5,1.5,0.5
			c0.4,0,0.8-0.1,1.1-0.3s0.6-0.4,0.8-0.7s0.3-0.6,0.3-0.9c0-0.5-0.1-0.9-0.3-1.3s-0.4-0.7-0.8-0.9S270.7,391.5,270.3,391.5z"/>
		<path class="st3" d="M280.1,395.4c0,1.5-0.2,2.6-0.7,3.3s-1.2,1.1-2.1,1.1c-0.9,0-1.6-0.4-2-1.1s-0.7-1.8-0.7-3.3
			c0-1.5,0.2-2.6,0.7-3.3s1.1-1.1,2.1-1.1c0.9,0,1.6,0.4,2.1,1.1S280.1,394,280.1,395.4z M275.2,395.4c0,1.3,0.2,2.3,0.5,2.9
			s0.9,1,1.6,1c0.7,0,1.3-0.3,1.6-1s0.5-1.6,0.5-2.9c0-1.3-0.2-2.2-0.5-2.9s-0.9-1-1.6-1s-1.3,0.3-1.6,1S275.2,394.1,275.2,395.4z"
			/>
		<path class="st3" d="M289.8,399.7v-4.2c0-0.6-0.1-1.1-0.4-1.4s-0.6-0.4-1.1-0.4c-0.7,0-1.1,0.2-1.4,0.5s-0.5,0.9-0.5,1.7v3.7h-0.6
			v-4.4c0-1.1-0.5-1.6-1.5-1.6c-0.7,0-1.2,0.2-1.5,0.6s-0.5,1-0.5,1.9v3.5h-0.6v-6.4h0.5l0.1,0.9h0c0.2-0.3,0.4-0.6,0.8-0.7
			s0.7-0.3,1.1-0.3c1,0,1.6,0.4,1.9,1.1h0c0.2-0.4,0.5-0.6,0.8-0.8s0.7-0.3,1.2-0.3c0.7,0,1.2,0.2,1.6,0.6s0.5,1,0.5,1.8v4.2H289.8z
			"/>
		<path class="st3" d="M300.4,399.7v-4.2c0-0.6-0.1-1.1-0.4-1.4s-0.6-0.4-1.1-0.4c-0.7,0-1.1,0.2-1.4,0.5s-0.5,0.9-0.5,1.7v3.7h-0.6
			v-4.4c0-1.1-0.5-1.6-1.5-1.6c-0.7,0-1.2,0.2-1.5,0.6s-0.5,1-0.5,1.9v3.5h-0.6v-6.4h0.5l0.1,0.9h0c0.2-0.3,0.4-0.6,0.8-0.7
			s0.7-0.3,1.1-0.3c1,0,1.6,0.4,1.9,1.1h0c0.2-0.4,0.5-0.6,0.8-0.8s0.7-0.3,1.2-0.3c0.7,0,1.2,0.2,1.6,0.6s0.5,1,0.5,1.8v4.2H300.4z
			"/>
	</g>
	<g>
		<g>
			<line class="st2" x1="241.2" y1="321.1" x2="241.2" y2="456.8"/>
			<g>
				<rect x="238.7" y="320.8" class="st3" width="4.9" height="0.8"/>
			</g>
			<g>
				<rect x="238.7" y="456.5" class="st3" width="4.9" height="0.8"/>
			</g>
		</g>
	</g>
	<g>
		<g>
			<line class="st2" x1="427.7" y1="231.5" x2="3.1" y2="231.5"/>
			<g>
				<rect x="427.3" y="229.1" class="st3" width="0.8" height="4.9"/>
			</g>
			<g>
				<rect x="2.7" y="229.1" class="st3" width="0.8" height="4.9"/>
			</g>
		</g>
	</g>
	<g class="st4">
		<path class="st3" d="M176.1,254.9v-8.6h0.6v8h4.1v0.6H176.1z"/>
		<path class="st3" d="M184.7,255c-0.9,0-1.6-0.3-2.2-0.9s-0.8-1.4-0.8-2.4c0-1,0.2-1.8,0.8-2.4s1.2-0.9,2-0.9
			c0.8,0,1.3,0.3,1.8,0.8s0.7,1.2,0.7,2.1v0.5h-4.6c0,0.9,0.2,1.5,0.6,2s1,0.7,1.7,0.7c0.4,0,0.7,0,1-0.1s0.6-0.2,1-0.3v0.5
			c-0.4,0.2-0.7,0.3-1,0.3S185.1,255,184.7,255z M184.5,248.9c-0.6,0-1.1,0.2-1.5,0.6s-0.6,1-0.7,1.7h3.9c0-0.7-0.2-1.3-0.5-1.7
			S185.1,248.9,184.5,248.9z"/>
		<path class="st3" d="M193.1,254.9v-4.1c0-0.6-0.1-1.1-0.4-1.4s-0.7-0.4-1.3-0.4c-0.8,0-1.3,0.2-1.7,0.6s-0.5,1-0.5,1.9v3.5h-0.6
			v-6.4h0.5l0.1,0.9h0c0.4-0.7,1.2-1,2.2-1c1.4,0,2.2,0.8,2.2,2.3v4.2H193.1z"/>
		<path class="st3" d="M200.8,248.5v0.4l-1.3,0.1c0.4,0.4,0.5,0.9,0.5,1.4c0,0.6-0.2,1.1-0.6,1.5s-1,0.6-1.6,0.6c-0.3,0-0.5,0-0.6,0
			c-0.2,0.1-0.4,0.3-0.5,0.4s-0.2,0.3-0.2,0.5c0,0.2,0.1,0.4,0.2,0.4s0.4,0.1,0.8,0.1h1.1c0.7,0,1.2,0.1,1.6,0.4s0.6,0.7,0.6,1.2
			c0,0.7-0.3,1.2-0.8,1.6s-1.3,0.5-2.3,0.5c-0.8,0-1.4-0.2-1.9-0.5s-0.7-0.7-0.7-1.3c0-0.4,0.1-0.8,0.4-1.1s0.6-0.5,1.1-0.6
			c-0.2-0.1-0.3-0.2-0.5-0.3s-0.2-0.3-0.2-0.5c0-0.4,0.3-0.8,0.8-1.1c-0.4-0.2-0.7-0.4-0.9-0.7s-0.3-0.7-0.3-1.1
			c0-0.6,0.2-1.1,0.6-1.5s1-0.6,1.6-0.6c0.4,0,0.7,0,1,0.1H200.8z M195.6,256c0,0.9,0.7,1.3,2,1.3c1.7,0,2.5-0.5,2.5-1.6
			c0-0.4-0.1-0.7-0.4-0.8s-0.7-0.3-1.3-0.3h-1C196.2,254.6,195.6,255,195.6,256z M196.1,250.5c0,0.5,0.1,0.9,0.4,1.1
			s0.7,0.4,1.2,0.4c0.5,0,0.9-0.1,1.2-0.4s0.4-0.7,0.4-1.2c0-0.5-0.1-1-0.4-1.2s-0.7-0.4-1.2-0.4c-0.5,0-0.9,0.1-1.2,0.4
			S196.1,250,196.1,250.5z"/>
		<path class="st3" d="M203.7,254.5c0.4,0,0.7,0,1-0.1v0.5c-0.3,0.1-0.6,0.1-1,0.1c-0.6,0-1-0.2-1.2-0.5s-0.4-0.8-0.4-1.4V249h-0.9
			v-0.3l0.9-0.3l0.3-1.4h0.3v1.5h1.9v0.5h-1.9v4c0,0.5,0.1,0.8,0.3,1.1S203.4,254.5,203.7,254.5z"/>
		<path class="st3" d="M210.5,254.9v-4.1c0-0.6-0.1-1.1-0.4-1.4s-0.7-0.4-1.3-0.4c-0.8,0-1.3,0.2-1.7,0.6s-0.5,1-0.5,1.9v3.5h-0.6
			v-9.1h0.6v2.9l0,0.8h0c0.2-0.4,0.5-0.7,0.9-0.8s0.8-0.3,1.4-0.3c1.4,0,2.2,0.8,2.2,2.3v4.2H210.5z"/>
		<path class="st3" d="M220.9,248.3c0,0.5-0.2,1-0.5,1.3s-0.8,0.6-1.3,0.7v0c0.7,0.1,1.2,0.3,1.6,0.7s0.5,0.8,0.5,1.4
			c0,0.8-0.3,1.4-0.8,1.9s-1.3,0.7-2.4,0.7c-0.9,0-1.6-0.2-2.3-0.5v-0.6c0.3,0.2,0.7,0.3,1.1,0.4s0.8,0.1,1.2,0.1
			c0.9,0,1.5-0.2,1.9-0.5s0.7-0.8,0.7-1.5c0-0.6-0.2-1-0.7-1.3s-1.1-0.5-2-0.5h-0.9v-0.6h0.9c0.7,0,1.3-0.2,1.7-0.5s0.6-0.8,0.6-1.4
			c0-0.5-0.2-0.9-0.5-1.1s-0.8-0.4-1.3-0.4c-0.4,0-0.8,0.1-1.2,0.2s-0.7,0.3-1.2,0.6l-0.3-0.4c0.3-0.3,0.7-0.5,1.2-0.7
			s0.9-0.2,1.4-0.2c0.8,0,1.4,0.2,1.8,0.6S220.9,247.6,220.9,248.3z"/>
		<path class="st3" d="M226.1,254.9h-0.6v-6.2c0-0.6,0-1.2,0.1-1.8c-0.1,0.1-0.1,0.1-0.2,0.2s-0.7,0.5-1.8,1.4l-0.3-0.4l2.3-1.7h0.5
			V254.9z"/>
		<path class="st3" d="M235.1,250.6c0,1.5-0.2,2.6-0.7,3.3s-1.2,1.1-2.1,1.1c-0.9,0-1.6-0.4-2-1.1s-0.7-1.8-0.7-3.3
			c0-1.5,0.2-2.6,0.7-3.3s1.1-1.1,2.1-1.1c0.9,0,1.6,0.4,2.1,1.1S235.1,249.1,235.1,250.6z M230.2,250.6c0,1.3,0.2,2.3,0.5,2.9
			s0.9,1,1.6,1c0.7,0,1.3-0.3,1.6-1s0.5-1.6,0.5-2.9c0-1.3-0.2-2.2-0.5-2.9s-0.9-1-1.6-1s-1.3,0.3-1.6,1S230.2,249.3,230.2,250.6z"
			/>
		<path class="st3" d="M241.9,250.6c0,1.5-0.2,2.6-0.7,3.3s-1.2,1.1-2.1,1.1c-0.9,0-1.6-0.4-2-1.1s-0.7-1.8-0.7-3.3
			c0-1.5,0.2-2.6,0.7-3.3s1.1-1.1,2.1-1.1c0.9,0,1.6,0.4,2.1,1.1S241.9,249.1,241.9,250.6z M237.1,250.6c0,1.3,0.2,2.3,0.5,2.9
			s0.9,1,1.6,1c0.7,0,1.3-0.3,1.6-1s0.5-1.6,0.5-2.9c0-1.3-0.2-2.2-0.5-2.9s-0.9-1-1.6-1s-1.3,0.3-1.6,1S237.1,249.3,237.1,250.6z"
			/>
		<path class="st3" d="M251.6,254.9v-4.2c0-0.6-0.1-1.1-0.4-1.4s-0.6-0.4-1.1-0.4c-0.7,0-1.1,0.2-1.4,0.5s-0.5,0.9-0.5,1.7v3.7h-0.6
			v-4.4c0-1.1-0.5-1.6-1.5-1.6c-0.7,0-1.2,0.2-1.5,0.6s-0.5,1-0.5,1.9v3.5h-0.6v-6.4h0.5l0.1,0.9h0c0.2-0.3,0.4-0.6,0.8-0.7
			s0.7-0.3,1.1-0.3c1,0,1.6,0.4,1.9,1.1h0c0.2-0.4,0.5-0.6,0.8-0.8s0.7-0.3,1.2-0.3c0.7,0,1.2,0.2,1.6,0.6s0.5,1,0.5,1.8v4.2H251.6z
			"/>
		<path class="st3" d="M262.2,254.9v-4.2c0-0.6-0.1-1.1-0.4-1.4s-0.6-0.4-1.1-0.4c-0.7,0-1.1,0.2-1.4,0.5s-0.5,0.9-0.5,1.7v3.7h-0.6
			v-4.4c0-1.1-0.5-1.6-1.5-1.6c-0.7,0-1.2,0.2-1.5,0.6s-0.5,1-0.5,1.9v3.5h-0.6v-6.4h0.5l0.1,0.9h0c0.2-0.3,0.4-0.6,0.8-0.7
			s0.7-0.3,1.1-0.3c1,0,1.6,0.4,1.9,1.1h0c0.2-0.4,0.5-0.6,0.8-0.8s0.7-0.3,1.2-0.3c0.7,0,1.2,0.2,1.6,0.6s0.5,1,0.5,1.8v4.2H262.2z
			"/>
	</g>
	<g>
		<path class="st5" d="M37.2,198h-9.7c-2.6,0-4.7-1.9-4.7-4.1v-14.7c0-2.3,2.1-4.1,4.7-4.1h9.4"/>
		<rect x="22.8" y="183.5" class="st5" width="10.9" height="1.9"/>
		<rect x="22.8" y="186.8" class="st5" width="10.9" height="1.9"/>
		<polyline class="st5" points="67.2,147.5 67.2,173.3 64,173.3 64,147.2 		"/>
		<path class="st5" d="M25.6,160.3c6.2,0,11.2-4.3,11.2-9.5c0-5.3-5-9.5-11.2-9.5H23c0,0-1.1,0-1.1,1.5c0,1.7,0,16.6,0,16.6
			s0,1,1.1,1C24,160.3,25.6,160.3,25.6,160.3z"/>
		<line class="st5" x1="25.6" y1="141.2" x2="25.6" y2="160.3"/>
		<ellipse class="st5" cx="59.1" cy="166.4" rx="3.4" ry="3"/>
		<ellipse class="st5" cx="58.6" cy="149.7" rx="3.9" ry="3.4"/>
		<polyline class="st5" points="60.5,169.2 60.5,173.3 57.7,173.3 57.7,169.2 		"/>
		<line class="st5" x1="62.5" y1="161" x2="62.5" y2="149.7"/>
		<line class="st5" x1="62.5" y1="166.4" x2="62.5" y2="164.1"/>
		<rect x="57.3" y="147.6" class="st5" width="2.7" height="2.7"/>
		<line class="st5" x1="36.7" y1="149.6" x2="57.9" y2="173.3"/>
		<line class="st5" x1="53.8" y1="173.3" x2="36.3" y2="153.6"/>
		<polyline class="st5" points="64.1,165.4 42.1,147.4 43.8,145.8 64,162.3 		"/>
		<line class="st5" x1="55" y1="154.9" x2="54.7" y2="149.7"/>
		<line class="st5" x1="55.6" y1="166.4" x2="55.2" y2="158.1"/>
		<line class="st5" x1="55.6" y1="164.9" x2="36.3" y2="148.1"/>
		<polyline class="st5" points="36,146.9 36.8,146.2 55.3,162.3 		"/>
		<polygon class="st5" points="40.3,149.1 38.7,147.9 42.9,144 45.3,144.3 		"/>
		<path class="st6" d="M2.7,108c0,0,0.3,12.9,0.8,16s4.4,12,9.9,13.2S215,164.1,215,164.1"/>
		<path class="st6" d="M27.7,139.2c0,0,2.9,3.1,9.1,3.9s37,5.3,37,5.3L216,167.5c0,0,4.2,0.5,9.8,0.9"/>
		<polyline class="st5" points="73.7,148.5 71.8,173.3 68.6,173.3 70.5,148 		"/>
		<line class="st5" x1="73.7" y1="145.4" x2="73.7" y2="108"/>
		<line class="st5" x1="205.3" y1="162.8" x2="205.3" y2="108"/>
		<path class="st6" d="M232.1,169.3c0,0,6.9,1.3,18.4,1.3s61.8,1,61.8,1l4,29.1c0,0,0.5,4.7,4.6,4.7s92.7,0,92.7,0s6.5,0.3,6.9-6.5
			s0.9-27.8,0.9-27.8s6.5-2,6.6-8.8s0-54.4,0-54.4"/>
		<path class="st5" d="M309,166.5l-64.9-2.3v3.7c0,0,5,1,12,1.3c7.1,0.3,52.9,2.3,52.9,2.3V166.5c7.7-1.9,44-2.3,44-2.3v5
			c-36.7,0-40.7,2.4-40.7,2.4"/>
		<path class="st5" d="M244.1,167.9c0,0-9.9-1.8-11-9.8l2.2-1.4l8.8,7.5"/>
		<path class="st5" d="M218.5,108v51l-4.9,6.1c0,0,6.4,1.4,11.5,1.9c0,0-1.1-4.1-0.5-4.7c0.5-0.6,7.5-3,7.5-3V176
			c0,0-2.9-0.4-5.7-6.4c0,0-0.7-1.3-1.3-2.6"/>
		<path class="st5" d="M213.6,165.1c0,0,19.3-7.7,21.1-9.2c1.7-1.5,3.1-2,3.1-6s0-42,0-42"/>
		<path class="st5" d="M235.5,108v42.5c0,0-0.3,2.7-2.5,3.8c-2.1,1.1-10.2,3.8-10.2,3.8s-2.3,0.2-2.3-3.1s0-47,0-47"/>
		<path class="st5" d="M326.1,169.8l0.8,27.4c0,0,0.6,2.7-3.1,2.7s-7.6,0-7.6,0"/>
		<rect x="407.7" y="174.5" class="st5" width="10" height="23.4"/>
		<line class="st5" x1="412.7" y1="174.8" x2="412.7" y2="197.9"/>
		<ellipse class="st5" cx="44.6" cy="108" rx="3.9" ry="3.4"/>
		<polygon class="st5" points="87.7,131.1 89.6,131.3 89.6,117.3 87.7,117.6 		"/>
		<polygon class="st5" points="91.6,131.1 93.5,131.3 93.5,117.3 91.6,117.6 		"/>
		<polygon class="st5" points="95.5,131.1 97.4,131.3 97.4,117.3 95.5,117.6 		"/>
		<polygon class="st5" points="99.4,131.1 101.3,131.3 101.3,117.3 99.4,117.6 		"/>
		<polygon class="st5" points="103.3,131.1 105.2,131.3 105.2,117.3 103.3,117.6 		"/>
		<polygon class="st5" points="107.2,131.1 109.1,131.3 109.1,117.3 107.2,117.6 		"/>
		<polygon class="st5" points="111.1,131.1 113,131.3 113,117.3 111.1,117.6 		"/>
		<polygon class="st5" points="116.4,131.1 118.3,131.3 118.3,117.3 116.4,117.6 		"/>
		<polygon class="st5" points="120.3,131.1 122.2,131.3 122.2,117.3 120.3,117.6 		"/>
		<polygon class="st5" points="124.2,131.1 126.1,131.3 126.1,117.3 124.2,117.6 		"/>
		<polygon class="st5" points="128.1,131.1 130,131.3 130,117.3 128.1,117.6 		"/>
		<polygon class="st5" points="132,131.1 133.9,131.3 133.9,117.3 132,117.6 		"/>
		<polygon class="st5" points="135.9,131.1 137.8,131.3 137.8,117.3 135.9,117.6 		"/>
		<polygon class="st5" points="141.3,131.1 143.2,131.3 143.2,117.3 141.3,117.6 		"/>
		<polygon class="st5" points="145.2,131.1 147.1,131.3 147.1,117.3 145.2,117.6 		"/>
		<polygon class="st5" points="149.1,131.1 151,131.3 151,117.3 149.1,117.6 		"/>
		<polygon class="st5" points="153,131.1 154.9,131.3 154.9,117.3 153,117.6 		"/>
		<polygon class="st5" points="156.9,131.1 158.8,131.3 158.8,117.3 156.9,117.6 		"/>
		<polygon class="st5" points="160.8,131.1 162.7,131.3 162.7,117.3 160.8,117.6 		"/>
		<polygon class="st5" points="164.7,131.1 166.6,131.3 166.6,117.3 164.7,117.6 		"/>
		<polygon class="st5" points="184.3,114.7 186.2,115 186.2,101 184.3,101.2 		"/>
		<polygon class="st5" points="188.2,114.7 190.1,115 190.1,101 188.2,101.2 		"/>
		<polygon class="st5" points="192.1,114.7 194,115 194,101 192.1,101.2 		"/>
		<polygon class="st5" points="196,114.7 197.9,115 197.9,101 196,101.2 		"/>
		<polygon class="st5" points="199.9,114.7 201.8,115 201.8,101 199.9,101.2 		"/>
		<g>
			<path class="st5" d="M246.5,154.6c0,0,50.6-8.5,90.4,3.7"/>
			<path class="st5" d="M248.3,158c0,0,33.3-4.1,40.5-4.1c7.1-0.1,8.7-3.5,9.4-5c0.7-1.5,2.1-4.5,5.5-4.5s36.7,0,36.7,0
				s3.9-0.2,3.9,2.5s-1,11.9-2.6,13.2s-6.4,1.3-10.6,0.9s-19.6-2.1-24.7-2.5c-5-0.5-17.9-1.6-29,0c-9.3,1.3-20.1,0.7-26.1-0.8"/>
			<path class="st5" d="M354.5,140c0,0,0-6,0-9.1s-3.2-3.2-4.8-4c-1.6-0.8-2.4-3.2-3.3-4.8s-1.9-4.6-7.9-4.9
				c-6-0.2-25.8,1.6-33.4,2.5c-7.1,0.8-17.2,0.6-22.5,0.1s-18.2-1.7-26.5-1.3c-8.3,0.4-9.7,6.8-9.7,6.8V140v14.7
				c0,0,1.4,6.3,9.7,6.8c8.3,0.4,21.2-0.8,26.5-1.3s15.3-0.7,22.5,0.1c7.5,0.9,27.4,2.7,33.4,2.5s7-3.3,7.9-4.9
				c0.9-1.6,1.7-4,3.3-4.8c1.6-0.8,4.8-0.9,4.8-4S354.5,140,354.5,140z"/>
			<path class="st5" d="M246.5,125.3c0,0,50.6,8.5,90.4-3.7"/>
			<path class="st5" d="M248.3,122c0,0,33.3,4.1,40.5,4.1c7.1,0.1,8.7,3.5,9.4,5c0.7,1.5,2.1,4.5,5.5,4.5s36.7,0,36.7,0
				s3.9,0.2,3.9-2.5s-1-11.9-2.6-13.2s-6.4-1.3-10.6-0.9s-19.6,2.1-24.7,2.5c-5,0.5-17.9,1.6-29,0c-9.3-1.3-20.1-0.7-26.1,0.8"/>
			<path class="st5" d="M345.8,129l4.8,0.7c1.3,2.1,1.6,10.3,1.6,10.3s-0.3,8.1-1.6,10.3l-4.8,0.7"/>
			<path class="st5" d="M341.6,119.9c5.3,3.6,5.2,20.1,5.2,20.1s0,16.5-5.2,20.1"/>
		</g>
		<path class="st5" d="M265.6,140c0.1,2,2.8,4,3.9,4.5c1,0.6,2.1-0.8,2.1-0.8V140v-3.7c0,0-1.1-1.4-2.1-0.8S265.7,138,265.6,140z"/>
		<path class="st5" d="M237.7,117.9c0,0,26.8-0.4,33.8,0c7.1,0.4,24.2,0.5,34,0s27.2-2.8,38.6-1.8V108"/>
		<path class="st5" d="M329.1,116.1c0,0,1.6-5.5,1.6-8.1"/>
		<path class="st5" d="M317.6,117c0,0,2.4-4.5,2.4-9"/>
		<path class="st5" d="M305.6,117.9c0,0,3.1-3.4,3.1-9.9"/>
		<path class="st5" d="M295.7,118.2c0,0,2.6-5,2.6-10.2"/>
		<path class="st5" d="M285.3,118.2c0,0,4.4-4.2,4.4-10.2"/>
		<path class="st5" d="M237.7,117c0,0,5.3-1.1,14.3-1.3c9-0.2,25.2-0.1,27.5-0.3c2.3-0.2,5-0.5,5.7-3.3s0.8-4.1,0.8-4.1"/>
		<path class="st5" d="M284.1,108c0,0,0.2,3-0.7,3.8s-2.2,0.8-3.2,0s-1.6-1.8-1.6-3.8"/>
		<polyline class="st5" points="278.6,110.2 265.6,110.2 265.6,108 		"/>
		<polyline class="st5" points="265.6,109.1 263.6,109.1 263.6,108 		"/>
		<path class="st5" d="M282,115c0,0-4.3-2.2-7.5-2.6s-11.7-0.7-13.5-0.3s-3.9,1.9-5.5,3.5"/>
		<path class="st5" d="M252,115.7c0,0,2.9-1.4,2.9-7.7"/>
		<ellipse class="st5" cx="243.6" cy="108" rx="2.8" ry="2.5"/>
		<path class="st5" d="M421.4,171c0,0-62.2,0-64.4,0s-4-1.8-4-1.8"/>
		<path class="st5" d="M353,169.2h48c0,0,13.4,0.3,13.4-14.1c0-14.4,0-47,0-47"/>
		<polyline class="st5" points="358.7,158.4 353,164.2 361.9,163.7 		"/>
		<path class="st5" d="M361.4,108c0,0,0,30.5,0,34.1s1.7,8.2,1.7,8.2l3.7,7.5c0.7,0.7,1.2,1.6,1.2,2.5c0,2-1.8,3.6-4.1,3.6
			c-1.9,0-3.5-1.1-4-2.7l-5.4-13.7"/>
		<line class="st5" x1="354.5" y1="130.9" x2="354.5" y2="108"/>
		<path class="st5" d="M361.4,132.9l36.9,3.5c0.3,0.1,0.7,0,1,0c1.6,0,2.4-0.8,2.4-2c0-1.1-0.7-2-2.4-2l-38-3.5"/>
		<path class="st5" d="M37.2,18h-9.7c-2.6,0-4.7,1.9-4.7,4.1v14.7c0,2.3,2.1,4.1,4.7,4.1h9.4"/>
		<rect x="22.8" y="30.5" class="st5" width="10.9" height="1.9"/>
		<rect x="22.8" y="27.3" class="st5" width="10.9" height="1.9"/>
		<polyline class="st5" points="67.2,68.5 67.2,42.6 64,42.6 64,68.8 		"/>
		<path class="st5" d="M25.6,55.7c6.2,0,11.2,4.3,11.2,9.5s-5,9.5-11.2,9.5H23c0,0-1.1,0-1.1-1.5c0-1.7,0-16.6,0-16.6s0-1,1.1-1
			C24,55.7,25.6,55.7,25.6,55.7z"/>
		<line class="st5" x1="25.6" y1="74.8" x2="25.6" y2="55.7"/>
		<ellipse class="st5" cx="59.1" cy="49.5" rx="3.4" ry="3"/>
		<ellipse class="st5" cx="58.6" cy="66.2" rx="3.9" ry="3.4"/>
		<polyline class="st5" points="60.5,46.8 60.5,42.6 57.7,42.6 57.7,46.8 		"/>
		<line class="st5" x1="62.5" y1="55" x2="62.5" y2="66.2"/>
		<line class="st5" x1="62.5" y1="49.5" x2="62.5" y2="51.9"/>
		<rect x="57.3" y="65.6" class="st5" width="2.7" height="2.7"/>
		<line class="st5" x1="36.7" y1="66.4" x2="57.9" y2="42.7"/>
		<line class="st5" x1="53.8" y1="42.7" x2="36.3" y2="62.4"/>
		<polyline class="st5" points="64.1,50.6 42.1,68.6 43.8,70.2 64,53.7 		"/>
		<line class="st5" x1="55" y1="61.1" x2="54.7" y2="66.2"/>
		<line class="st5" x1="55.6" y1="49.5" x2="55.2" y2="57.9"/>
		<line class="st5" x1="55.6" y1="51.1" x2="36.3" y2="67.9"/>
		<polyline class="st5" points="36,69.1 36.8,69.8 55.3,53.6 		"/>
		<polygon class="st5" points="40.3,66.9 38.7,68.1 42.9,72 45.3,71.7 		"/>
		<path class="st6" d="M2.7,108c0,0,0.3-12.9,0.8-16s4.4-12,9.9-13.2C19,77.6,215,51.9,215,51.9"/>
		<path class="st6" d="M27.7,76.8c0,0,2.9-3.1,9.1-3.9s37-5.3,37-5.3L216,48.4c0,0,4.2-0.5,9.8-0.9"/>
		<polyline class="st5" points="73.7,67.5 71.8,42.6 68.6,42.6 70.5,68 		"/>
		<line class="st5" x1="73.7" y1="70.6" x2="73.7" y2="108"/>
		<line class="st5" x1="205.3" y1="53.2" x2="205.3" y2="108"/>
		<path class="st6" d="M232.1,46.7c0,0,6.9-1.3,18.4-1.3s61.8-1,61.8-1l4-29.1c0,0,0.5-4.7,4.6-4.7s92.7,0,92.7,0s6.5-0.3,6.9,6.5
			s0.9,27.8,0.9,27.8s6.5,2,6.6,8.8s0,54.4,0,54.4"/>
		<path class="st5" d="M309,49.4l-64.9,2.3V48c0,0,5-1,12-1.3c7.1-0.3,52.9-2.3,52.9-2.3V49.4c7.7,1.9,44,2.3,44,2.3v-5
			c-36.7,0-40.7-2.4-40.7-2.4"/>
		<path class="st5" d="M244.1,48.1c0,0-9.9,1.8-11,9.8l2.2,1.4l8.8-7.5"/>
		<path class="st5" d="M218.5,108V57l-4.9-6.1c0,0,6.4-1.4,11.5-1.9c0,0-1.1,4.1-0.5,4.7c0.5,0.6,7.5,3,7.5,3V40
			c0,0-2.9,0.4-5.7,6.4c0,0-0.7,1.3-1.3,2.6"/>
		<path class="st5" d="M213.6,50.9c0,0,19.3,7.7,21.1,9.2c1.7,1.5,3.1,2,3.1,6s0,42,0,42"/>
		<path class="st5" d="M235.5,108V65.5c0,0-0.3-2.7-2.5-3.8c-2.1-1.1-10.2-3.8-10.2-3.8s-2.3-0.2-2.3,3.1c0,3.3,0,47,0,47"/>
		<path class="st5" d="M326.1,46.2l0.8-27.4c0,0,0.6-2.7-3.1-2.7s-7.6,0-7.6,0"/>
		<rect x="407.7" y="18.1" class="st5" width="10" height="23.4"/>
		<line class="st5" x1="412.7" y1="41.2" x2="412.7" y2="18.1"/>
		<polygon class="st5" points="87.7,84.9 89.6,84.7 89.6,98.7 87.7,98.4 		"/>
		<polygon class="st5" points="91.6,84.9 93.5,84.7 93.5,98.7 91.6,98.4 		"/>
		<polygon class="st5" points="95.5,84.9 97.4,84.7 97.4,98.7 95.5,98.4 		"/>
		<polygon class="st5" points="99.4,84.9 101.3,84.7 101.3,98.7 99.4,98.4 		"/>
		<polygon class="st5" points="103.3,84.9 105.2,84.7 105.2,98.7 103.3,98.4 		"/>
		<polygon class="st5" points="107.2,84.9 109.1,84.7 109.1,98.7 107.2,98.4 		"/>
		<polygon class="st5" points="111.1,84.9 113,84.7 113,98.7 111.1,98.4 		"/>
		<polygon class="st5" points="116.4,84.9 118.3,84.7 118.3,98.7 116.4,98.4 		"/>
		<polygon class="st5" points="120.3,84.9 122.2,84.7 122.2,98.7 120.3,98.4 		"/>
		<polygon class="st5" points="124.2,84.9 126.1,84.7 126.1,98.7 124.2,98.4 		"/>
		<polygon class="st5" points="128.1,84.9 130,84.7 130,98.7 128.1,98.4 		"/>
		<polygon class="st5" points="132,84.9 133.9,84.7 133.9,98.7 132,98.4 		"/>
		<polygon class="st5" points="135.9,84.9 137.8,84.7 137.8,98.7 135.9,98.4 		"/>
		<polygon class="st5" points="141.3,84.9 143.2,84.7 143.2,98.7 141.3,98.4 		"/>
		<polygon class="st5" points="145.2,84.9 147.1,84.7 147.1,98.7 145.2,98.4 		"/>
		<polygon class="st5" points="149.1,84.9 151,84.7 151,98.7 149.1,98.4 		"/>
		<polygon class="st5" points="153,84.9 154.9,84.7 154.9,98.7 153,98.4 		"/>
		<polygon class="st5" points="156.9,84.9 158.8,84.7 158.8,98.7 156.9,98.4 		"/>
		<polygon class="st5" points="160.8,84.9 162.7,84.7 162.7,98.7 160.8,98.4 		"/>
		<polygon class="st5" points="164.7,84.9 166.6,84.7 166.6,98.7 164.7,98.4 		"/>
		<g>
			<path class="st5" d="M246.5,61.4c0,0,50.6,8.5,90.4-3.7"/>
			<path class="st5" d="M248.3,58c0,0,33.3,4.1,40.5,4.1c7.1,0.1,8.7,3.5,9.4,5c0.7,1.5,2.1,4.5,5.5,4.5s36.7,0,36.7,0
				s3.9,0.2,3.9-2.5s-1-11.9-2.6-13.2c-1.6-1.2-6.4-1.3-10.6-0.9c-4.2,0.4-19.6,2.1-24.7,2.5c-5,0.5-17.9,1.6-29,0
				c-9.3-1.3-20.1-0.7-26.1,0.8"/>
			<path class="st5" d="M246.5,64.9v-3.5c0,0,1.4-6.3,9.7-6.8c8.3-0.4,21.2,0.8,26.5,1.3s15.3,0.7,22.5-0.1
				c7.5-0.9,27.4-2.7,33.4-2.5s7,3.3,7.9,4.9c0.9,1.6,1.7,4,3.3,4.8c1.6,0.8,4.8,0.9,4.8,4c0,3.1,0,9.1,0,9.1s0,6,0,9.1
				s-3.2,3.2-4.8,4c-1.6,0.8-2.4,3.2-3.3,4.8s-1.9,4.6-7.9,4.9c-6,0.2-25.8-1.6-33.4-2.5c-7.1-0.8-17.2-0.6-22.5-0.1
				s-18.2,1.7-26.5,1.3c-5.2-0.3-7.7-2.9-8.8-4.7"/>
			<path class="st5" d="M251.4,90c13.7-1.8,53.2-5.5,85.5,4.4"/>
			<path class="st5" d="M248.3,94c0,0,33.3-4.1,40.5-4.1c7.1-0.1,8.7-3.5,9.4-5c0.7-1.5,2.1-4.5,5.5-4.5s36.7,0,36.7,0
				s3.9-0.2,3.9,2.5s-1,11.9-2.6,13.2s-6.4,1.3-10.6,0.9s-19.6-2.1-24.7-2.5c-5-0.5-17.9-1.6-29,0c-9.3,1.3-20.1,0.7-26.1-0.8"/>
			<path class="st5" d="M345.8,87l4.8-0.7c1.3-2.1,1.6-10.3,1.6-10.3s-0.3-8.1-1.6-10.3l-4.8-0.7"/>
			<path class="st5" d="M341.6,96.1c5.3-3.6,5.2-20.1,5.2-20.1s0-16.5-5.2-20.1"/>
		</g>
		<path class="st5" d="M265.6,76c0.1-2,2.8-4,3.9-4.5s2.1,0.8,2.1,0.8V76v3.7c0,0-1.1,1.4-2.1,0.8S265.7,78,265.6,76z"/>
		<path class="st5" d="M237.7,98.1c0,0,26.8,0.4,33.8,0c7.1-0.4,24.2-0.5,34,0s27.2,2.8,38.6,1.8v8.1"/>
		<path class="st5" d="M329.1,99.9c0,0,1.6,5.5,1.6,8.1"/>
		<path class="st5" d="M317.6,99c0,0,2.4,4.5,2.4,9"/>
		<path class="st5" d="M305.6,98.1c0,0,3.1,3.4,3.1,9.9"/>
		<path class="st5" d="M295.7,97.8c0,0,2.6,5,2.6,10.2"/>
		<path class="st5" d="M285.3,97.8c0,0,4.4,4.2,4.4,10.2"/>
		<path class="st5" d="M237.7,99c0,0,5.3,1.1,14.3,1.3c9,0.2,25.2,0.1,27.5,0.3c2.3,0.2,5,0.5,5.7,3.3s0.8,4.1,0.8,4.1"/>
		<path class="st5" d="M284.1,108c0,0,0.2-3-0.7-3.8s-2.2-0.8-3.2,0s-1.6,1.8-1.6,3.8"/>
		<polyline class="st5" points="278.6,105.8 265.6,105.8 265.6,108 		"/>
		<polyline class="st5" points="265.6,106.9 263.6,106.9 263.6,108 		"/>
		<path class="st5" d="M282,101c0,0-4.3,2.2-7.5,2.6s-11.7,0.7-13.5,0.3s-3.9-1.9-5.5-3.5"/>
		<path class="st5" d="M252,100.3c0,0,2.9,1.4,2.9,7.7"/>
		<path class="st5" d="M421.4,45c0,0-62.2,0-64.4,0s-4,1.8-4,1.8"/>
		<path class="st5" d="M353,46.8h48c0,0,13.4-0.3,13.4,14.1s0,47,0,47"/>
		<polyline class="st5" points="358.7,57.6 353,51.8 361.9,52.3 		"/>
		<path class="st5" d="M361.4,108c0,0,0-30.5,0-34.1s1.7-8.2,1.7-8.2l3.7-7.5c0.7-0.7,1.2-1.6,1.2-2.5c0-2-1.8-3.6-4.1-3.6
			c-1.9,0-3.5,1.1-4,2.7l-5.4,13.7"/>
		<line class="st5" x1="354.5" y1="85.1" x2="354.5" y2="108"/>
		<path class="st5" d="M361.4,83.1l36.9-3.5c0.3-0.1,0.7,0,1,0c1.6,0,2.4,0.8,2.4,2c0,1.1-0.7,2-2.4,2l-38,3.5"/>
		<path class="st5" d="M231.5,155c0,0-2.8-27.3-2.8-47"/>
		<path class="st5" d="M231.5,60.9c0,0-2.8,27.3-2.8,47"/>
		<ellipse class="st5" cx="247.1" cy="78.7" rx="7.3" ry="13.9"/>
		<ellipse class="st5" cx="247.4" cy="78.7" rx="5.4" ry="12.2"/>
		<ellipse class="st5" cx="248.9" cy="78.7" rx="0.9" ry="2.5"/>
		<polyline class="st5" points="251.7,86.1 249.9,83.6 245.3,87.1 244.9,89.6 		"/>
		<line class="st5" x1="249.9" y1="83.6" x2="249.5" y2="80.8"/>
		<polyline class="st5" points="251.7,71.2 249.9,73.8 245.3,70.3 244.9,67.8 		"/>
		<line class="st5" x1="249.9" y1="73.8" x2="249.5" y2="76.7"/>
		<path class="st5" d="M245.3,70.3c0,0-1.3,4.7-1.3,7.6v1.7c0,2.9,1.3,7.6,1.3,7.6"/>
		<ellipse class="st5" cx="239" cy="68.6" rx="1.2" ry="4.1"/>
		<ellipse class="st5" cx="239" cy="88.8" rx="1.2" ry="4.1"/>
		<path class="st5" d="M273.6,40h-63.3c-2.8,0-5-2.2-5-5v-9.1c0-2.8,2.2-5,5-5h63.3c2.8,0,5,2.2,5,5V35
			C278.6,37.8,276.4,40,273.6,40z"/>
		<line class="st5" x1="212" y1="40" x2="212" y2="20.9"/>
		<line class="st5" x1="209.1" y1="40" x2="209.1" y2="20.9"/>
		<line class="st5" x1="275.3" y1="40" x2="275.3" y2="20.9"/>
		<line class="st5" x1="272.5" y1="40" x2="272.5" y2="20.9"/>
		<path class="st5" d="M278.6,26.5c0.6,0,6.5,0.1,8.1-4.2c2.7-7.3,3.6-11.3,3.6-11.4l9.3,1.4c0,0.2-0.9,4.6-3.9,12.5
			s-12.2,10-17.1,10"/>
		<polyline class="st5" points="290.4,10.9 289.2,10.7 289.5,9.1 301,10.9 300.7,12.5 299.6,12.3 		"/>
		<path class="st5" d="M286.3,33.4l2.8,9.1c0,0,4.7,0.2,6.6-2.2l-4.7-9.2"/>
		<line class="st5" x1="291.1" y1="42.5" x2="290.8" y2="44.8"/>
		<line class="st5" x1="294.1" y1="41.6" x2="294.6" y2="44.7"/>
		<rect x="188.2" y="26.2" class="st5" width="17.1" height="9"/>
		<rect x="184.4" y="25.4" class="st5" width="3.8" height="10.7"/>
		<path class="st5" d="M184.4,26.8c-4.8,0-7.8,0.5-7.8,0.5l-32.8,7.8l2.7,8.3l32.6-7.9c0,0,3-0.8,5.2-0.8"/>
		<path class="st5" d="M143.9,35.8c0,0-7.8-0.3-15.4,0.8l-8.4,2.2l0.2,0.7c0,0-5.8,1.1-10.4,4.2c-5.2,3.5-5.3,9.9-6.1,19.8"/>
		<path class="st5" d="M146.3,42.8c0,0-7.8,6.3-13,7.9s-8.1,2.3-8.1,2.3l-0.3-0.8c0,0-3.8,1.2-5,1.8s-2.4,2-2.3,7.7"/>
		<path class="st5" d="M125,52.1l-2-5.4c0,0,11.2-3,12.3-4.1c1.3-1.2,7.5-2.6,7.5-2.6"/>
		<path class="st5" d="M122.9,47.2c0,0-9,2.6-10.2,5.1c-1.4,2.8-1.6,6.1-2.1,10.3"/>
		<path class="st5" d="M122.2,44.6c0,0-6.5,2.1-8,3.5s-3.4,5.7-3.5,14.5"/>
		<line class="st5" x1="128" y1="36.7" x2="130.4" y2="42.8"/>
		<line class="st5" x1="131" y1="44.3" x2="133.6" y2="50.6"/>
		<path class="st5" d="M120.3,39.6l2.1,5.5l8.1-2.3c2.2-0.5,4.3-0.8,5.9-0.8"/>
		<path class="st6" d="M100.7,173.3c0,0,5,0,5,4.4s0,16.2,0,16.2s0.1,5.4-6,5.4s-55.9,0-57.7,0c-3.1,0-6.2-1.1-7.3-5.8
			s-1-12.7-0.5-14.4s2.5-5.7,8.2-5.7S100.7,173.3,100.7,173.3z"/>
		<path class="st6" d="M100.7,42.6c0,0,5,0,5-4.4s0-16.2,0-16.2s0.1-5.4-6-5.4s-55.9,0-57.7,0c-3.1,0-6.2,1.1-7.3,5.8
			s-1,12.7-0.5,14.4c0.5,1.7,2.5,5.7,8.2,5.7S100.7,42.6,100.7,42.6z"/>
	</g>
	<g>
		<rect x="16.5" y="388.5" class="st5" width="1.9" height="68.6"/>
		<rect x="13.2" y="388.6" class="st5" width="1.9" height="68.6"/>
		<ellipse class="st5" cx="54.1" cy="382.3" rx="10" ry="10.6"/>
		<ellipse class="st5" cx="53.2" cy="401.4" rx="4.1" ry="4.3"/>
		<ellipse class="st5" cx="54.1" cy="382.3" rx="8.1" ry="8.5"/>
		<path class="st5" d="M49.1,401.4c0,0-0.7-6,3.2-6.7c2.2-0.4,4,1.1,4.8,5.4"/>
		<path class="st5" d="M49.4,391.6c0,0,0.1,2,2.1,3.3"/>
		<path class="st5" d="M54.3,394.9c0,0,2.1-0.8,2.9-2.7"/>
		<ellipse class="st5" cx="100.5" cy="381.4" rx="3.3" ry="1.5"/>
		<path class="st5" d="M63.8,379.9c0,0,1.5-3.8,6.9-6.3c3.6-1.6,14.6-3,29.8-3"/>
		<path class="st5" d="M60.5,390.4v7.2c0,0,3.4,0.3,3.4,4.1c0,3.8-0.2,7.1,0.2,15.1c0.6,11.5,3.4,19.9,4.6,22.5s2.8,3.2,3.9,3.2"/>
		<path class="st5" d="M127.4,443.7H73.5c-0.5,0-1-0.5-1-1v-11.8c0-0.6,0.5-1,1-1h53.9c0.5,0,1,0.4,1,1v11.8
			C128.4,443.2,128,443.7,127.4,443.7z"/>
		<path class="st6" d="M18.2,379.9h7.7c0,0,1.6-0.4,3,1s1.9,2.3,1.9,4s0,4.7,0,5.1s-1.2,0.3-1.9-0.3c-0.7-0.6-2-1-4.2-1.1
			s-18.4,0-18.4,0c-1.4,0.1-2,1.4-2.8,1.7c0,0-0.8,0.2-0.8,0c0-1.2-0.4-2.5,0.8-2.9c2.1-0.7,2-7.4,4.6-7.5
			C11.6,379.9,18.2,379.9,18.2,379.9z"/>
		<path class="st5" d="M9.4,379.9c0,0,1.1-3.2,4.7-3.2s22.7,0,22.7,0"/>
		<path class="st6" d="M3.5,387.5v-15.8c0,0,0.2-3.4,1.7-5s2.6-2.4,5.6-2.4s26,0,26,0"/>
		<path class="st5" d="M29.8,390.4c0,0,1.8,5.6,1.8,13s-0.7,16.9-0.7,16.9"/>
		<rect x="27.9" y="420.3" class="st5" width="4.6" height="4.2"/>
		<rect x="32.5" y="421.1" class="st5" width="1.9" height="2.5"/>
		<rect x="57.7" y="422.6" class="st5" width="1.9" height="2.5"/>
		<polygon class="st5" points="57.7,424.7 34.4,423.3 34.4,421.5 57.7,422.9 		"/>
		<path class="st5" d="M59.6,422.6c0,0,1.2-2.6,2.2-3.2c0.9-0.6,1.2,1.2,1.2,2.1c0.1,1,0,6.2,0,6.9c0,0.9-0.3,1.7-0.6,1.7
			c-0.5,0-2.8-2.2-2.8-4.9"/>
		<polyline class="st5" points="27.9,436.1 63.8,437.7 63.8,436.1 27.9,434.3 60.5,434.3 		"/>
		<path class="st5" d="M60.9,436l-1.4-5.3c0,0-0.7,2.1-0.9,3.7"/>
		<path class="st5" d="M61.7,437.7c0,0,0.7,3.2,2.5,3.5c1.8,0.3,5.9,0.2,5.9,0.2"/>
		<path class="st5" d="M37.7,438.3l26.1,2.8c-3.2-0.5-4.3-3.6-4.3-3.6"/>
		<line class="st5" x1="53.7" y1="434.3" x2="53.7" y2="424.5"/>
		<line class="st5" x1="41.2" y1="430" x2="53.7" y2="430"/>
		<line class="st5" x1="43.1" y1="428.2" x2="53.7" y2="428.2"/>
		<line class="st5" x1="51.1" y1="428.2" x2="51.1" y2="430"/>
		<polygon class="st5" points="37.6,432.8 34.2,429.3 38.2,425.1 41.5,428.7 		"/>
		<polyline class="st5" points="46.7,422.3 42.8,418.2 52.6,407.8 		"/>
		<polyline class="st5" points="56.5,407.9 59.9,411.5 49.6,422.4 		"/>
		<polyline class="st5" points="43.5,423.8 44.8,425.2 42.7,427.5 39.3,424 39.6,423.6 		"/>
		<polyline class="st5" points="39,423.6 43.2,428.1 42.1,429.3 37.6,424.6 38.5,423.6 		"/>
		<polyline class="st5" points="41.6,422 39.6,419.8 42,417.3 46.7,422.2 		"/>
		<polyline class="st5" points="48.5,424.1 49,424.7 46.6,427.2 43.4,423.8 		"/>
		<path class="st5" d="M27.9,429c0,0,2.6-2.1,2.9-4.3"/>
		<line class="st5" x1="29.8" y1="427.5" x2="34.4" y2="434.3"/>
		<path class="st5" d="M27.9,439c0,0,4.2,0.4,6-2.6"/>
		<path class="st5" d="M34.2,429.3c0,0-1.6-1.3-3.2,0.1"/>
		<line class="st5" x1="37.6" y1="432.8" x2="37.6" y2="434.3"/>
		<polyline class="st5" points="54.8,405.3 62.1,405.3 62.1,407.9 41.8,407.6 41.8,405 51.6,405.3 		"/>
		<rect x="39.8" y="403.4" class="st5" width="2" height="5.2"/>
		<rect x="37.9" y="404.3" class="st5" width="1.7" height="3.3"/>
		<polygon class="st5" points="31.6,407.6 36.2,407.6 36.2,404.3 31.6,404.2 		"/>
		<rect x="36.2" y="403.8" class="st5" width="1.7" height="4.2"/>
		<line class="st5" x1="56.5" y1="398" x2="62.6" y2="403.3"/>
		<polyline class="st5" points="57.3,402.1 60.6,405.3 63.8,402.1 		"/>
		<line class="st5" x1="62.1" y1="406.1" x2="63.8" y2="406.1"/>
		<path class="st5" d="M59.1,412.4c0,0,1.4,1.3,1.4,2.3s0,2.5,0,2.5"/>
		<path class="st5" d="M60.5,414.7c0,0,1-1.9,1-3s0-1.7,0-1.7h-2.8"/>
		<line class="st5" x1="43.1" y1="416.4" x2="51.1" y2="421.8"/>
		<line class="st5" x1="44.6" y1="414.9" x2="52.6" y2="420.3"/>
		<line class="st5" x1="46.1" y1="413.4" x2="54.1" y2="418.8"/>
		<line class="st5" x1="47.6" y1="411.9" x2="55.6" y2="417.3"/>
		<line class="st5" x1="49.1" y1="410.3" x2="57.1" y2="415.8"/>
		<line class="st5" x1="50.6" y1="408.8" x2="58.6" y2="414.2"/>
		<line class="st5" x1="52.1" y1="407.3" x2="60.1" y2="412.7"/>
		<line class="st5" x1="36.8" y1="421.5" x2="36.8" y2="408.1"/>
		<path class="st6" d="M36.8,403.7v-37.9c0,0,0-4.1,1.6-5.3c0.9-0.7,1.9-1,4.4-1"/>
		<line class="st5" x1="60.5" y1="397.6" x2="56.1" y2="397"/>
		<line class="st5" x1="49.5" y1="397" x2="36.8" y2="397"/>
		<line class="st5" x1="151.4" y1="397" x2="164.1" y2="397"/>
		<path class="st5" d="M42.8,397.3v-18.6c0,0-0.3-4.9,1.5-7.8c1.6-2.6,4.7-6.5,14.3-7.8c8.5-1.2,27.3-2.6,41.8-2.6"/>
		<path class="st6" d="M36.8,397c0,0,1.2-18.3,4.1-25.3c2.3-5.6,3.7-7.9,9.2-11c3.5-2,7.4-3.2,14.4-3.5c4.5-0.2,35.9-0.3,35.9-0.3"
			/>
		<line class="st6" x1="39.1" y1="378.3" x2="44.2" y2="352.2"/>
		<path class="st6" d="M46.7,341.8l2.7-11.6c0,0,1.8-4.3,2.6-5.6c1.1-1.7,3.1-3.9,6.4-3.9c3,0,42.2,0,42.2,0"/>
		<path class="st5" d="M100.5,323.9H59.6c0,0-2.3-0.2-3.4,1.6c-0.9,1.3-2.5,3.5-3.5,7.4s-5,26.4-5,26.4s6.2-3.5,10.1-4.1
			c5.2-0.8,7.2-0.8,10.3-0.8c3.1,0,32.4,0,32.4,0"/>
		<path class="st5" d="M44.9,348.6l-9.8-0.2c-1.4,0-2.5-1.3-2.5-2.8v-2.2c0-1.5,1.1-2.6,2.5-2.6l9.8,0.2c1.4,0,2.5,1.2,2.5,2.7v2.2
			C47.4,347.4,46.3,348.6,44.9,348.6z"/>
		<line class="st5" x1="40.5" y1="348.6" x2="44.9" y2="352.9"/>
		<path class="st5" d="M45.1,348.6c0,0-0.3,0.7,0,1.1c0.3,0.5,1.6,0.8,1.9,1.4c0.2,0.6,0.1,2-0.2,2.6s-1.4,2.5-3.4,2.4"/>
		<path class="st5" d="M48.2,356.2c0,0,5.9-4.6,7.6-6.6s3.1-4.3,3.3-6s1.2-9,2.1-11c0.9-2.3,3-5,6.4-5s4,0,4,0"/>
		<path class="st5" d="M152.7,356.2c0,0-5.9-4.6-7.6-6.6s-3.1-4.3-3.3-6s-1.2-9-2.1-11c-0.9-2.3-3-5-6.4-5s-4,0-4,0"/>
		<path class="st5" d="M56.9,348.2c0,0,2.5-0.2,3.8-1c1.2-0.8,1.8-2.7,2.1-4.6c0.2-1.5,0.9-7.2,1.1-8.3c0.4-1.9,1.9-3.9,4.3-3.9
			c2,0,3.5,0,3.5,0"/>
		<path class="st5" d="M58.1,346.3c0,0,1.7,0.1,2.3-1.7c0.6-1.7,0.9-5.7,1.2-7.7s0.8-4.2,1.9-5.7c0.9-1.2,2.5-2.2,4.2-2.2
			c1.1,0,3.7,0,3.7,0"/>
		<path class="st5" d="M55.5,355.7c0,0,3.9-4.5,5.8-4.5c1.9,0,5,3.1,5,3.1"/>
		<path class="st5" d="M92.6,354.3c-1.8-1.5-4.2-3.5-5.2-4.7c-1.7-2-3.1-4.3-3.3-6c-0.2-1.7-1.2-9-2.1-11c-0.9-2.3-3-5-6.4-5
			s-4,0-4,0"/>
		<path class="st5" d="M86.3,348.2c0,0-2.5-0.2-3.8-1c-1.2-0.8-1.8-2.7-2.1-4.6c-0.2-1.5-0.9-7.2-1.1-8.3c-0.4-1.9-1.9-3.9-4.3-3.9
			c-2,0-3.5,0-3.5,0"/>
		<path class="st5" d="M85.1,346.3c0,0-1.7,0.1-2.3-1.7c-0.6-1.7-0.9-5.7-1.2-7.7c-0.3-2-0.8-4.2-1.9-5.7c-0.9-1.2-2.5-2.2-4.2-2.2
			c-1.1,0-3.7,0-3.7,0"/>
		<path class="st5" d="M86.4,354.3c-1.3-1.3-3.3-3.1-4.5-3.1c-1.9,0-5,3.1-5,3.1"/>
		<path class="st5" d="M100.5,397c0,0-16.8,0.2-19.4,0.6c-2.9,0.4-6.8,1.3-8.6,3.9c-2.1,3-1.7,9.2-1.6,11.6s0.7,8.3,2.7,11.4
			c1.4,2.2,3.1,3,6.3,3.3c2.4,0.2,15,0.4,20.5,0.4"/>
		<path class="st5" d="M100.5,398.9c0,0-15.6,0-19.5,0.6c-2.4,0.4-5.8,1.2-7.2,3.5c-1.4,2.3-1.2,5.8-1.2,8.3s0.9,8.6,1.6,10.4
			c1,2.3,2.7,4.2,5.2,4.5s16.4,0.6,21.1,0.6"/>
		<path class="st5" d="M100.5,400.3h-9.7c0,0-2.4-0.1-3.4,1.6c-0.9,1.5-0.5,2.9,0.1,4.2c0.6,1.3,7.7,15.9,8.1,16.5s1.4,2.1,2.4,2.5
			c0.9,0.3,1.8,0.5,2.5,0.5"/>
		<path class="st5" d="M76.3,369.9l-0.2-3.7c0,0,0-1.3,1.3-1.4c1.2-0.1,3.2-0.3,5.5-0.5c3-0.2,5.1-0.3,6.1-0.4
			c1.2-0.1,1.9,0.1,2,0.9s0.3,4.1,0.3,4.1"/>
		<path class="st5" d="M93.4,363.8v-1.4c0,0,0.1-0.8,1-0.8s4.7-0.1,6.1-0.1"/>
		<line class="st5" x1="94.7" y1="363.4" x2="100.5" y2="363.4"/>
		<line class="st5" x1="77.1" y1="366.5" x2="90.2" y2="365.5"/>
		<line class="st5" x1="77.2" y1="368.1" x2="90.3" y2="367.1"/>
		<line class="st5" x1="77.3" y1="369.6" x2="90.4" y2="368.6"/>
		<path class="st5" d="M48.2,356.2c0,0,6.2-23.4,6.9-25.4s3.3-6.9,6.3-6.9"/>
		<line class="st5" x1="56.5" y1="328" x2="62.8" y2="329.9"/>
		<line class="st5" x1="54.6" y1="332.5" x2="60.7" y2="334.3"/>
		<line class="st5" x1="69.6" y1="323.9" x2="69.6" y2="327.5"/>
		<line class="st5" x1="74.1" y1="323.9" x2="74.1" y2="327.5"/>
		<polyline class="st5" points="84.4,344.9 90.9,342.8 83.7,340.4 		"/>
		<rect x="182.6" y="388.6" class="st5" width="1.9" height="68.6"/>
		<rect x="185.9" y="388.6" class="st5" width="1.9" height="68.6"/>
		<ellipse class="st5" cx="146.9" cy="382.3" rx="10" ry="10.6"/>
		<ellipse class="st5" cx="147.8" cy="401.4" rx="4.1" ry="4.3"/>
		<ellipse class="st5" cx="146.9" cy="382.3" rx="8.1" ry="8.5"/>
		<path class="st5" d="M151.9,401.4c0,0,0.7-6-3.2-6.7c-2.2-0.4-4,1.1-4.8,5.4"/>
		<path class="st5" d="M151.5,391.6c0,0-0.1,2-2.1,3.3"/>
		<path class="st5" d="M146.6,394.9c0,0-2.1-0.8-2.9-2.7"/>
		<ellipse class="st5" cx="100.5" cy="381.4" rx="3.3" ry="1.5"/>
		<path class="st5" d="M137.1,379.9c0,0-1.5-3.8-6.9-6.3c-3.6-1.6-14.6-3-29.8-3"/>
		<path class="st5" d="M140.5,390.4v7.2c0,0-3.4,0.3-3.4,4.1c0,3.8,0.2,7.1-0.2,15.1c-0.6,11.5-3.4,19.9-4.6,22.5
			c-1.2,2.6-2.8,3.2-3.9,3.2"/>
		<path class="st6" d="M182.8,379.9H175c0,0-1.6-0.4-3,1s-1.9,2.3-1.9,4s0,4.7,0,5.1s1.2,0.3,1.9-0.3s2-1,4.2-1.1
			c2.2-0.2,18.4,0,18.4,0c1.4,0.1,2,1.4,2.8,1.7c0,0,0.8,0.2,0.8,0c0-1.2,0.4-2.5-0.8-2.9c-2.1-0.7-2-7.4-4.6-7.5
			C189.3,379.9,182.8,379.9,182.8,379.9z"/>
		<path class="st5" d="M191.5,379.9c0,0-1.1-3.2-4.7-3.2c-3.6,0-22.7,0-22.7,0"/>
		<path class="st6" d="M197.4,387.5v-15.8c0,0-0.2-3.4-1.7-5s-2.6-2.4-5.6-2.4s-26,0-26,0"/>
		<path class="st5" d="M171.1,390.4c0,0-1.8,5.6-1.8,13s0.7,16.9,0.7,16.9"/>
		<rect x="168.4" y="420.3" class="st5" width="4.6" height="4.2"/>
		<rect x="166.6" y="421.2" class="st5" width="1.9" height="2.5"/>
		<rect x="141.3" y="422.6" class="st5" width="1.9" height="2.5"/>
		<polygon class="st5" points="143.2,424.7 166.5,423.3 166.5,421.5 143.2,422.9 		"/>
		<path class="st5" d="M141.4,422.6c0,0-1.2-2.6-2.2-3.2c-0.9-0.6-1.2,1.2-1.2,2.1c-0.1,1,0,6.2,0,6.9c0,0.9,0.3,1.7,0.6,1.7
			c0.5,0,2.8-2.2,2.8-4.9"/>
		<polyline class="st5" points="173,436.1 137.1,437.7 137.1,436.1 173,434.3 140.5,434.3 		"/>
		<path class="st5" d="M140,436l1.4-5.3c0,0,0.7,2.1,0.9,3.7"/>
		<path class="st5" d="M139.2,437.7c0,0-0.7,3.2-2.5,3.5s-5.9,0.2-5.9,0.2"/>
		<path class="st5" d="M163.2,438.3l-26.1,2.8c3.2-0.5,4.3-3.6,4.3-3.6"/>
		<line class="st5" x1="147.3" y1="434.3" x2="147.3" y2="424.5"/>
		<line class="st5" x1="159.7" y1="430" x2="147.3" y2="430"/>
		<line class="st5" x1="157.8" y1="428.2" x2="147.3" y2="428.2"/>
		<line class="st5" x1="149.8" y1="428.2" x2="149.8" y2="430"/>
		<polygon class="st5" points="163.3,432.8 166.7,429.3 162.8,425.1 159.4,428.7 		"/>
		<polyline class="st5" points="154.3,422.3 158.2,418.2 148.3,407.8 		"/>
		<polyline class="st5" points="144.4,407.9 141,411.5 151.4,422.4 		"/>
		<polyline class="st5" points="157.5,423.8 156.1,425.2 158.3,427.5 161.7,424 161.3,423.6 		"/>
		<polyline class="st5" points="161.9,423.6 157.7,428.1 158.9,429.3 163.4,424.6 162.4,423.6 		"/>
		<polyline class="st5" points="159.3,422 161.3,419.8 158.9,417.3 154.2,422.2 		"/>
		<polyline class="st5" points="152.4,424.1 151.9,424.7 154.3,427.2 157.5,423.8 		"/>
		<path class="st5" d="M173,429c0,0-2.6-2.1-2.9-4.3"/>
		<line class="st5" x1="171.1" y1="427.5" x2="166.5" y2="434.3"/>
		<path class="st5" d="M173,439c0,0-4.2,0.4-6-2.6"/>
		<path class="st5" d="M166.7,429.3c0,0,1.6-1.3,3.2,0.1"/>
		<line class="st5" x1="163.3" y1="432.8" x2="163.4" y2="434.3"/>
		<polyline class="st5" points="146.2,405.3 138.8,405.3 138.8,407.9 159.2,407.6 159.2,405 149.4,405.3 		"/>
		<rect x="159.1" y="403.3" class="st5" width="2" height="5.2"/>
		<rect x="161.3" y="404.3" class="st5" width="1.7" height="3.3"/>
		<polygon class="st5" points="169.4,407.6 164.7,407.6 164.7,404.3 169.4,404.2 		"/>
		<rect x="163.1" y="403.9" class="st5" width="1.7" height="4.2"/>
		<line class="st5" x1="144.4" y1="398" x2="138.3" y2="403.3"/>
		<polyline class="st5" points="143.6,402.1 140.4,405.3 137.1,402.1 		"/>
		<line class="st5" x1="138.8" y1="406.1" x2="137.1" y2="406.1"/>
		<path class="st5" d="M141.9,412.4c0,0-1.4,1.3-1.4,2.3s0,2.5,0,2.5"/>
		<path class="st5" d="M140.5,414.7c0,0-1-1.9-1-3s0-1.7,0-1.7h2.8"/>
		<line class="st5" x1="157.8" y1="416.4" x2="149.8" y2="421.8"/>
		<line class="st5" x1="156.3" y1="414.9" x2="148.3" y2="420.3"/>
		<line class="st5" x1="154.8" y1="413.4" x2="146.8" y2="418.8"/>
		<line class="st5" x1="153.3" y1="411.9" x2="145.3" y2="417.3"/>
		<line class="st5" x1="151.9" y1="410.3" x2="143.8" y2="415.8"/>
		<line class="st5" x1="150.4" y1="408.8" x2="142.4" y2="414.2"/>
		<line class="st5" x1="148.9" y1="407.3" x2="140.9" y2="412.7"/>
		<line class="st5" x1="164.1" y1="421.5" x2="164.1" y2="408.1"/>
		<path class="st6" d="M164.1,403.7v-37.9c0,0,0-4.1-1.6-5.3c-0.9-0.7-1.9-1-4.4-1"/>
		<line class="st5" x1="140.5" y1="397.6" x2="144.8" y2="397"/>
		<path class="st5" d="M158.2,397.3v-18.6c0,0,0.3-4.9-1.5-7.8c-1.6-2.6-4.7-6.5-14.3-7.8c-8.5-1.2-27.3-2.6-41.8-2.6"/>
		<path class="st6" d="M164.1,397c0,0-1.2-18.3-4.1-25.3c-2.3-5.6-3.7-7.9-9.2-11c-3.5-2-7.4-3.2-14.4-3.5
			c-4.5-0.2-35.9-0.3-35.9-0.3"/>
		<line class="st6" x1="161.8" y1="378.3" x2="156.8" y2="352.2"/>
		<path class="st6" d="M154.2,341.8l-2.7-11.6c0,0-1.8-4.3-2.6-5.6c-1.1-1.7-3.1-3.9-6.4-3.9c-3,0-42.2,0-42.2,0"/>
		<path class="st5" d="M100.5,323.9h40.9c0,0,2.3-0.2,3.4,1.6c0.9,1.3,2.5,3.5,3.5,7.4s5,26.4,5,26.4s-6.2-3.5-10.1-4.1
			c-5.2-0.8-7.2-0.8-10.3-0.8s-32.4,0-32.4,0"/>
		<path class="st5" d="M156.1,348.6l9.8-0.2c1.4,0,2.5-1.3,2.5-2.8v-2.2c0-1.5-1.1-2.6-2.5-2.6l-9.8,0.2c-1.4,0-2.5,1.2-2.5,2.7v2.2
			C153.5,347.4,154.7,348.6,156.1,348.6z"/>
		<line class="st5" x1="160.5" y1="348.6" x2="156" y2="352.9"/>
		<path class="st5" d="M155.8,348.6c0,0,0.3,0.7,0,1.1s-1.6,0.8-1.9,1.4c-0.2,0.6-0.1,2,0.2,2.6s1.4,2.5,3.4,2.4"/>
		<path class="st5" d="M144,348.2c0,0-2.5-0.2-3.8-1c-1.2-0.8-1.8-2.7-2.1-4.6c-0.2-1.5-0.9-7.2-1.1-8.3c-0.4-1.9-1.9-3.9-4.3-3.9
			c-2,0-3.5,0-3.5,0"/>
		<path class="st5" d="M142.8,346.3c0,0-1.7,0.1-2.3-1.7c-0.6-1.7-0.9-5.7-1.2-7.7s-0.8-4.2-1.9-5.7c-0.9-1.2-2.5-2.2-4.2-2.2
			c-1.1,0-3.7,0-3.7,0"/>
		<path class="st5" d="M145.5,355.7c0,0-3.9-4.5-5.8-4.5c-1.9,0-5,3.1-5,3.1"/>
		<path class="st5" d="M108.4,354.3c1.8-1.5,4.2-3.5,5.2-4.7c1.7-2,3.1-4.3,3.3-6c0.2-1.7,1.2-9,2.1-11c0.9-2.3,3-5,6.4-5s4,0,4,0"
			/>
		<path class="st5" d="M114.6,348.2c0,0,2.5-0.2,3.8-1c1.2-0.8,1.8-2.7,2.1-4.6c0.2-1.5,0.9-7.2,1.1-8.3c0.4-1.9,1.9-3.9,4.3-3.9
			c2,0,3.5,0,3.5,0"/>
		<path class="st5" d="M115.9,346.3c0,0,1.7,0.1,2.3-1.7c0.6-1.7,0.9-5.7,1.2-7.7c0.3-2,0.8-4.2,1.9-5.7c0.9-1.2,2.5-2.2,4.2-2.2
			c1.1,0,3.7,0,3.7,0"/>
		<path class="st5" d="M114.5,354.3c1.3-1.3,3.3-3.1,4.5-3.1c1.9,0,5,3.1,5,3.1"/>
		<path class="st5" d="M100.5,397c0,0,16.8,0.2,19.4,0.6c2.9,0.4,6.8,1.3,8.6,3.9c2.1,3,1.7,9.2,1.6,11.6s-0.7,8.3-2.7,11.4
			c-1.4,2.2-3.1,3-6.3,3.3c-2.4,0.2-15,0.4-20.5,0.4"/>
		<path class="st5" d="M100.5,398.9c0,0,15.6,0,19.5,0.6c2.4,0.4,5.8,1.2,7.2,3.5s1.2,5.8,1.2,8.3s-0.9,8.6-1.6,10.4
			c-1,2.3-2.7,4.2-5.2,4.5s-16.4,0.6-21.1,0.6"/>
		<path class="st5" d="M100.5,400.3h9.7c0,0,2.4-0.1,3.4,1.6c0.9,1.5,0.5,2.9-0.1,4.2c-0.6,1.3-7.7,15.9-8.1,16.5s-1.4,2.1-2.4,2.5
			c-0.9,0.3-1.8,0.5-2.5,0.5"/>
		<path class="st5" d="M124.6,369.9l0.2-3.7c0,0,0-1.3-1.3-1.4c-1.2-0.1-3.2-0.3-5.5-0.5c-3-0.2-5.1-0.3-6.1-0.4
			c-1.2-0.1-1.9,0.1-2,0.9s-0.3,4.1-0.3,4.1"/>
		<path class="st5" d="M107.6,363.8v-1.4c0,0-0.1-0.8-1-0.8s-4.7-0.1-6.1-0.1"/>
		<line class="st5" x1="106.2" y1="363.4" x2="100.5" y2="363.4"/>
		<line class="st5" x1="123.8" y1="366.5" x2="110.8" y2="365.5"/>
		<line class="st5" x1="123.7" y1="368.1" x2="110.6" y2="367.1"/>
		<line class="st5" x1="123.6" y1="369.6" x2="110.6" y2="368.6"/>
		<path class="st5" d="M152.7,356.2c0,0-6.2-23.4-6.9-25.4s-3.3-6.9-6.3-6.9"/>
		<line class="st5" x1="144.5" y1="328" x2="138.2" y2="329.9"/>
		<line class="st5" x1="146.3" y1="332.5" x2="140.3" y2="334.3"/>
		<line class="st5" x1="131.3" y1="323.9" x2="131.3" y2="327.5"/>
		<line class="st5" x1="126.9" y1="323.9" x2="126.9" y2="327.5"/>
		<polyline class="st5" points="118.2,335.1 100.5,340.9 82.7,335.1 		"/>
		<polyline class="st5" points="114,349 100.5,344.6 86.9,349 		"/>
		<polyline class="st5" points="116.5,344.9 110,342.8 117.2,340.4 		"/>
		<polyline class="st5" points="110,342.8 100.5,342.8 90.9,342.8 		"/>
		<path class="st5" d="M91.2,403.7c0,0,0-1.6,1.3-1.6c0.8,0,14.6,0,15.8,0c1.1,0,1.9,0.6,2.6,1.6c0.7,1.1,0.4,3.3-0.3,4.2
			c-0.7,0.9-5.9,6.4-6.5,8.8s-0.7,4.2-0.7,4.2s0.2,1.9-1.3,1.9s-3.3,0-3.3,0s-1.6,0.2-1.6-1.1s0-3.5,0.8-5c0.8-1.6,3.2-4.8,4.5-5.8
			s3.3-2.9,3.5-3.4c0.3-0.4,0.1-0.8-0.6-0.8s-8.6,0-8.6,0s-0.5,0.1-0.5,0.6s0,1.9,0,1.9h-5v-5.5L91.2,403.7L91.2,403.7z"/>
		<path class="st6" d="M27.9,389.4v64.2c0,2-1.6,3.6-3.5,3.6H7c-1.9,0-3.5-1.6-3.5-3.6v-63.3"/>
		<path class="st6" d="M173,389.4v64.2c0,2,1.6,3.6,3.5,3.6H194c1.9,0,3.5-1.6,3.5-3.6v-63.3"/>
		<path class="st6" d="M36.2,436.5l5.5,6.4c0,0,1.6,2.2,3.6,1.2c2-0.9,6.8-4.3,6.8-4.3"/>
		<line class="st6" x1="45.3" y1="444.1" x2="100.5" y2="444.1"/>
		<path class="st6" d="M164.8,436.5l-5.5,6.4c0,0-1.6,2.2-3.6,1.2c-2-0.9-6.8-4.3-6.8-4.3"/>
		<line class="st6" x1="155.6" y1="444.1" x2="100.5" y2="444.1"/>
	</g>
</g>
<g id="Shapes">
</g>
</svg>
