<?xml version="1.0" encoding="utf-8"?>
<!-- Generator: Adobe Illustrator 22.1.0, SVG Export Plug-In . SVG Version: 6.00 Build 0)  -->
<svg version="1.1" id="Layer_1" xmlns="http://www.w3.org/2000/svg" xmlns:xlink="http://www.w3.org/1999/xlink" x="0px" y="0px"
	 viewBox="0 0 580 512" style="enable-background:new 0 0 580 512;" xml:space="preserve">
<style type="text/css">
	.st0{display:none;}
	.st1{display:inline;fill:#404041;}
	.st2{fill:none;stroke:#FFFFFF;stroke-width:0.5;stroke-miterlimit:10;}
	.st3{fill:#FFFFFF;}
	.st4{enable-background:new    ;}
	.st5{fill:none;stroke:#BCBCBC;stroke-miterlimit:10;}
	.st6{fill:none;stroke:#8E8E8E;stroke-miterlimit:10;}
</style>
<g id="Layer_1_1_" class="st0">
</g>
<g id="Background" class="st0">
	<rect class="st1" width="580" height="512"/>
</g>
<g id="Dims">
</g>
<g id="Cars">
	<g>
		<g>
			<line class="st2" x1="478.5" y1="11" x2="478.5" y2="238.1"/>
			<g>
				<rect x="476" y="10.6" class="st3" width="4.9" height="0.8"/>
			</g>
			<g>
				<rect x="476" y="237.7" class="st3" width="4.9" height="0.8"/>
			</g>
		</g>
	</g>
	<g class="st4">
		<path class="st3" d="M498.2,120.9h-0.5l-1.9-6.6c-0.2-0.5-0.3-1-0.4-1.3c-0.1,0.3-0.2,0.7-0.3,1.2s-0.7,2.7-1.9,6.8h-0.5l-2.4-8.6
			h0.6l1.5,5.5c0.1,0.2,0.1,0.4,0.2,0.6s0.1,0.4,0.1,0.5s0.1,0.3,0.1,0.5s0.1,0.3,0.1,0.5c0.1-0.5,0.3-1.3,0.6-2.4l1.5-5.2h0.7
			l1.7,6c0.2,0.7,0.3,1.2,0.4,1.7c0.1-0.3,0.1-0.6,0.2-0.9s0.7-2.6,1.8-6.7h0.6L498.2,120.9z"/>
		<path class="st3" d="M501.8,112.7c0-0.4,0.1-0.6,0.4-0.6c0.1,0,0.2,0,0.3,0.1s0.1,0.2,0.1,0.4c0,0.2,0,0.3-0.1,0.4
			s-0.2,0.2-0.3,0.2C502,113.3,501.8,113.1,501.8,112.7z M502.5,120.9h-0.6v-6.4h0.6V120.9z"/>
		<path class="st3" d="M507,114.4c0.5,0,0.9,0.1,1.2,0.3s0.6,0.5,0.9,0.9h0c0-0.5,0-1,0-1.4v-2.3h0.6v9.1h-0.4l-0.1-1h0
			c-0.5,0.7-1.2,1.1-2.1,1.1c-0.9,0-1.6-0.3-2-0.8s-0.7-1.3-0.7-2.4c0-1.1,0.2-1.9,0.7-2.5S506.1,114.4,507,114.4z M507,114.9
			c-0.7,0-1.2,0.2-1.6,0.7s-0.5,1.2-0.5,2.1c0,1.8,0.7,2.7,2.1,2.7c0.7,0,1.2-0.2,1.6-0.6s0.5-1.1,0.5-2.1v-0.1c0-1-0.2-1.7-0.5-2.1
			S507.7,114.9,507,114.9z"/>
		<path class="st3" d="M513.4,120.5c0.4,0,0.7,0,1-0.1v0.5c-0.3,0.1-0.6,0.1-1,0.1c-0.6,0-1-0.2-1.2-0.5s-0.4-0.8-0.4-1.4V115h-0.9
			v-0.3l0.9-0.3l0.3-1.4h0.3v1.5h1.9v0.5h-1.9v4c0,0.5,0.1,0.8,0.3,1.1S513.1,120.5,513.4,120.5z"/>
		<path class="st3" d="M520.2,120.9v-4.1c0-0.6-0.1-1.1-0.4-1.4s-0.7-0.4-1.3-0.4c-0.8,0-1.3,0.2-1.7,0.6s-0.5,1-0.5,1.9v3.5h-0.6
			v-9.1h0.6v2.9l0,0.8h0c0.2-0.4,0.5-0.7,0.9-0.8s0.8-0.3,1.4-0.3c1.4,0,2.2,0.8,2.2,2.3v4.2H520.2z"/>
	</g>
	<g class="st4">
		<path class="st3" d="M494.1,135.3h-0.6V129c0-0.6,0-1.2,0.1-1.8c-0.1,0.1-0.1,0.1-0.2,0.2s-0.7,0.5-1.8,1.4l-0.3-0.4l2.3-1.7h0.5
			V135.3z"/>
		<path class="st3" d="M497.8,131.6c0-1.1,0.2-2,0.5-2.8s0.7-1.3,1.3-1.7s1.2-0.6,2-0.6c0.4,0,0.7,0,1,0.1v0.5
			c-0.3-0.1-0.6-0.2-1-0.2c-1,0-1.7,0.3-2.3,1s-0.8,1.7-0.9,3h0.1c0.3-0.4,0.6-0.7,1-0.9s0.8-0.3,1.2-0.3c0.8,0,1.4,0.2,1.9,0.7
			s0.7,1.1,0.7,1.9c0,0.9-0.2,1.6-0.7,2.1s-1.1,0.8-1.9,0.8c-0.9,0-1.6-0.3-2.1-1S497.8,132.8,497.8,131.6z M500.6,134.9
			c0.6,0,1.1-0.2,1.5-0.6s0.5-1,0.5-1.7c0-0.7-0.2-1.2-0.5-1.5s-0.8-0.6-1.4-0.6c-0.4,0-0.8,0.1-1.1,0.3s-0.6,0.4-0.8,0.7
			s-0.3,0.6-0.3,0.9c0,0.4,0.1,0.9,0.3,1.3s0.5,0.7,0.8,1S500.2,134.9,500.6,134.9z"/>
		<path class="st3" d="M507.2,126.5c0.7,0,1.3,0.2,1.8,0.6s0.7,0.9,0.7,1.5c0,0.4-0.1,0.8-0.4,1.2s-0.7,0.6-1.3,0.9
			c0.8,0.3,1.3,0.6,1.6,1s0.5,0.8,0.5,1.3c0,0.7-0.2,1.3-0.7,1.7s-1.2,0.6-2,0.6c-0.9,0-1.5-0.2-2-0.6s-0.7-1-0.7-1.7
			c0-0.5,0.2-1,0.5-1.3s0.8-0.7,1.5-1c-0.6-0.3-1.1-0.6-1.3-0.9s-0.4-0.7-0.4-1.2c0-0.4,0.1-0.8,0.3-1.1s0.5-0.5,0.9-0.7
			S506.8,126.5,507.2,126.5z M505.1,133.1c0,0.5,0.2,1,0.5,1.3s0.9,0.4,1.5,0.4c0.6,0,1.2-0.2,1.5-0.5s0.6-0.7,0.6-1.3
			c0-0.5-0.2-0.9-0.5-1.2s-0.9-0.6-1.8-1c-0.7,0.3-1.2,0.6-1.5,0.9S505.1,132.6,505.1,133.1z M507.2,127.1c-0.6,0-1,0.1-1.3,0.4
			s-0.5,0.6-0.5,1.1c0,0.3,0.1,0.5,0.2,0.7s0.3,0.4,0.5,0.6s0.6,0.4,1.2,0.6c0.6-0.2,1.1-0.5,1.4-0.8s0.4-0.7,0.4-1.1
			c0-0.5-0.2-0.8-0.5-1.1S507.8,127.1,507.2,127.1z"/>
		<path class="st3" d="M513.8,130.1c0.9,0,1.6,0.2,2.2,0.7s0.8,1,0.8,1.8c0,0.9-0.3,1.6-0.8,2.1s-1.3,0.7-2.3,0.7
			c-0.4,0-0.8,0-1.2-0.1s-0.7-0.2-1-0.4v-0.6c0.4,0.2,0.8,0.4,1.1,0.4s0.7,0.1,1,0.1c0.8,0,1.4-0.2,1.8-0.6s0.7-0.9,0.7-1.6
			c0-0.6-0.2-1.1-0.7-1.5s-1-0.5-1.8-0.5c-0.5,0-1,0.1-1.6,0.2l-0.4-0.2l0.3-3.9h4.1v0.6h-3.6l-0.3,3
			C513,130.2,513.5,130.1,513.8,130.1z"/>
		<path class="st3" d="M526.6,135.3v-4.2c0-0.6-0.1-1.1-0.4-1.4s-0.6-0.4-1.1-0.4c-0.7,0-1.1,0.2-1.4,0.5s-0.5,0.9-0.5,1.7v3.7h-0.6
			v-4.4c0-1.1-0.5-1.6-1.5-1.6c-0.7,0-1.2,0.2-1.5,0.6s-0.5,1-0.5,1.9v3.5h-0.6v-6.4h0.5l0.1,0.9h0c0.2-0.3,0.4-0.6,0.8-0.7
			s0.7-0.3,1.1-0.3c1,0,1.6,0.4,1.9,1.1h0c0.2-0.4,0.5-0.6,0.8-0.8s0.7-0.3,1.2-0.3c0.7,0,1.2,0.2,1.6,0.6s0.5,1,0.5,1.8v4.2H526.6z
			"/>
		<path class="st3" d="M537.2,135.3v-4.2c0-0.6-0.1-1.1-0.4-1.4s-0.6-0.4-1.1-0.4c-0.7,0-1.1,0.2-1.4,0.5s-0.5,0.9-0.5,1.7v3.7h-0.6
			v-4.4c0-1.1-0.5-1.6-1.5-1.6c-0.7,0-1.2,0.2-1.5,0.6s-0.5,1-0.5,1.9v3.5h-0.6v-6.4h0.5l0.1,0.9h0c0.2-0.3,0.4-0.6,0.8-0.7
			s0.7-0.3,1.1-0.3c1,0,1.6,0.4,1.9,1.1h0c0.2-0.4,0.5-0.6,0.8-0.8s0.7-0.3,1.2-0.3c0.7,0,1.2,0.2,1.6,0.6s0.5,1,0.5,1.8v4.2H537.2z
			"/>
	</g>
	<g class="st4">
		<path class="st3" d="M273.6,422.8H273v-4.2h-5v4.2h-0.6v-8.6h0.6v3.8h5v-3.8h0.6V422.8z"/>
		<path class="st3" d="M278.5,422.9c-0.9,0-1.6-0.3-2.2-0.9s-0.8-1.4-0.8-2.4c0-1,0.2-1.8,0.8-2.4s1.2-0.9,2-0.9
			c0.8,0,1.3,0.3,1.8,0.8s0.7,1.2,0.7,2.1v0.5h-4.6c0,0.9,0.2,1.5,0.6,2s1,0.7,1.7,0.7c0.4,0,0.7,0,1-0.1s0.6-0.2,1-0.3v0.5
			c-0.4,0.2-0.7,0.3-1,0.3S278.9,422.9,278.5,422.9z M278.3,416.8c-0.6,0-1.1,0.2-1.5,0.6s-0.6,1-0.7,1.7h3.9c0-0.7-0.2-1.3-0.5-1.7
			S278.9,416.8,278.3,416.8z"/>
		<path class="st3" d="M282.4,414.7c0-0.4,0.1-0.6,0.4-0.6c0.1,0,0.2,0,0.3,0.1s0.1,0.2,0.1,0.4c0,0.2,0,0.3-0.1,0.4
			s-0.2,0.2-0.3,0.2C282.5,415.2,282.4,415,282.4,414.7z M283.1,422.8h-0.6v-6.4h0.6V422.8z"/>
		<path class="st3" d="M290.2,416.4v0.4l-1.3,0.1c0.4,0.4,0.5,0.9,0.5,1.4c0,0.6-0.2,1.1-0.6,1.5s-1,0.6-1.6,0.6c-0.3,0-0.5,0-0.6,0
			c-0.2,0.1-0.4,0.3-0.5,0.4s-0.2,0.3-0.2,0.5c0,0.2,0.1,0.4,0.2,0.4s0.4,0.1,0.8,0.1h1.1c0.7,0,1.2,0.1,1.6,0.4s0.6,0.7,0.6,1.2
			c0,0.7-0.3,1.2-0.8,1.6s-1.3,0.5-2.3,0.5c-0.8,0-1.4-0.2-1.9-0.5s-0.7-0.7-0.7-1.3c0-0.4,0.1-0.8,0.4-1.1s0.6-0.5,1.1-0.6
			c-0.2-0.1-0.3-0.2-0.5-0.3s-0.2-0.3-0.2-0.5c0-0.4,0.3-0.8,0.8-1.1c-0.4-0.2-0.7-0.4-0.9-0.7s-0.3-0.7-0.3-1.1
			c0-0.6,0.2-1.1,0.6-1.5s1-0.6,1.6-0.6c0.4,0,0.7,0,1,0.1H290.2z M285,423.9c0,0.9,0.7,1.3,2,1.3c1.7,0,2.5-0.5,2.5-1.6
			c0-0.4-0.1-0.7-0.4-0.8s-0.7-0.3-1.3-0.3h-1C285.6,422.5,285,423,285,423.9z M285.5,418.4c0,0.5,0.1,0.9,0.4,1.1s0.7,0.4,1.2,0.4
			c0.5,0,0.9-0.1,1.2-0.4s0.4-0.7,0.4-1.2c0-0.5-0.1-1-0.4-1.2s-0.7-0.4-1.2-0.4c-0.5,0-0.9,0.1-1.2,0.4S285.5,417.9,285.5,418.4z"
			/>
		<path class="st3" d="M295.9,422.8v-4.1c0-0.6-0.1-1.1-0.4-1.4s-0.7-0.4-1.3-0.4c-0.8,0-1.3,0.2-1.7,0.6s-0.5,1-0.5,1.9v3.5h-0.6
			v-9.1h0.6v2.9l0,0.8h0c0.2-0.4,0.5-0.7,0.9-0.8s0.8-0.3,1.4-0.3c1.4,0,2.2,0.8,2.2,2.3v4.2H295.9z"/>
		<path class="st3" d="M300.3,422.4c0.4,0,0.7,0,1-0.1v0.5c-0.3,0.1-0.6,0.1-1,0.1c-0.6,0-1-0.2-1.2-0.5s-0.4-0.8-0.4-1.4v-4.1h-0.9
			v-0.3l0.9-0.3l0.3-1.4h0.3v1.5h1.9v0.5h-1.9v4c0,0.5,0.1,0.8,0.3,1.1S299.9,422.4,300.3,422.4z"/>
	</g>
	<g class="st4">
		<path class="st3" d="M270.2,437.2h-0.6V431c0-0.6,0-1.2,0.1-1.8c-0.1,0.1-0.1,0.1-0.2,0.2s-0.7,0.5-1.8,1.4l-0.3-0.4l2.3-1.7h0.5
			V437.2z"/>
		<path class="st3" d="M277.1,437.2h-0.6V431c0-0.6,0-1.2,0.1-1.8c-0.1,0.1-0.1,0.1-0.2,0.2s-0.7,0.5-1.8,1.4l-0.3-0.4l2.3-1.7h0.5
			V437.2z"/>
		<path class="st3" d="M283.9,437.2h-0.6V431c0-0.6,0-1.2,0.1-1.8c-0.1,0.1-0.1,0.1-0.2,0.2s-0.7,0.5-1.8,1.4l-0.3-0.4l2.3-1.7h0.5
			V437.2z"/>
		<path class="st3" d="M289.9,432.1c0.9,0,1.6,0.2,2.2,0.7s0.8,1,0.8,1.8c0,0.9-0.3,1.6-0.8,2.1s-1.3,0.7-2.3,0.7
			c-0.4,0-0.8,0-1.2-0.1s-0.7-0.2-1-0.4v-0.6c0.4,0.2,0.8,0.4,1.1,0.4s0.7,0.1,1,0.1c0.8,0,1.4-0.2,1.8-0.6s0.7-0.9,0.7-1.6
			c0-0.6-0.2-1.1-0.7-1.5s-1-0.5-1.8-0.5c-0.5,0-1,0.1-1.6,0.2l-0.4-0.2l0.3-3.9h4.1v0.6h-3.6l-0.3,3
			C289.1,432.1,289.6,432.1,289.9,432.1z"/>
		<path class="st3" d="M302.6,437.2V433c0-0.6-0.1-1.1-0.4-1.4s-0.6-0.4-1.1-0.4c-0.7,0-1.1,0.2-1.4,0.5s-0.5,0.9-0.5,1.7v3.7h-0.6
			v-4.4c0-1.1-0.5-1.6-1.5-1.6c-0.7,0-1.2,0.2-1.5,0.6s-0.5,1-0.5,1.9v3.5h-0.6v-6.4h0.5l0.1,0.9h0c0.2-0.3,0.4-0.6,0.8-0.7
			s0.7-0.3,1.1-0.3c1,0,1.6,0.4,1.9,1.1h0c0.2-0.4,0.5-0.6,0.8-0.8s0.7-0.3,1.2-0.3c0.7,0,1.2,0.2,1.6,0.6s0.5,1,0.5,1.8v4.2H302.6z
			"/>
		<path class="st3" d="M313.2,437.2V433c0-0.6-0.1-1.1-0.4-1.4s-0.6-0.4-1.1-0.4c-0.7,0-1.1,0.2-1.4,0.5s-0.5,0.9-0.5,1.7v3.7h-0.6
			v-4.4c0-1.1-0.5-1.6-1.5-1.6c-0.7,0-1.2,0.2-1.5,0.6s-0.5,1-0.5,1.9v3.5h-0.6v-6.4h0.5l0.1,0.9h0c0.2-0.3,0.4-0.6,0.8-0.7
			s0.7-0.3,1.1-0.3c1,0,1.6,0.4,1.9,1.1h0c0.2-0.4,0.5-0.6,0.8-0.8s0.7-0.3,1.2-0.3c0.7,0,1.2,0.2,1.6,0.6s0.5,1,0.5,1.8v4.2H313.2z
			"/>
	</g>
	<g>
		<g>
			<line class="st2" x1="254" y1="355.2" x2="254" y2="497.8"/>
			<g>
				<rect x="251.6" y="354.8" class="st3" width="4.9" height="0.8"/>
			</g>
			<g>
				<rect x="251.6" y="497.4" class="st3" width="4.9" height="0.8"/>
			</g>
		</g>
	</g>
	<g>
		<g>
			<line class="st2" x1="454.3" y1="263.5" x2="3.2" y2="263.5"/>
			<g>
				<rect x="453.9" y="261.1" class="st3" width="0.8" height="4.9"/>
			</g>
			<g>
				<rect x="2.8" y="261.1" class="st3" width="0.8" height="4.9"/>
			</g>
		</g>
	</g>
	<g class="st4">
		<path class="st3" d="M202.7,286.9v-8.6h0.6v8h4.1v0.6H202.7z"/>
		<path class="st3" d="M211.3,287c-0.9,0-1.6-0.3-2.2-0.9s-0.8-1.4-0.8-2.4c0-1,0.2-1.8,0.8-2.4s1.2-0.9,2-0.9
			c0.8,0,1.3,0.3,1.8,0.8s0.7,1.2,0.7,2.1v0.5H209c0,0.9,0.2,1.5,0.6,2s1,0.7,1.7,0.7c0.4,0,0.7,0,1-0.1s0.6-0.2,1-0.3v0.5
			c-0.4,0.2-0.7,0.3-1,0.3S211.7,287,211.3,287z M211.1,280.9c-0.6,0-1.1,0.2-1.5,0.6s-0.6,1-0.7,1.7h3.9c0-0.7-0.2-1.3-0.5-1.7
			S211.7,280.9,211.1,280.9z"/>
		<path class="st3" d="M219.8,286.9v-4.1c0-0.6-0.1-1.1-0.4-1.4s-0.7-0.4-1.3-0.4c-0.8,0-1.3,0.2-1.7,0.6s-0.5,1-0.5,1.9v3.5h-0.6
			v-6.4h0.5l0.1,0.9h0c0.4-0.7,1.2-1,2.2-1c1.4,0,2.2,0.8,2.2,2.3v4.2H219.8z"/>
		<path class="st3" d="M227.4,280.5v0.4L226,281c0.4,0.4,0.5,0.9,0.5,1.4c0,0.6-0.2,1.1-0.6,1.5s-1,0.6-1.6,0.6c-0.3,0-0.5,0-0.6,0
			c-0.2,0.1-0.4,0.3-0.5,0.4s-0.2,0.3-0.2,0.5c0,0.2,0.1,0.4,0.2,0.4s0.4,0.1,0.8,0.1h1.1c0.7,0,1.2,0.1,1.6,0.4s0.6,0.7,0.6,1.2
			c0,0.7-0.3,1.2-0.8,1.6s-1.3,0.5-2.3,0.5c-0.8,0-1.4-0.2-1.9-0.5s-0.7-0.7-0.7-1.3c0-0.4,0.1-0.8,0.4-1.1s0.6-0.5,1.1-0.6
			c-0.2-0.1-0.3-0.2-0.5-0.3s-0.2-0.3-0.2-0.5c0-0.4,0.3-0.8,0.8-1.1c-0.4-0.2-0.7-0.4-0.9-0.7s-0.3-0.7-0.3-1.1
			c0-0.6,0.2-1.1,0.6-1.5s1-0.6,1.6-0.6c0.4,0,0.7,0,1,0.1H227.4z M222.2,288c0,0.9,0.7,1.3,2,1.3c1.7,0,2.5-0.5,2.5-1.6
			c0-0.4-0.1-0.7-0.4-0.8s-0.7-0.3-1.3-0.3h-1C222.8,286.6,222.2,287.1,222.2,288z M222.7,282.5c0,0.5,0.1,0.9,0.4,1.1
			s0.7,0.4,1.2,0.4c0.5,0,0.9-0.1,1.2-0.4s0.4-0.7,0.4-1.2c0-0.5-0.1-1-0.4-1.2s-0.7-0.4-1.2-0.4c-0.5,0-0.9,0.1-1.2,0.4
			S222.7,282,222.7,282.5z"/>
		<path class="st3" d="M230.3,286.5c0.4,0,0.7,0,1-0.1v0.5c-0.3,0.1-0.6,0.1-1,0.1c-0.6,0-1-0.2-1.2-0.5s-0.4-0.8-0.4-1.4V281h-0.9
			v-0.3l0.9-0.3l0.3-1.4h0.3v1.5h1.9v0.5h-1.9v4c0,0.5,0.1,0.8,0.3,1.1S230,286.5,230.3,286.5z"/>
		<path class="st3" d="M237.1,286.9v-4.1c0-0.6-0.1-1.1-0.4-1.4s-0.7-0.4-1.3-0.4c-0.8,0-1.3,0.2-1.7,0.6s-0.5,1-0.5,1.9v3.5h-0.6
			v-9.1h0.6v2.9l0,0.8h0c0.2-0.4,0.5-0.7,0.9-0.8s0.8-0.3,1.4-0.3c1.4,0,2.2,0.8,2.2,2.3v4.2H237.1z"/>
		<path class="st3" d="M247.5,280.3c0,0.5-0.2,1-0.5,1.3s-0.8,0.6-1.3,0.7v0c0.7,0.1,1.2,0.3,1.6,0.7s0.5,0.8,0.5,1.4
			c0,0.8-0.3,1.4-0.8,1.9s-1.3,0.7-2.4,0.7c-0.9,0-1.6-0.2-2.3-0.5v-0.6c0.3,0.2,0.7,0.3,1.1,0.4s0.8,0.1,1.2,0.1
			c0.9,0,1.5-0.2,1.9-0.5s0.7-0.8,0.7-1.5c0-0.6-0.2-1-0.7-1.3s-1.1-0.5-2-0.5h-0.9v-0.6h0.9c0.7,0,1.3-0.2,1.7-0.5s0.6-0.8,0.6-1.4
			c0-0.5-0.2-0.9-0.5-1.1s-0.8-0.4-1.3-0.4c-0.4,0-0.8,0.1-1.2,0.2s-0.7,0.3-1.2,0.6l-0.3-0.4c0.3-0.3,0.7-0.5,1.2-0.7
			s0.9-0.2,1.4-0.2c0.8,0,1.4,0.2,1.8,0.6S247.5,279.7,247.5,280.3z"/>
		<path class="st3" d="M254.4,280.3c0,0.5-0.2,1-0.5,1.3s-0.8,0.6-1.3,0.7v0c0.7,0.1,1.2,0.3,1.6,0.7s0.5,0.8,0.5,1.4
			c0,0.8-0.3,1.4-0.8,1.9s-1.3,0.7-2.4,0.7c-0.9,0-1.6-0.2-2.3-0.5v-0.6c0.3,0.2,0.7,0.3,1.1,0.4s0.8,0.1,1.2,0.1
			c0.9,0,1.5-0.2,1.9-0.5s0.7-0.8,0.7-1.5c0-0.6-0.2-1-0.7-1.3s-1.1-0.5-2-0.5h-0.9v-0.6h0.9c0.7,0,1.3-0.2,1.7-0.5s0.6-0.8,0.6-1.4
			c0-0.5-0.2-0.9-0.5-1.1s-0.8-0.4-1.3-0.4c-0.4,0-0.8,0.1-1.2,0.2s-0.7,0.3-1.2,0.6l-0.3-0.4c0.3-0.3,0.7-0.5,1.2-0.7
			s0.9-0.2,1.4-0.2c0.8,0,1.4,0.2,1.8,0.6S254.4,279.7,254.4,280.3z"/>
		<path class="st3" d="M258.7,281.7c0.9,0,1.6,0.2,2.2,0.7s0.8,1,0.8,1.8c0,0.9-0.3,1.6-0.8,2.1s-1.3,0.7-2.3,0.7
			c-0.4,0-0.8,0-1.2-0.1s-0.7-0.2-1-0.4v-0.6c0.4,0.2,0.8,0.4,1.1,0.4s0.7,0.1,1,0.1c0.8,0,1.4-0.2,1.8-0.6s0.7-0.9,0.7-1.6
			c0-0.6-0.2-1.1-0.7-1.5s-1-0.5-1.8-0.5c-0.5,0-1,0.1-1.6,0.2l-0.4-0.2l0.3-3.9h4.1v0.6h-3.6l-0.3,3
			C257.8,281.8,258.3,281.7,258.7,281.7z"/>
		<path class="st3" d="M268.5,282.6c0,1.5-0.2,2.6-0.7,3.3s-1.2,1.1-2.1,1.1c-0.9,0-1.6-0.4-2-1.1s-0.7-1.8-0.7-3.3
			c0-1.5,0.2-2.6,0.7-3.3s1.1-1.1,2.1-1.1c0.9,0,1.6,0.4,2.1,1.1S268.5,281.1,268.5,282.6z M263.7,282.6c0,1.3,0.2,2.3,0.5,2.9
			s0.9,1,1.6,1c0.7,0,1.3-0.3,1.6-1s0.5-1.6,0.5-2.9c0-1.3-0.2-2.2-0.5-2.9s-0.9-1-1.6-1s-1.3,0.3-1.6,1S263.7,281.3,263.7,282.6z"
			/>
		<path class="st3" d="M278.2,286.9v-4.2c0-0.6-0.1-1.1-0.4-1.4s-0.6-0.4-1.1-0.4c-0.7,0-1.1,0.2-1.4,0.5s-0.5,0.9-0.5,1.7v3.7h-0.6
			v-4.4c0-1.1-0.5-1.6-1.5-1.6c-0.7,0-1.2,0.2-1.5,0.6s-0.5,1-0.5,1.9v3.5h-0.6v-6.4h0.5l0.1,0.9h0c0.2-0.3,0.4-0.6,0.8-0.7
			s0.7-0.3,1.1-0.3c1,0,1.6,0.4,1.9,1.1h0c0.2-0.4,0.5-0.6,0.8-0.8s0.7-0.3,1.2-0.3c0.7,0,1.2,0.2,1.6,0.6s0.5,1,0.5,1.8v4.2H278.2z
			"/>
		<path class="st3" d="M288.8,286.9v-4.2c0-0.6-0.1-1.1-0.4-1.4s-0.6-0.4-1.1-0.4c-0.7,0-1.1,0.2-1.4,0.5s-0.5,0.9-0.5,1.7v3.7h-0.6
			v-4.4c0-1.1-0.5-1.6-1.5-1.6c-0.7,0-1.2,0.2-1.5,0.6s-0.5,1-0.5,1.9v3.5h-0.6v-6.4h0.5l0.1,0.9h0c0.2-0.3,0.4-0.6,0.8-0.7
			s0.7-0.3,1.1-0.3c1,0,1.6,0.4,1.9,1.1h0c0.2-0.4,0.5-0.6,0.8-0.8s0.7-0.3,1.2-0.3c0.7,0,1.2,0.2,1.6,0.6s0.5,1,0.5,1.8v4.2H288.8z
			"/>
	</g>
	<g>
		<path class="st5" d="M39.5,229.2H29.2c-2.8,0-5-2.2-5-4.8v-17.1c0-2.6,2.2-4.8,5-4.8h10"/>
		<rect x="24.2" y="212.5" class="st5" width="11.6" height="2.2"/>
		<rect x="24.2" y="216.2" class="st5" width="11.6" height="2.2"/>
		<polyline class="st5" points="71.3,170.5 71.3,200.6 67.9,200.6 67.9,170.1 		"/>
		<path class="st5" d="M27.1,185.3c6.6,0,11.9-5,11.9-11.1s-5.3-11.1-11.9-11.1h-2.8c0,0-1.1,0-1.1,1.8c0,2,0,19.3,0,19.3
			s0,1.1,1.2,1.1C25.4,185.3,27.1,185.3,27.1,185.3z"/>
		<line class="st5" x1="27.1" y1="163.2" x2="27.1" y2="185.3"/>
		<ellipse class="st5" cx="62.7" cy="192.5" rx="3.6" ry="3.5"/>
		<ellipse class="st5" cx="62.2" cy="173.1" rx="4.1" ry="3.9"/>
		<polyline class="st5" points="64.2,195.8 64.2,200.6 61.3,200.6 61.3,195.8 		"/>
		<line class="st5" x1="66.3" y1="186.2" x2="66.3" y2="173.1"/>
		<line class="st5" x1="66.3" y1="192.5" x2="66.3" y2="189.8"/>
		<rect x="60.8" y="170.7" class="st5" width="2.8" height="3.2"/>
		<line class="st5" x1="38.9" y1="172.9" x2="61.4" y2="200.5"/>
		<line class="st5" x1="57.1" y1="200.5" x2="38.5" y2="177.6"/>
		<polyline class="st5" points="68,191.3 44.6,170.4 46.5,168.5 68,187.7 		"/>
		<line class="st5" x1="58.4" y1="179.1" x2="58.1" y2="173.1"/>
		<line class="st5" x1="59.1" y1="192.5" x2="58.6" y2="182.8"/>
		<line class="st5" x1="59" y1="190.7" x2="38.5" y2="171.2"/>
		<polyline class="st5" points="38.1,169.9 39.1,169 58.7,187.8 		"/>
		<polygon class="st5" points="42.7,172.4 41.1,171 45.5,166.4 48.1,166.8 		"/>
		<path class="st6" d="M2.8,124.5c0,0,0.4,15,0.9,18.6s4.6,14,10.5,15.4s214.1,31.3,214.1,31.3"/>
		<path class="st6" d="M29.3,160.9c0,0,3,3.6,9.6,4.6s39.3,6.2,39.3,6.2l151.2,22.2c0,0,4.5,0.6,10.4,1.1"/>
		<polyline class="st5" points="78.2,171.6 76.2,200.6 72.9,200.6 74.9,171.1 		"/>
		<line class="st5" x1="78.2" y1="168.1" x2="78.2" y2="124.5"/>
		<line class="st5" x1="218.1" y1="188.3" x2="218.1" y2="124.5"/>
		<path class="st6" d="M246.5,195.9c0,0,7.3,1.5,19.6,1.5c12.2,0,65.6,1.2,65.6,1.2l4.3,33.8c0,0,0.6,5.5,4.9,5.5
			c4.4,0,98.4,0,98.4,0s6.9,0.4,7.3-7.5s1-32.3,1-32.3s6.9-2.3,7-10.2s0-63.3,0-63.3"/>
		<path class="st5" d="M328.1,192.7l-68.9-2.7v4.3c0,0,5.3,1.2,12.8,1.5c7.5,0.4,56.1,2.7,56.1,2.7V192.7c8.2-2.2,46.8-2.7,46.8-2.7
			v5.8c-39,0-43.3,2.8-43.3,2.8"/>
		<path class="st5" d="M259.2,194.3c0,0-10.5-2.1-11.7-11.4l2.4-1.6l9.3,8.8"/>
		<path class="st5" d="M232,124.5v59.4l-5.2,7.1c0,0,6.8,1.7,12.2,2.2c0,0-1.1-4.7-0.6-5.5s7.9-3.5,7.9-3.5v19.4c0,0-3.1-0.5-6-7.4
			c0,0-0.8-1.5-1.3-3"/>
		<path class="st5" d="M226.8,191c0,0,20.5-8.9,22.4-10.7c1.8-1.8,3.3-2.3,3.3-7c0-4.6,0-48.8,0-48.8"/>
		<path class="st5" d="M250.1,124.5V174c0,0-0.4,3.1-2.6,4.5c-2.3,1.3-10.9,4.5-10.9,4.5s-2.5,0.2-2.5-3.7s0-54.8,0-54.8"/>
		<path class="st5" d="M346.4,196.5l0.9,31.9c0,0,0.7,3.1-3.3,3.1s-8.1,0-8.1,0"/>
		<rect x="433" y="201.9" class="st5" width="10.6" height="27.2"/>
		<line class="st5" x1="438.3" y1="202.3" x2="438.3" y2="229.2"/>
		<ellipse class="st5" cx="47.3" cy="124.5" rx="4.1" ry="4"/>
		<polygon class="st5" points="93.1,151.4 95.1,151.7 95.1,135.4 93.1,135.7 		"/>
		<polygon class="st5" points="97.3,151.4 99.3,151.7 99.3,135.4 97.3,135.7 		"/>
		<polygon class="st5" points="101.4,151.4 103.4,151.7 103.4,135.4 101.4,135.7 		"/>
		<polygon class="st5" points="105.6,151.4 107.6,151.7 107.6,135.4 105.6,135.7 		"/>
		<polygon class="st5" points="109.7,151.4 111.7,151.7 111.7,135.4 109.7,135.7 		"/>
		<polygon class="st5" points="113.8,151.4 115.9,151.7 115.9,135.4 113.8,135.7 		"/>
		<polygon class="st5" points="118,151.4 120,151.7 120,135.4 118,135.7 		"/>
		<polygon class="st5" points="123.6,151.4 125.6,151.7 125.6,135.4 123.6,135.7 		"/>
		<polygon class="st5" points="127.7,151.4 129.7,151.7 129.7,135.4 127.7,135.7 		"/>
		<polygon class="st5" points="131.9,151.4 133.9,151.7 133.9,135.4 131.9,135.7 		"/>
		<polygon class="st5" points="136,151.4 138,151.7 138,135.4 136,135.7 		"/>
		<polygon class="st5" points="140.1,151.4 142.2,151.7 142.2,135.4 140.1,135.7 		"/>
		<polygon class="st5" points="144.3,151.4 146.3,151.7 146.3,135.4 144.3,135.7 		"/>
		<polygon class="st5" points="150,151.4 152,151.7 152,135.4 150,135.7 		"/>
		<polygon class="st5" points="154.1,151.4 156.2,151.7 156.2,135.4 154.1,135.7 		"/>
		<polygon class="st5" points="158.3,151.4 160.3,151.7 160.3,135.4 158.3,135.7 		"/>
		<polygon class="st5" points="162.4,151.4 164.5,151.7 164.5,135.4 162.4,135.7 		"/>
		<polygon class="st5" points="166.6,151.4 168.6,151.7 168.6,135.4 166.6,135.7 		"/>
		<polygon class="st5" points="170.7,151.4 172.7,151.7 172.7,135.4 170.7,135.7 		"/>
		<polygon class="st5" points="174.9,151.4 176.9,151.7 176.9,135.4 174.9,135.7 		"/>
		<polygon class="st5" points="195.7,132.4 197.8,132.7 197.8,116.4 195.7,116.7 		"/>
		<polygon class="st5" points="199.9,132.4 201.9,132.7 201.9,116.4 199.9,116.7 		"/>
		<polygon class="st5" points="204,132.4 206.1,132.7 206.1,116.4 204,116.7 		"/>
		<polygon class="st5" points="208.2,132.4 210.2,132.7 210.2,116.4 208.2,116.7 		"/>
		<polygon class="st5" points="212.3,132.4 214.3,132.7 214.3,116.4 212.3,116.7 		"/>
		<g>
			<path class="st5" d="M261.8,178.8c0,0,53.8-9.9,96,4.3"/>
			<path class="st5" d="M263.7,182.7c0,0,35.4-4.7,43-4.8s9.2-4.1,10-5.8s2.2-5.3,5.8-5.3s39,0,39,0s4.1-0.2,4.1,3s-1,13.9-2.8,15.3
				s-6.8,1.5-11.3,1s-20.9-2.4-26.2-3c-5.4-0.6-19-1.8-30.8,0c-9.9,1.5-21.4,0.9-27.7-0.9"/>
			<path class="st5" d="M376.5,161.7c0,0,0-7,0-10.6s-3.4-3.7-5.1-4.6c-1.7-0.9-2.6-3.7-3.5-5.6c-0.9-1.9-2-5.4-8.4-5.7
				s-27.4,1.9-35.4,2.9c-7.6,0.9-18.3,0.7-23.9,0.1c-5.6-0.5-19.3-2-28.2-1.5s-10.3,7.9-10.3,7.9v17.1v17.1c0,0,1.5,7.4,10.3,7.9
				s22.6-1,28.2-1.5s16.3-0.8,23.9,0.1c8,1,29.1,3.1,35.4,2.9c6.4-0.3,7.5-3.8,8.4-5.7s1.8-4.6,3.5-5.6c1.7-0.9,5.1-1.1,5.1-4.6
				C376.5,168.7,376.5,161.7,376.5,161.7z"/>
			<path class="st5" d="M261.8,144.7c0,0,53.8,9.9,96-4.3"/>
			<path class="st5" d="M263.7,140.8c0,0,35.4,4.7,43,4.8s9.2,4.1,10,5.8s2.2,5.3,5.8,5.3s39,0,39,0s4.1,0.2,4.1-3s-1-13.9-2.8-15.3
				s-6.8-1.5-11.3-1s-20.9,2.4-26.2,3c-5.4,0.6-19,1.8-30.8,0c-9.9-1.5-21.4-0.9-27.7,0.9"/>
			<path class="st5" d="M367.3,149l5.1,0.8c1.4,2.5,1.7,11.9,1.7,11.9s-0.3,9.4-1.7,11.9l-5.1,0.8"/>
			<path class="st5" d="M362.9,138.4c5.6,4.1,5.6,23.4,5.6,23.4s0,19.2-5.6,23.4"/>
		</g>
		<path class="st5" d="M282.1,161.7c0.1,2.3,3,4.6,4.1,5.3c1.1,0.6,2.3-1,2.3-1v-4.3v-4.3c0,0-1.2-1.6-2.3-1
			C285.1,157.1,282.2,159.4,282.1,161.7z"/>
		<path class="st5" d="M252.5,136c0,0,28.4-0.4,35.9,0s25.7,0.5,36.2,0s28.9-3.3,41-2v-9.5"/>
		<path class="st5" d="M349.6,134c0,0,1.7-6.4,1.7-9.5"/>
		<path class="st5" d="M337.3,135c0,0,2.6-5.3,2.6-10.5"/>
		<path class="st5" d="M324.6,136c0,0,3.3-4,3.3-11.5"/>
		<path class="st5" d="M314.1,136.4c0,0,2.8-5.8,2.8-11.9"/>
		<path class="st5" d="M303,136.4c0,0,4.7-4.9,4.7-11.9"/>
		<path class="st5" d="M252.5,135c0,0,5.6-1.3,15.2-1.5c9.5-0.3,26.8-0.1,29.2-0.4c2.5-0.3,5.3-0.5,6.1-3.8c0.8-3.3,0.9-4.7,0.9-4.7
			"/>
		<path class="st5" d="M301.8,124.5c0,0,0.2,3.5-0.8,4.4c-0.9,0.9-2.4,0.9-3.4,0c-1-0.9-1.7-2-1.7-4.4"/>
		<polyline class="st5" points="295.9,127.1 282.1,127.1 282.1,124.5 		"/>
		<polyline class="st5" points="282.1,125.8 280,125.8 280,124.5 		"/>
		<path class="st5" d="M299.6,132.7c0,0-4.6-2.5-8-3.1c-3.4-0.5-12.5-0.8-14.3-0.4c-1.9,0.4-4.1,2.2-5.9,4.1"/>
		<path class="st5" d="M267.7,133.5c0,0,3.1-1.7,3.1-8.9"/>
		<ellipse class="st5" cx="258.7" cy="124.5" rx="3" ry="2.9"/>
		<path class="st5" d="M447.6,197.8c0,0-66.1,0-68.4,0s-4.3-2.1-4.3-2.1"/>
		<path class="st5" d="M374.9,195.7h51c0,0,14.2,0.3,14.2-16.4s0-54.8,0-54.8"/>
		<polyline class="st5" points="381,183.1 374.9,190 384.4,189.4 		"/>
		<path class="st5" d="M383.9,124.5c0,0,0,35.5,0,39.7s1.8,9.5,1.8,9.5l3.9,8.8c0.8,0.8,1.3,1.8,1.3,3c0,2.3-2,4.2-4.4,4.2
			c-2,0-3.7-1.3-4.2-3.1l-5.8-15.9"/>
		<line class="st5" x1="376.5" y1="151.2" x2="376.5" y2="124.5"/>
		<path class="st5" d="M383.9,153.5l39.2,4.1c0.3,0.1,0.7,0,1.1,0c1.7,0,2.5-1,2.5-2.3s-0.8-2.4-2.5-2.4l-40.3-4.1"/>
		<path class="st5" d="M39.5,19.8H29.2c-2.8,0-5,2.2-5,4.8v17.1c0,2.6,2.2,4.8,5,4.8h10"/>
		<rect x="24.2" y="34.4" class="st5" width="11.6" height="2.2"/>
		<rect x="24.2" y="30.6" class="st5" width="11.6" height="2.2"/>
		<polyline class="st5" points="71.3,78.5 71.3,48.5 67.9,48.5 67.9,79 		"/>
		<path class="st5" d="M27.1,63.7c6.6,0,11.9,5,11.9,11.1c0,6.1-5.3,11.1-11.9,11.1h-2.8c0,0-1.1,0-1.1-1.8c0-2,0-19.3,0-19.3
			s0-1.1,1.2-1.1C25.4,63.7,27.1,63.7,27.1,63.7z"/>
		<line class="st5" x1="27.1" y1="85.8" x2="27.1" y2="63.7"/>
		<ellipse class="st5" cx="62.7" cy="56.5" rx="3.6" ry="3.5"/>
		<ellipse class="st5" cx="62.2" cy="75.9" rx="4.1" ry="3.9"/>
		<polyline class="st5" points="64.2,53.3 64.2,48.5 61.3,48.5 61.3,53.3 		"/>
		<line class="st5" x1="66.3" y1="62.9" x2="66.3" y2="75.9"/>
		<line class="st5" x1="66.3" y1="56.5" x2="66.3" y2="59.3"/>
		<rect x="60.8" y="75.2" class="st5" width="2.8" height="3.2"/>
		<line class="st5" x1="38.9" y1="76.2" x2="61.4" y2="48.6"/>
		<line class="st5" x1="57.1" y1="48.6" x2="38.5" y2="71.4"/>
		<polyline class="st5" points="68,57.7 44.6,78.7 46.5,80.6 68,61.4 		"/>
		<line class="st5" x1="58.4" y1="70" x2="58.1" y2="75.9"/>
		<line class="st5" x1="59.1" y1="56.5" x2="58.6" y2="66.2"/>
		<line class="st5" x1="59" y1="58.3" x2="38.5" y2="77.9"/>
		<polyline class="st5" points="38.1,79.2 39.1,80.1 58.7,61.3 		"/>
		<polygon class="st5" points="42.7,76.7 41.1,78.1 45.5,82.6 48.1,82.2 		"/>
		<path class="st6" d="M2.8,124.5c0,0,0.4-15,0.9-18.6s4.6-14,10.5-15.4s214.1-31.3,214.1-31.3"/>
		<path class="st6" d="M29.3,88.2c0,0,3-3.6,9.6-4.6s39.3-6.2,39.3-6.2l151.2-22.2c0,0,4.5-0.6,10.4-1.1"/>
		<polyline class="st5" points="78.2,77.4 76.2,48.5 72.9,48.5 74.9,78 		"/>
		<line class="st5" x1="78.2" y1="81" x2="78.2" y2="124.5"/>
		<line class="st5" x1="218.1" y1="60.7" x2="218.1" y2="124.5"/>
		<path class="st6" d="M246.5,53.2c0,0,7.3-1.5,19.6-1.5c12.2,0,65.6-1.2,65.6-1.2l4.3-33.8c0,0,0.6-5.5,4.9-5.5
			c4.4,0,98.4,0,98.4,0s6.9-0.4,7.3,7.5s1,32.3,1,32.3s6.9,2.3,7,10.2s0,63.3,0,63.3"/>
		<path class="st5" d="M328.1,56.4l-68.9,2.7v-4.3c0,0,5.3-1.2,12.8-1.5c7.5-0.4,56.1-2.7,56.1-2.7V56.4c8.2,2.2,46.8,2.7,46.8,2.7
			v-5.8c-39,0-43.3-2.8-43.3-2.8"/>
		<path class="st5" d="M259.2,54.8c0,0-10.5,2.1-11.7,11.4l2.4,1.6l9.3-8.8"/>
		<path class="st5" d="M232,124.5V65.1l-5.2-7.1c0,0,6.8-1.7,12.2-2.2c0,0-1.1,4.7-0.6,5.5s7.9,3.5,7.9,3.5V45.4c0,0-3.1,0.5-6,7.4
			c0,0-0.8,1.5-1.3,3"/>
		<path class="st5" d="M226.8,58.1c0,0,20.5,8.9,22.4,10.7c1.8,1.8,3.3,2.3,3.3,7s0,48.8,0,48.8"/>
		<path class="st5" d="M250.1,124.5V75c0,0-0.4-3.1-2.6-4.5c-2.3-1.3-10.9-4.5-10.9-4.5s-2.5-0.2-2.5,3.7c0,3.9,0,54.8,0,54.8"/>
		<path class="st5" d="M346.4,52.6l0.9-31.9c0,0,0.7-3.1-3.3-3.1s-8.1,0-8.1,0"/>
		<rect x="433" y="19.9" class="st5" width="10.6" height="27.2"/>
		<line class="st5" x1="438.3" y1="46.8" x2="438.3" y2="19.9"/>
		<polygon class="st5" points="93.1,97.7 95.1,97.4 95.1,113.7 93.1,113.4 		"/>
		<polygon class="st5" points="97.3,97.7 99.3,97.4 99.3,113.7 97.3,113.4 		"/>
		<polygon class="st5" points="101.4,97.7 103.4,97.4 103.4,113.7 101.4,113.4 		"/>
		<polygon class="st5" points="105.6,97.7 107.6,97.4 107.6,113.7 105.6,113.4 		"/>
		<polygon class="st5" points="109.7,97.7 111.7,97.4 111.7,113.7 109.7,113.4 		"/>
		<polygon class="st5" points="113.8,97.7 115.9,97.4 115.9,113.7 113.8,113.4 		"/>
		<polygon class="st5" points="118,97.7 120,97.4 120,113.7 118,113.4 		"/>
		<polygon class="st5" points="123.6,97.7 125.6,97.4 125.6,113.7 123.6,113.4 		"/>
		<polygon class="st5" points="127.7,97.7 129.7,97.4 129.7,113.7 127.7,113.4 		"/>
		<polygon class="st5" points="131.9,97.7 133.9,97.4 133.9,113.7 131.9,113.4 		"/>
		<polygon class="st5" points="136,97.7 138,97.4 138,113.7 136,113.4 		"/>
		<polygon class="st5" points="140.1,97.7 142.2,97.4 142.2,113.7 140.1,113.4 		"/>
		<polygon class="st5" points="144.3,97.7 146.3,97.4 146.3,113.7 144.3,113.4 		"/>
		<polygon class="st5" points="150,97.7 152,97.4 152,113.7 150,113.4 		"/>
		<polygon class="st5" points="154.1,97.7 156.2,97.4 156.2,113.7 154.1,113.4 		"/>
		<polygon class="st5" points="158.3,97.7 160.3,97.4 160.3,113.7 158.3,113.4 		"/>
		<polygon class="st5" points="162.4,97.7 164.5,97.4 164.5,113.7 162.4,113.4 		"/>
		<polygon class="st5" points="166.6,97.7 168.6,97.4 168.6,113.7 166.6,113.4 		"/>
		<polygon class="st5" points="170.7,97.7 172.7,97.4 172.7,113.7 170.7,113.4 		"/>
		<polygon class="st5" points="174.9,97.7 176.9,97.4 176.9,113.7 174.9,113.4 		"/>
		<g>
			<path class="st5" d="M261.8,70.3c0,0,53.8,9.9,96-4.3"/>
			<path class="st5" d="M263.7,66.4c0,0,35.4,4.7,43,4.8s9.2,4.1,10,5.8s2.2,5.3,5.8,5.3s39,0,39,0s4.1,0.2,4.1-3s-1-13.9-2.8-15.3
				c-1.7-1.4-6.8-1.5-11.3-1s-20.9,2.4-26.2,3c-5.4,0.6-19,1.8-30.8,0c-9.9-1.5-21.4-0.9-27.7,0.9"/>
			<path class="st5" d="M261.8,74.3v-4.1c0,0,1.5-7.4,10.3-7.9s22.6,1,28.2,1.5s16.3,0.8,23.9-0.1c8-1,29.1-3.1,35.4-2.9
				c6.4,0.3,7.5,3.8,8.4,5.7s1.8,4.6,3.5,5.6c1.7,0.9,5.1,1.1,5.1,4.6c0,3.6,0,10.6,0,10.6s0,7,0,10.6s-3.4,3.7-5.1,4.6
				s-2.6,3.7-3.5,5.6s-2,5.4-8.4,5.7c-6.4,0.3-27.4-1.9-35.4-2.9c-7.6-0.9-18.3-0.7-23.9-0.1c-5.6,0.5-19.3,2-28.2,1.5
				c-5.5-0.3-8.2-3.3-9.4-5.5"/>
			<path class="st5" d="M267,103.6c14.5-2.1,56.5-6.4,90.8,5.2"/>
			<path class="st5" d="M263.7,108.3c0,0,35.4-4.7,43-4.8c7.6-0.1,9.2-4.1,10-5.8c0.8-1.7,2.2-5.3,5.8-5.3s39,0,39,0s4.1-0.2,4.1,3
				s-1,13.9-2.8,15.3s-6.8,1.5-11.3,1s-20.9-2.4-26.2-3c-5.4-0.6-19-1.8-30.8,0c-9.9,1.5-21.4,0.9-27.7-0.9"/>
			<path class="st5" d="M367.3,100.1l5.1-0.8c1.4-2.5,1.7-11.9,1.7-11.9s-0.3-9.4-1.7-11.9l-5.1-0.8"/>
			<path class="st5" d="M362.9,110.7c5.6-4.1,5.6-23.4,5.6-23.4s0-19.2-5.6-23.4"/>
		</g>
		<path class="st5" d="M282.1,87.3c0.1-2.3,3-4.6,4.1-5.3c1.1-0.6,2.3,1,2.3,1v4.3v4.3c0,0-1.2,1.6-2.3,1
			C285.1,91.9,282.2,89.6,282.1,87.3z"/>
		<path class="st5" d="M252.5,113c0,0,28.4,0.4,35.9,0s25.7-0.5,36.2,0s28.9,3.3,41,2v9.5"/>
		<path class="st5" d="M349.6,115.1c0,0,1.7,6.4,1.7,9.5"/>
		<path class="st5" d="M337.3,114.1c0,0,2.6,5.3,2.6,10.5"/>
		<path class="st5" d="M324.6,113c0,0,3.3,4,3.3,11.5"/>
		<path class="st5" d="M314.1,112.7c0,0,2.8,5.8,2.8,11.9"/>
		<path class="st5" d="M303,112.7c0,0,4.7,4.9,4.7,11.9"/>
		<path class="st5" d="M252.5,114.1c0,0,5.6,1.3,15.2,1.5c9.5,0.3,26.8,0.1,29.2,0.4c2.5,0.3,5.3,0.5,6.1,3.8
			c0.8,3.3,0.9,4.7,0.9,4.7"/>
		<path class="st5" d="M301.8,124.5c0,0,0.2-3.5-0.8-4.4c-0.9-0.9-2.4-0.9-3.4,0s-1.7,2-1.7,4.4"/>
		<polyline class="st5" points="295.9,122 282.1,122 282.1,124.5 		"/>
		<polyline class="st5" points="282.1,123.3 280,123.3 280,124.5 		"/>
		<path class="st5" d="M299.6,116.4c0,0-4.6,2.5-8,3.1c-3.4,0.5-12.5,0.8-14.3,0.4c-1.9-0.4-4.1-2.2-5.9-4.1"/>
		<path class="st5" d="M267.7,115.6c0,0,3.1,1.7,3.1,8.9"/>
		<path class="st5" d="M447.6,51.2c0,0-66.1,0-68.4,0s-4.3,2.1-4.3,2.1"/>
		<path class="st5" d="M374.9,53.3h51c0,0,14.2-0.3,14.2,16.4s0,54.8,0,54.8"/>
		<polyline class="st5" points="381,65.9 374.9,59.1 384.4,59.7 		"/>
		<path class="st5" d="M383.9,124.5c0,0,0-35.5,0-39.7s1.8-9.5,1.8-9.5l3.9-8.8c0.8-0.8,1.3-1.8,1.3-3c0-2.3-2-4.2-4.4-4.2
			c-2,0-3.7,1.3-4.2,3.1l-5.8,15.9"/>
		<line class="st5" x1="376.5" y1="97.9" x2="376.5" y2="124.5"/>
		<path class="st5" d="M383.9,95.5l39.2-4.1c0.3-0.1,0.7,0,1.1,0c1.7,0,2.5,1,2.5,2.3S426,96,424.2,96l-40.3,4.1"/>
		<path class="st5" d="M245.9,179.3c0,0-2.9-31.8-2.9-54.8"/>
		<path class="st5" d="M245.9,69.8c0,0-2.9,31.8-2.9,54.8"/>
		<ellipse class="st5" cx="262.4" cy="90.5" rx="7.8" ry="16.2"/>
		<ellipse class="st5" cx="262.7" cy="90.5" rx="5.7" ry="14.2"/>
		<ellipse class="st5" cx="264.4" cy="90.5" rx="1" ry="2.9"/>
		<polyline class="st5" points="267.3,99.1 265.4,96.1 260.6,100.2 260.1,103.1 		"/>
		<line class="st5" x1="265.4" y1="96.1" x2="265" y2="92.8"/>
		<polyline class="st5" points="267.3,81.7 265.4,84.7 260.6,80.6 260.1,77.7 		"/>
		<line class="st5" x1="265.4" y1="84.7" x2="265" y2="88.2"/>
		<path class="st5" d="M260.6,80.6c0,0-1.3,5.4-1.3,8.8v1.9c0,3.4,1.3,8.8,1.3,8.8"/>
		<ellipse class="st5" cx="253.8" cy="78.7" rx="1.3" ry="4.8"/>
		<ellipse class="st5" cx="253.8" cy="102.2" rx="1.3" ry="4.8"/>
		<path class="st5" d="M290.9,45.4H223c-2.8,0-5-2.2-5-5V28.1c0-2.8,2.2-5,5-5h67.9c2.8,0,5,2.2,5,5v12.3
			C295.9,43.2,293.7,45.4,290.9,45.4z"/>
		<line class="st5" x1="225.1" y1="45.4" x2="225.1" y2="23.1"/>
		<line class="st5" x1="222.1" y1="45.4" x2="222.1" y2="23.1"/>
		<line class="st5" x1="292.4" y1="45.4" x2="292.4" y2="23.1"/>
		<line class="st5" x1="289.4" y1="45.4" x2="289.4" y2="23.1"/>
		<path class="st5" d="M295.9,29.6c0.7,0,6.9,0.2,8.6-4.9c2.9-8.5,3.8-13.2,3.8-13.2l9.8,1.6c0,0.3-1,5.3-4.2,14.6
			c-3.2,9.2-13,11.6-18.2,11.6"/>
		<polyline class="st5" points="308.4,11.5 307.1,11.3 307.5,9.4 319.7,11.5 319.4,13.3 318.2,13.1 		"/>
		<path class="st5" d="M304.1,37.7l3,10.6c0,0,5,0.2,7.1-2.6l-5-10.7"/>
		<line class="st5" x1="309.2" y1="48.3" x2="308.9" y2="51"/>
		<line class="st5" x1="312.4" y1="47.2" x2="312.9" y2="50.9"/>
		<rect x="199.9" y="29.4" class="st5" width="18.2" height="10.5"/>
		<rect x="195.9" y="28.4" class="st5" width="4" height="12.5"/>
		<path class="st5" d="M195.9,30.1c-5.1,0-8.3,0.6-8.3,0.6l-34.8,9.1l2.9,9.7l34.6-9.2c0,0,3.2-0.9,5.6-0.9"/>
		<path class="st5" d="M152.8,40.6c0,0-8.3-0.4-16.3,0.9l-8.9,2.6l0.2,0.9c0,0-6.2,1.3-11.1,4.9c-5.6,4.1-5.6,11.5-6.4,23"/>
		<path class="st5" d="M155.3,48.7c0,0-8.2,7.3-13.8,9.2c-5.6,1.8-8.6,2.6-8.6,2.6l-0.3-1c0,0-4.1,1.4-5.3,2.1
			c-1.2,0.7-2.5,2.3-2.5,8.9"/>
		<path class="st5" d="M132.7,59.5l-2.1-6.3c0,0,11.9-3.5,13-4.8c1.4-1.4,7.9-3,7.9-3"/>
		<path class="st5" d="M130.5,53.8c0,0-9.5,3-10.8,5.9c-1.5,3.2-1.7,7.1-2.2,12"/>
		<path class="st5" d="M129.7,50.8c0,0-6.9,2.5-8.5,4.1c-1.7,1.6-3.6,6.6-3.7,16.8"/>
		<line class="st5" x1="135.9" y1="41.6" x2="138.5" y2="48.6"/>
		<line class="st5" x1="139.1" y1="50.4" x2="141.8" y2="57.7"/>
		<path class="st5" d="M127.7,44.9l2.2,6.4l8.6-2.7c2.3-0.6,4.6-1,6.3-0.9"/>
		<path class="st6" d="M106.9,200.6c0,0,5.3,0,5.3,5.1s0,18.9,0,18.9s0.1,6.3-6.4,6.3s-59.3,0-61.3,0c-3.3,0-6.5-1.3-7.8-6.8
			s-1.1-14.7-0.6-16.7c0.6-2,2.7-6.7,8.7-6.7S106.9,200.6,106.9,200.6z"/>
		<path class="st6" d="M106.9,48.5c0,0,5.3,0,5.3-5.1s0-18.9,0-18.9s0.1-6.3-6.4-6.3s-59.3,0-61.3,0c-3.3,0-6.5,1.3-7.8,6.8
			s-1.1,14.7-0.6,16.7s2.7,6.7,8.7,6.7S106.9,48.5,106.9,48.5z"/>
	</g>
	<g>
		<rect x="19.2" y="426.1" class="st5" width="2.3" height="72.1"/>
		<rect x="15.3" y="426.1" class="st5" width="2.3" height="72.1"/>
		<ellipse class="st5" cx="63.3" cy="419.4" rx="11.7" ry="11.1"/>
		<ellipse class="st5" cx="62.2" cy="439.5" rx="4.8" ry="4.5"/>
		<ellipse class="st5" cx="63.3" cy="419.4" rx="9.5" ry="8.9"/>
		<path class="st5" d="M57.4,439.5c0,0-0.8-6.3,3.7-7c2.6-0.4,4.7,1.2,5.7,5.7"/>
		<path class="st5" d="M57.8,429.2c0,0,0.1,2.1,2.5,3.4"/>
		<path class="st5" d="M63.6,432.8c0,0,2.5-0.9,3.4-2.8"/>
		<ellipse class="st5" cx="117.6" cy="418.6" rx="3.8" ry="1.6"/>
		<path class="st5" d="M74.7,417c0,0,1.7-4,8.1-6.6c4.2-1.7,17.1-3.2,34.8-3.2"/>
		<path class="st5" d="M70.8,428v7.6c0,0,3.9,0.3,3.9,4.3s-0.2,7.4,0.3,15.8c0.7,12.1,4,20.9,5.4,23.7c1.4,2.7,3.3,3.4,4.5,3.4"/>
		<path class="st5" d="M149.3,483.9H85.9c-0.6,0-1-0.5-1-1v-12.5c0-0.5,0.4-1,1-1h63.4c0.6,0,1,0.5,1,1v12.5
			C150.3,483.5,149.9,483.9,149.3,483.9z"/>
		<path class="st6" d="M21.2,417h9.1c0,0,1.9-0.4,3.6,1.1c1.6,1.5,2.3,2.5,2.3,4.2c0,1.8,0,5,0,5.3s-1.5,0.3-2.3-0.3
			c-0.8-0.6-2.4-1-4.9-1.2s-21.6,0-21.6,0c-1.6,0.1-2.3,1.4-3.2,1.8c0,0-1,0.2-1,0c0-1.3-0.4-2.6,1-3c2.4-0.7,2.3-7.7,5.4-7.8
			C13.6,417,21.2,417,21.2,417z"/>
		<path class="st5" d="M11,416.9c0,0,1.3-3.3,5.5-3.3s26.5,0,26.5,0"/>
		<path class="st6" d="M4.1,425v-16.6c0,0,0.2-3.6,2-5.2c1.7-1.6,3-2.5,6.6-2.5s30.4,0,30.4,0"/>
		<path class="st5" d="M34.9,428c0,0,2,5.9,2,13.7c0,7.8-0.8,17.8-0.8,17.8"/>
		<rect x="32.7" y="459.4" class="st5" width="5.4" height="4.4"/>
		<rect x="38.1" y="460.3" class="st5" width="2.2" height="2.7"/>
		<rect x="67.5" y="461.8" class="st5" width="2.2" height="2.7"/>
		<polygon class="st5" points="67.5,464 40.2,462.5 40.2,460.7 67.5,462.2 		"/>
		<path class="st5" d="M69.7,461.8c0,0,1.5-2.7,2.6-3.4c1.1-0.7,1.4,1.3,1.4,2.3c0.1,1,0,6.5,0,7.2c0,1-0.3,1.7-0.7,1.7
			c-0.6,0-3.3-2.3-3.3-5.2"/>
		<polyline class="st5" points="32.7,476 74.7,477.7 74.7,476 32.7,474.1 70.8,474.1 		"/>
		<path class="st5" d="M71.3,475.8l-1.6-5.6c0,0-0.9,2.3-1.1,3.9"/>
		<path class="st5" d="M72.2,477.7c0,0,0.8,3.3,2.9,3.6c2.1,0.3,7,0.2,7,0.2"/>
		<path class="st5" d="M44.1,478.3l30.6,3c-3.7-0.5-5-3.7-5-3.7"/>
		<line class="st5" x1="62.8" y1="474.1" x2="62.8" y2="463.8"/>
		<line class="st5" x1="48.2" y1="469.6" x2="62.8" y2="469.6"/>
		<line class="st5" x1="50.5" y1="467.7" x2="62.8" y2="467.7"/>
		<line class="st5" x1="59.9" y1="467.7" x2="59.9" y2="469.6"/>
		<polygon class="st5" points="44,472.6 40,468.8 44.7,464.5 48.6,468.2 		"/>
		<polyline class="st5" points="54.6,461.5 50,457.2 61.6,446.3 		"/>
		<polyline class="st5" points="66.1,446.4 70.1,450.2 58,461.6 		"/>
		<polyline class="st5" points="50.9,463 52.5,464.6 49.9,467 46,463.2 46.4,462.9 		"/>
		<polyline class="st5" points="45.6,462.9 50.6,467.6 49.2,468.8 44,463.9 45,462.9 		"/>
		<polyline class="st5" points="48.7,461.1 46.3,458.9 49.2,456.2 54.7,461.4 		"/>
		<polyline class="st5" points="56.8,463.4 57.4,464 54.6,466.6 50.8,463.1 		"/>
		<path class="st5" d="M32.7,468.5c0,0,3-2.2,3.5-4.5"/>
		<line class="st5" x1="34.9" y1="467" x2="40.2" y2="474.1"/>
		<path class="st5" d="M32.7,479.1c0,0,4.9,0.4,7-2.8"/>
		<path class="st5" d="M40,468.8c0,0-1.8-1.4-3.7,0.1"/>
		<line class="st5" x1="44" y1="472.6" x2="44" y2="474.1"/>
		<polyline class="st5" points="64.1,443.7 72.7,443.7 72.7,446.4 48.9,446 48.9,443.3 60.3,443.7 		"/>
		<rect x="46.5" y="441.6" class="st5" width="2.3" height="5.5"/>
		<rect x="44.3" y="442.6" class="st5" width="2" height="3.5"/>
		<polygon class="st5" points="36.9,446 42.3,446.1 42.3,442.6 36.9,442.5 		"/>
		<rect x="42.3" y="442.1" class="st5" width="2" height="4.5"/>
		<line class="st5" x1="66.2" y1="435.9" x2="73.3" y2="441.5"/>
		<polyline class="st5" points="67,440.2 70.9,443.7 74.7,440.2 		"/>
		<line class="st5" x1="72.7" y1="444.5" x2="74.7" y2="444.5"/>
		<path class="st5" d="M69.1,451.1c0,0,1.7,1.4,1.7,2.4c0,1.1,0,2.7,0,2.7"/>
		<path class="st5" d="M70.8,453.5c0,0,1.2-2,1.2-3.1s0-1.8,0-1.8h-3.3"/>
		<line class="st5" x1="50.5" y1="455.3" x2="59.9" y2="461"/>
		<line class="st5" x1="52.2" y1="453.7" x2="61.6" y2="459.4"/>
		<line class="st5" x1="53.9" y1="452.1" x2="63.3" y2="457.8"/>
		<line class="st5" x1="55.7" y1="450.5" x2="65.1" y2="456.2"/>
		<line class="st5" x1="57.4" y1="448.9" x2="66.8" y2="454.6"/>
		<line class="st5" x1="59.2" y1="447.3" x2="68.6" y2="453"/>
		<line class="st5" x1="60.9" y1="445.7" x2="70.3" y2="451.4"/>
		<line class="st5" x1="43.1" y1="460.7" x2="43.1" y2="446.6"/>
		<path class="st6" d="M43.1,442v-39.8c0,0,0-4.3,1.8-5.5c1-0.7,2.2-1,5.2-1"/>
		<line class="st5" x1="70.8" y1="435.5" x2="65.7" y2="434.9"/>
		<line class="st5" x1="58" y1="434.9" x2="43.1" y2="434.9"/>
		<line class="st5" x1="177.2" y1="434.9" x2="192.2" y2="434.9"/>
		<path class="st5" d="M50,435.2v-19.5c0,0-0.3-5.1,1.8-8.2c1.8-2.7,5.5-6.8,16.8-8.2c10-1.2,32-2.8,49-2.8"/>
		<path class="st6" d="M43.1,434.9c0,0,1.4-19.2,4.8-26.6c2.7-5.9,4.3-8.3,10.8-11.6c4.1-2.1,8.7-3.4,16.9-3.7
			c5.3-0.2,42.1-0.3,42.1-0.3"/>
		<line class="st6" x1="45.8" y1="415.3" x2="51.7" y2="387.8"/>
		<path class="st6" d="M54.7,377l3.1-12.2c0,0,2.1-4.6,3-5.9c1.2-1.8,3.6-4.1,7.4-4.1c3.5,0,49.4,0,49.4,0"/>
		<path class="st5" d="M117.6,358.2H69.7c0,0-2.7-0.2-4,1.6c-1,1.3-3,3.6-4.1,7.8c-1.2,4.1-5.8,27.7-5.8,27.7s7.2-3.7,11.8-4.3
			c6.1-0.9,8.5-0.9,12.1-0.9s37.9,0,37.9,0"/>
		<path class="st5" d="M52.5,384.1l-11.4-0.2c-1.6,0-3-1.4-3-2.9v-2.4c0-1.5,1.3-2.7,3-2.7l11.4,0.2c1.6,0,3,1.3,3,2.8v2.4
			C55.5,382.8,54.2,384.1,52.5,384.1z"/>
		<line class="st5" x1="47.4" y1="384.1" x2="52.6" y2="388.6"/>
		<path class="st5" d="M52.8,384.1c0,0-0.3,0.7,0,1.2s1.9,0.8,2.2,1.5s0.1,2.1-0.3,2.7c-0.4,0.6-1.6,2.7-3.9,2.6"/>
		<path class="st5" d="M56.4,392.1c0,0,6.9-4.8,8.9-7c2-2.1,3.6-4.5,3.9-6.3s1.4-9.4,2.4-11.6c1.1-2.4,3.5-5.2,7.5-5.2s4.7,0,4.7,0"
			/>
		<path class="st5" d="M178.8,392.1c0,0-6.9-4.8-8.9-7c-2-2.1-3.6-4.5-3.9-6.3c-0.3-1.8-1.4-9.4-2.4-11.6c-1.1-2.4-3.5-5.2-7.5-5.2
			s-4.7,0-4.7,0"/>
		<path class="st5" d="M66.6,383.7c0,0,3-0.2,4.5-1.1c1.4-0.8,2.1-2.9,2.4-4.8c0.3-1.5,1.1-7.6,1.3-8.7c0.4-2,2.2-4.1,5-4.1
			c2.4,0,4.1,0,4.1,0"/>
		<path class="st5" d="M68.1,381.6c0,0,2,0.1,2.7-1.7c0.7-1.8,1.1-5.9,1.4-8.1c0.4-2.1,0.9-4.4,2.2-6c1-1.2,3-2.4,5-2.4
			c1.3,0,4.4,0,4.4,0"/>
		<path class="st5" d="M64.9,391.5c0,0,4.6-4.7,6.8-4.7s5.8,3.3,5.8,3.3"/>
		<path class="st5" d="M108.4,390c-2.2-1.6-4.9-3.7-6.1-4.9c-2-2.1-3.6-4.5-3.9-6.3s-1.4-9.4-2.4-11.6c-1.1-2.4-3.5-5.2-7.5-5.2
			s-4.7,0-4.7,0"/>
		<path class="st5" d="M101,383.7c0,0-3-0.2-4.5-1.1c-1.4-0.8-2.1-2.9-2.4-4.8c-0.3-1.5-1.1-7.6-1.3-8.7c-0.4-2-2.2-4.1-5-4.1
			c-2.4,0-4.1,0-4.1,0"/>
		<path class="st5" d="M99.6,381.6c0,0-2,0.1-2.7-1.7c-0.7-1.8-1.1-5.9-1.4-8.1s-0.9-4.4-2.2-6c-1-1.2-3-2.4-5-2.4
			c-1.3,0-4.4,0-4.4,0"/>
		<path class="st5" d="M101.2,390c-1.5-1.4-3.9-3.3-5.3-3.3c-2.2,0-5.8,3.3-5.8,3.3"/>
		<path class="st5" d="M117.6,434.9c0,0-19.7,0.2-22.7,0.6c-3.4,0.4-8,1.4-10,4.1c-2.4,3.1-2,9.7-1.8,12.2s0.8,8.7,3.2,12
			c1.7,2.3,3.6,3.2,7.4,3.5c2.8,0.2,17.6,0.4,24,0.4"/>
		<path class="st5" d="M117.6,436.9c0,0-18.3,0-22.9,0.7c-2.8,0.4-6.8,1.3-8.4,3.7c-1.7,2.4-1.4,6.1-1.4,8.7s1,9,1.9,10.9
			c1.1,2.4,3.2,4.4,6.1,4.7s19.2,0.6,24.7,0.6"/>
		<path class="st5" d="M117.6,438.4h-11.3c0,0-2.8-0.1-4,1.6c-1,1.6-0.6,3,0.1,4.4s9,16.7,9.5,17.4c0.5,0.7,1.6,2.2,2.9,2.6
			c1.1,0.3,2.1,0.5,2.9,0.5"/>
		<path class="st5" d="M89.4,406.5l-0.3-3.9c0,0,0.1-1.3,1.5-1.5c1.4-0.1,3.8-0.3,6.4-0.5c3.5-0.2,6-0.3,7.2-0.4
			c1.4-0.1,2.2,0.1,2.3,0.9c0.1,0.9,0.3,4.3,0.3,4.3"/>
		<path class="st5" d="M109.3,400.1v-1.4c0,0,0.2-0.8,1.1-0.8c1,0,5.5-0.1,7.2-0.1"/>
		<line class="st5" x1="110.9" y1="399.6" x2="117.6" y2="399.6"/>
		<line class="st5" x1="90.2" y1="402.9" x2="105.5" y2="401.8"/>
		<line class="st5" x1="90.4" y1="404.5" x2="105.7" y2="403.5"/>
		<line class="st5" x1="90.5" y1="406.1" x2="105.8" y2="405.1"/>
		<path class="st5" d="M56.4,392.1c0,0,7.3-24.6,8.1-26.6c0.8-2.1,3.8-7.3,7.4-7.3"/>
		<line class="st5" x1="66.1" y1="362.5" x2="73.5" y2="364.4"/>
		<line class="st5" x1="63.9" y1="367.2" x2="71" y2="369.1"/>
		<line class="st5" x1="81.4" y1="358.2" x2="81.4" y2="362"/>
		<line class="st5" x1="86.7" y1="358.2" x2="86.7" y2="362"/>
		<polyline class="st5" points="98.8,380.2 106.5,377.9 98,375.5 		"/>
		<rect x="213.6" y="426.1" class="st5" width="2.3" height="72.1"/>
		<rect x="217.5" y="426.1" class="st5" width="2.3" height="72.1"/>
		<ellipse class="st5" cx="172" cy="419.4" rx="11.7" ry="11.1"/>
		<ellipse class="st5" cx="173" cy="439.5" rx="4.8" ry="4.5"/>
		<ellipse class="st5" cx="172" cy="419.4" rx="9.5" ry="8.9"/>
		<path class="st5" d="M177.8,439.5c0,0,0.8-6.3-3.7-7c-2.6-0.4-4.7,1.2-5.7,5.7"/>
		<path class="st5" d="M177.4,429.2c0,0-0.1,2.1-2.5,3.4"/>
		<path class="st5" d="M171.6,432.8c0,0-2.5-0.9-3.4-2.8"/>
		<ellipse class="st5" cx="117.6" cy="418.6" rx="3.8" ry="1.6"/>
		<path class="st5" d="M160.5,417c0,0-1.7-4-8.1-6.6c-4.2-1.7-17.1-3.2-34.8-3.2"/>
		<path class="st5" d="M164.4,428v7.6c0,0-3.9,0.3-3.9,4.3s0.2,7.4-0.3,15.8c-0.7,12.1-4,20.9-5.4,23.7c-1.4,2.7-3.3,3.4-4.5,3.4"/>
		<path class="st6" d="M214,417h-9.1c0,0-1.9-0.4-3.6,1.1c-1.6,1.5-2.3,2.5-2.3,4.2c0,1.8,0,5,0,5.3s1.5,0.3,2.3-0.3s2.4-1,4.9-1.2
			s21.6,0,21.6,0c1.6,0.1,2.3,1.4,3.2,1.8c0,0,1,0.2,1,0c0-1.3,0.4-2.6-1-3c-2.4-0.7-2.3-7.7-5.4-7.8C221.6,417,214,417,214,417z"/>
		<path class="st5" d="M224.2,416.9c0,0-1.3-3.3-5.5-3.3s-26.5,0-26.5,0"/>
		<path class="st6" d="M231.1,425v-16.6c0,0-0.2-3.6-2-5.2c-1.7-1.6-3-2.5-6.6-2.5s-30.4,0-30.4,0"/>
		<path class="st5" d="M200.3,428c0,0-2,5.9-2,13.7c0,7.8,0.8,17.8,0.8,17.8"/>
		<rect x="197.1" y="459.4" class="st5" width="5.4" height="4.4"/>
		<rect x="194.9" y="460.2" class="st5" width="2.2" height="2.7"/>
		<rect x="165.5" y="461.7" class="st5" width="2.2" height="2.7"/>
		<polygon class="st5" points="167.7,464 195,462.5 195,460.7 167.7,462.2 		"/>
		<path class="st5" d="M165.5,461.8c0,0-1.5-2.7-2.6-3.4c-1.1-0.7-1.4,1.3-1.4,2.3c-0.1,1,0,6.5,0,7.2c0,1,0.3,1.7,0.7,1.7
			c0.6,0,3.3-2.3,3.3-5.2"/>
		<polyline class="st5" points="202.5,476 160.5,477.7 160.5,476 202.5,474.1 164.4,474.1 		"/>
		<path class="st5" d="M163.9,475.8l1.6-5.6c0,0,0.9,2.3,1.1,3.9"/>
		<path class="st5" d="M163,477.7c0,0-0.8,3.3-2.9,3.6c-2.1,0.3-7,0.2-7,0.2"/>
		<path class="st5" d="M191.1,478.3l-30.6,3c3.7-0.5,5-3.7,5-3.7"/>
		<line class="st5" x1="172.4" y1="474.1" x2="172.4" y2="463.8"/>
		<line class="st5" x1="187" y1="469.6" x2="172.4" y2="469.6"/>
		<line class="st5" x1="184.7" y1="467.7" x2="172.4" y2="467.7"/>
		<line class="st5" x1="175.4" y1="467.7" x2="175.4" y2="469.6"/>
		<polygon class="st5" points="191.2,472.6 195.2,468.8 190.5,464.5 186.6,468.2 		"/>
		<polyline class="st5" points="180.6,461.5 185.2,457.2 173.6,446.3 		"/>
		<polyline class="st5" points="169.1,446.4 165.1,450.2 177.2,461.6 		"/>
		<polyline class="st5" points="184.3,463 182.7,464.6 185.3,467 189.2,463.2 188.9,462.9 		"/>
		<polyline class="st5" points="189.6,462.9 184.6,467.6 186,468.8 191.2,463.9 190.2,462.9 		"/>
		<polyline class="st5" points="186.5,461.1 188.9,458.9 186.1,456.2 180.6,461.4 		"/>
		<polyline class="st5" points="178.4,463.4 177.8,464 180.7,466.6 184.4,463.1 		"/>
		<path class="st5" d="M202.5,468.5c0,0-3-2.2-3.5-4.5"/>
		<line class="st5" x1="200.3" y1="467" x2="195" y2="474.1"/>
		<path class="st5" d="M202.5,479.1c0,0-4.9,0.4-7-2.8"/>
		<path class="st5" d="M195.2,468.8c0,0,1.8-1.4,3.7,0.1"/>
		<line class="st5" x1="191.2" y1="472.6" x2="191.2" y2="474.1"/>
		<polyline class="st5" points="171.1,443.7 162.5,443.7 162.5,446.4 186.3,446 186.3,443.3 174.9,443.7 		"/>
		<rect x="186.4" y="441.6" class="st5" width="2.3" height="5.5"/>
		<rect x="188.9" y="442.6" class="st5" width="2" height="3.5"/>
		<polygon class="st5" points="198.3,446 192.9,446.1 192.9,442.6 198.3,442.5 		"/>
		<rect x="190.8" y="442.1" class="st5" width="2" height="4.5"/>
		<line class="st5" x1="169" y1="435.9" x2="161.9" y2="441.5"/>
		<polyline class="st5" points="168.2,440.2 164.3,443.7 160.5,440.2 		"/>
		<line class="st5" x1="162.5" y1="444.5" x2="160.5" y2="444.5"/>
		<path class="st5" d="M166.1,451.1c0,0-1.7,1.4-1.7,2.4c0,1.1,0,2.7,0,2.7"/>
		<path class="st5" d="M164.4,453.5c0,0-1.2-2-1.2-3.1s0-1.8,0-1.8h3.3"/>
		<line class="st5" x1="184.7" y1="455.3" x2="175.4" y2="461"/>
		<line class="st5" x1="183" y1="453.7" x2="173.6" y2="459.4"/>
		<line class="st5" x1="181.3" y1="452.1" x2="171.9" y2="457.8"/>
		<line class="st5" x1="179.5" y1="450.5" x2="170.1" y2="456.2"/>
		<line class="st5" x1="177.8" y1="448.9" x2="168.4" y2="454.6"/>
		<line class="st5" x1="176" y1="447.3" x2="166.6" y2="453"/>
		<line class="st5" x1="174.3" y1="445.7" x2="164.9" y2="451.4"/>
		<line class="st5" x1="192.2" y1="460.7" x2="192.2" y2="446.6"/>
		<path class="st6" d="M192.2,442v-39.8c0,0,0-4.3-1.8-5.5c-1-0.7-2.2-1-5.2-1"/>
		<line class="st5" x1="164.4" y1="435.5" x2="169.5" y2="434.9"/>
		<path class="st5" d="M185.2,435.2v-19.5c0,0,0.3-5.1-1.8-8.2c-1.8-2.7-5.5-6.8-16.8-8.2c-10-1.2-32-2.8-49-2.8"/>
		<path class="st6" d="M192.2,434.9c0,0-1.4-19.2-4.8-26.6c-2.7-5.9-4.3-8.3-10.8-11.6c-4.1-2.1-8.7-3.4-16.9-3.7
			c-5.3-0.2-42.1-0.3-42.1-0.3"/>
		<line class="st6" x1="189.4" y1="415.3" x2="183.5" y2="387.8"/>
		<path class="st6" d="M180.5,377l-3.1-12.2c0,0-2.1-4.6-3-5.9c-1.2-1.8-3.6-4.1-7.4-4.1c-3.5,0-49.4,0-49.4,0"/>
		<path class="st5" d="M117.6,358.2h47.9c0,0,2.7-0.2,4,1.6c1,1.3,3,3.6,4.1,7.8c1.2,4.1,5.8,27.7,5.8,27.7s-7.2-3.7-11.8-4.3
			c-6.1-0.9-8.5-0.9-12.1-0.9s-37.9,0-37.9,0"/>
		<path class="st5" d="M182.7,384.1l11.4-0.2c1.6,0,3-1.4,3-2.9v-2.4c0-1.5-1.3-2.7-3-2.7l-11.4,0.2c-1.6,0-3,1.3-3,2.8v2.4
			C179.7,382.8,181.1,384.1,182.7,384.1z"/>
		<line class="st5" x1="187.9" y1="384.1" x2="182.7" y2="388.6"/>
		<path class="st5" d="M182.4,384.1c0,0,0.3,0.7,0,1.2s-1.9,0.8-2.2,1.5s-0.1,2.1,0.3,2.7c0.4,0.6,1.6,2.7,3.9,2.6"/>
		<path class="st5" d="M168.6,383.7c0,0-3-0.2-4.5-1.1c-1.4-0.8-2.1-2.9-2.4-4.8c-0.3-1.5-1.1-7.6-1.3-8.7c-0.4-2-2.2-4.1-5-4.1
			c-2.4,0-4.1,0-4.1,0"/>
		<path class="st5" d="M167.2,381.6c0,0-2,0.1-2.7-1.7c-0.7-1.8-1.1-5.9-1.4-8.1c-0.4-2.1-0.9-4.4-2.2-6c-1-1.2-3-2.4-5-2.4
			c-1.3,0-4.4,0-4.4,0"/>
		<path class="st5" d="M170.3,391.5c0,0-4.6-4.7-6.8-4.7s-5.8,3.3-5.8,3.3"/>
		<path class="st5" d="M126.8,390c2.2-1.6,4.9-3.7,6.1-4.9c2-2.1,3.6-4.5,3.9-6.3c0.3-1.8,1.4-9.4,2.4-11.6c1.1-2.4,3.5-5.2,7.5-5.2
			s4.7,0,4.7,0"/>
		<path class="st5" d="M134.2,383.7c0,0,3-0.2,4.5-1.1c1.4-0.8,2.1-2.9,2.4-4.8c0.3-1.5,1.1-7.6,1.3-8.7c0.4-2,2.2-4.1,5-4.1
			c2.4,0,4.1,0,4.1,0"/>
		<path class="st5" d="M135.6,381.6c0,0,2,0.1,2.7-1.7c0.7-1.8,1.1-5.9,1.4-8.1s0.9-4.4,2.2-6c1-1.2,3-2.4,5-2.4c1.3,0,4.4,0,4.4,0"
			/>
		<path class="st5" d="M134,390c1.5-1.4,3.9-3.3,5.3-3.3c2.2,0,5.8,3.3,5.8,3.3"/>
		<path class="st5" d="M117.6,434.9c0,0,19.7,0.2,22.7,0.6c3.4,0.4,8,1.4,10,4.1c2.4,3.1,2,9.7,1.8,12.2s-0.8,8.7-3.2,12
			c-1.7,2.3-3.6,3.2-7.4,3.5c-2.8,0.2-17.6,0.4-24,0.4"/>
		<path class="st5" d="M117.6,436.9c0,0,18.3,0,22.9,0.7c2.8,0.4,6.8,1.3,8.4,3.7c1.7,2.4,1.4,6.1,1.4,8.7s-1,9-1.9,10.9
			c-1.1,2.4-3.2,4.4-6.1,4.7c-2.9,0.3-19.2,0.6-24.7,0.6"/>
		<path class="st5" d="M117.6,438.4h11.3c0,0,2.8-0.1,4,1.6c1,1.6,0.6,3-0.1,4.4c-0.7,1.4-9,16.7-9.5,17.4c-0.5,0.7-1.6,2.2-2.9,2.6
			c-1.1,0.3-2.1,0.5-2.9,0.5"/>
		<path class="st5" d="M145.8,406.5l0.3-3.9c0,0-0.1-1.3-1.5-1.5c-1.4-0.1-3.8-0.3-6.4-0.5c-3.5-0.2-6-0.3-7.2-0.4
			c-1.4-0.1-2.2,0.1-2.3,0.9c-0.1,0.9-0.3,4.3-0.3,4.3"/>
		<path class="st5" d="M125.9,400.1v-1.4c0,0-0.2-0.8-1.1-0.8c-1,0-5.5-0.1-7.2-0.1"/>
		<line class="st5" x1="124.3" y1="399.6" x2="117.6" y2="399.6"/>
		<line class="st5" x1="145" y1="402.9" x2="129.7" y2="401.8"/>
		<line class="st5" x1="144.8" y1="404.5" x2="129.5" y2="403.5"/>
		<line class="st5" x1="144.7" y1="406.1" x2="129.4" y2="405.1"/>
		<path class="st5" d="M178.8,392.1c0,0-7.3-24.6-8.1-26.6s-3.8-7.3-7.4-7.3"/>
		<line class="st5" x1="169.1" y1="362.5" x2="161.7" y2="364.4"/>
		<line class="st5" x1="171.3" y1="367.2" x2="164.2" y2="369.1"/>
		<line class="st5" x1="153.8" y1="358.2" x2="153.8" y2="362"/>
		<line class="st5" x1="148.5" y1="358.2" x2="148.5" y2="362"/>
		<polyline class="st5" points="138.4,369.9 117.6,376 96.8,369.9 		"/>
		<polyline class="st5" points="133.4,384.5 117.6,379.9 101.8,384.5 		"/>
		<polyline class="st5" points="136.4,380.2 128.8,377.9 137.2,375.5 		"/>
		<polyline class="st5" points="128.8,377.9 117.6,377.9 106.5,377.9 		"/>
		<path class="st5" d="M106.7,442c0,0,0-1.7,1.6-1.7c0.9,0,17.1,0,18.5,0s2.2,0.6,3,1.7c0.8,1.1,0.4,3.5-0.4,4.4
			c-0.8,1-7,6.7-7.6,9.2s-0.8,4.5-0.8,4.5s0.2,2-1.6,2s-3.9,0-3.9,0s-1.8,0.2-1.8-1.2s0-3.6,1-5.3c1-1.6,3.7-5.1,5.2-6.1
			s3.8-3.1,4.1-3.5c0.3-0.4,0.1-0.8-0.7-0.8c-0.8,0-10.1,0-10.1,0s-0.6,0.1-0.6,0.6s0,2,0,2h-5.8L106.7,442L106.7,442z"/>
		<path class="st6" d="M32.7,427v67.4c0,2.1-1.8,3.7-4.1,3.7H8.2c-2.2,0-4.1-1.7-4.1-3.7V428"/>
		<path class="st6" d="M202.5,427v67.4c0,2.1,1.8,3.7,4.1,3.7H227c2.2,0,4.1-1.7,4.1-3.7V428"/>
		<path class="st6" d="M42.3,476.4l6.5,6.8c0,0,1.9,2.3,4.2,1.3s8-4.5,8-4.5"/>
		<line class="st6" x1="53" y1="484.4" x2="117.6" y2="484.4"/>
		<path class="st6" d="M192.9,476.4l-6.5,6.8c0,0-1.9,2.3-4.2,1.3s-8-4.5-8-4.5"/>
		<line class="st6" x1="182.2" y1="484.4" x2="117.6" y2="484.4"/>
	</g>
</g>
<g id="Shapes">
</g>
</svg>
